<?xml version="1.0"?>
<svg height="300" version="1.1" width="600" xmlns:xlink="http://www.w3.org/1999/xlink" xmlns="http://www.w3.org/2000/svg"><g><g><polygon fill="#ff2b2b" points="50.00,280.00 75.00,280.00 75.00,267.00 50.00,267.00" /><polygon fill="#ff2b2b" points="75.00,280.00 100.00,280.00 100.00,267.00 75.00,267.00" /><polygon fill="#ff2b2b" points="100.00,280.00 125.00,280.00 125.00,267.00 100.00,267.00" /><polygon fill="#ff2b2b" points="125.00,280.00 150.00,280.00 150.00,267.00 125.00,267.00" /><polygon fill="#ff2b2b" points="150.00,280.00 175.00,280.00 175.00,267.00 150.00,267.00" /><polygon fill="#ff2b2b" points="175.00,280.00 200.00,280.00 200.00,267.00 175.00,267.00" /><polygon fill="#ff2b2b" points="200.00,280.00 225.00,280.00 225.00,267.00 200.00,267.00" /><polygon fill="#ff2b2b" points="225.00,280.00 250.00,280.00 250.00,267.00 225.00,267.00" /><polygon fill="#ff2b2b" points="250.00,280.00 275.00,280.00 275.00,267.00 250.00,267.00" /><polygon fill="#ff2b2b" points="275.00,280.00 300.00,280.00 300.00,267.00 275.00,267.00" /><polygon fill="#ff2b2b" points="300.00,280.00 325.00,280.00 325.00,267.00 300.00,267.00" /><polygon fill="#ff2b2b" points="325.00,280.00 350.00,280.00 350.00,267.00 325.00,267.00" /><polygon fill="#ff2b2b" points="350.00,280.00 375.00,280.00 375.00,267.00 350.00,267.00" /><polygon fill="#ff2b2b" points="375.00,280.00 400.00,280.00 400.00,267.00 375.00,267.00" /><polygon fill="#ff2b2b" points="400.00,280.00 425.00,280.00 425.00,267.00 400.00,267.00" /><polygon fill="#ff2b2b" points="425.00,280.00 450.00,280.00 450.00,267.00 425.00,267.00" /><polygon fill="#ff2b2b" points="450.00,280.00 475.00,280.00 475.00,267.00 450.00,267.00" /><polygon fill="#ff2b2b" points="475.00,280.00 500.00,280.00 500.00,267.00 475.00,267.00" /><polygon fill="#ff2b2b" points="500.00,280.00 525.00,280.00 525.00,267.00 500.00,267.00" /><polygon fill="#ff2b2b" points="525.00,280.00 550.00,280.00 550.00,267.00 525.00,267.00" /><polygon fill="#ff2b2b" points="50.00,267.00 75.00,267.00 75.00,254.00 50.00,254.00" /><polygon fill="#ff2b2b" points="75.00,267.00 100.00,267.00 100.00,254.00 75.00,254.00" /><polygon fill="#ff2b2b" points="100.00,267.00 125.00,267.00 125.00,254.00 100.00,254.00" /><polygon fill="#ff2b2b" points="125.00,267.00 150.00,267.00 150.00,254.00 125.00,254.00" /><polygon fill="#ff2b2b" points="150.00,267.00 175.00,267.00 175.00,254.00 150.00,254.00" /><polygon fill="#ff2b2b" points="175.00,267.00 200.00,267.00 200.00,254.00 175.00,254.00" /><polygon fill="#ff2b2b" points="200.00,267.00 225.00,267.00 225.00,254.00 200.00,254.00" /><polygon fill="#ff2b2b" points="225.00,267.00 250.00,267.00 250.00,254.00 225.00,254.00" /><polygon fill="#ff2b2b" points="250.00,267.00 275.00,267.00 275.00,254.00 250.00,254.00" /><polygon fill="#ff2b2b" points="275.00,267.00 300.00,267.00 300.00,254.00 275.00,254.00" /><polygon fill="#ff2b2b" points="300.00,267.00 325.00,267.00 325.00,254.00 300.00,254.00" /><polygon fill="#ff2b2b" points="325.00,267.00 350.00,267.00 350.00,254.00 325.00,254.00" /><polygon fill="#ff2b2b" points="350.00,267.00 375.00,267.00 375.00,254.00 350.00,254.00" /><polygon fill="#ff2b2b" points="375.00,267.00 400.00,267.00 400.00,254.00 375.00,254.00" /><polygon fill="#ff2b2b" points="400.00,267.00 425.00,267.00 425.00,254.00 400.00,254.00" /><polygon fill="#ff2b2b" points="425.00,267.00 450.00,267.00 450.00,254.00 425.00,254.00" /><polygon fill="#ff2b2b" points="450.00,267.00 475.00,267.00 475.00,254.00 450.00,254.00" /><polygon fill="#ff2b2b" points="475.00,267.00 500.00,267.00 500.00,254.00 475.00,254.00" /><polygon fill="#ff2b2b" points="500.00,267.00 525.00,267.00 525.00,254.00 500.00,254.00" /><polygon fill="#ff2b2b" points="525.00,267.00 550.00,267.00 550.00,254.00 525.00,254.00" /><polygon fill="#ff2b2b" points="50.00,254.00 75.00,254.00 75.00,241.00 50.00,241.00" /><polygon fill="#ff2b2b" points="75.00,254.00 100.00,254.00 100.00,241.00 75.00,241.00" /><polygon fill="#ff2b2b" points="100.00,254.00 125.00,254.00 125.00,241.00 100.00,241.00" /><polygon fill="#ff2b2b" points="125.00,254.00 150.00,254.00 150.00,241.00 125.00,241.00" /><polygon fill="#ff2b2b" points="150.00,254.00 175.00,254.00 175.00,241.00 150.00,241.00" /><polygon fill="#ff2b2b" points="175.00,254.00 200.00,254.00 200.00,241.00 175.00,241.00" /><polygon fill="#f300b2" points="200.00,254.00 225.00,254.00 225.00,241.00 200.00,241.00" /><polygon fill="#193eff" points="225.00,254.00 250.00,254.00 250.00,241.00 225.00,241.00" /><polygon fill="#a8fa00" points="250.00,254.00 275.00,254.00 275.00,241.00 250.00,241.00" /><polygon fill="#ff2b2b" points="275.00,254.00 300.00,254.00 300.00,241.00 275.00,241.00" /><polygon fill="#ff2b2b" points="300.00,254.00 325.00,254.00 325.00,241.00 300.00,241.00" /><polygon fill="#ff2b2b" points="325.00,254.00 350.00,254.00 350.00,241.00 325.00,241.00" /><polygon fill="#1048ff" points="350.00,254.00 375.00,254.00 375.00,241.00 350.00,241.00" /><polygon fill="#ff2b2b" points="375.00,254.00 400.00,254.00 400.00,241.00 375.00,241.00" /><polygon fill="#ff2b2b" points="400.00,254.00 425.00,254.00 425.00,241.00 400.00,241.00" /><polygon fill="#ff2b2b" points="425.00,254.00 450.00,254.00 450.00,241.00 425.00,241.00" /><polygon fill="#ff2b2b" points="450.00,254.00 475.00,254.00 475.00,241.00 450.00,241.00" /><polygon fill="#ff2b2b" points="475.00,254.00 500.00,254.00 500.00,241.00 475.00,241.00" /><polygon fill="#ff2b2b" points="500.00,254.00 525.00,254.00 525.00,241.00 500.00,241.00" /><polygon fill="#ff2b2b" points="525.00,254.00 550.00,254.00 550.00,241.00 525.00,241.00" /><polygon fill="#ff2b2b" points="50.00,241.00 75.00,241.00 75.00,228.00 50.00,228.00" /><polygon fill="#ff2b2b" points="75.00,241.00 100.00,241.00 100.00,228.00 75.00,228.00" /><polygon fill="#ff2b2b" points="100.00,241.00 125.00,241.00 125.00,228.00 100.00,228.00" /><polygon fill="#ff2b2b" points="125.00,241.00 150.00,241.00 150.00,228.00 125.00,228.00" /><polygon fill="#fa00a7" points="150.00,241.00 175.00,241.00 175.00,228.00 150.00,228.00" /><polygon fill="#ff2b2b" points="175.00,241.00 200.00,241.00 200.00,228.00 175.00,228.00" /><polygon fill="#ff2b2b" points="200.00,241.00 225.00,241.00 225.00,228.00 200.00,228.00" /><polygon fill="#ff2b2b" points="225.00,241.00 250.00,241.00 250.00,228.00 225.00,228.00" /><polygon fill="#ff2b2b" points="250.00,241.00 275.00,241.00 275.00,228.00 250.00,228.00" /><polygon fill="#ff2b2b" points="275.00,241.00 300.00,241.00 300.00,228.00 275.00,228.00" /><polygon fill="#ff2b2b" points="300.00,241.00 325.00,241.00 325.00,228.00 300.00,228.00" /><polygon fill="#10ff48" points="325.00,241.00 350.00,241.00 350.00,228.00 325.00,228.00" /><polygon fill="#ff2b2b" points="350.00,241.00 375.00,241.00 375.00,228.00 350.00,228.00" /><polygon fill="#00ff92" points="375.00,241.00 400.00,241.00 400.00,228.00 375.00,228.00" /><polygon fill="#2b2bff" points="400.00,241.00 425.00,241.00 425.00,228.00 400.00,228.00" /><polygon fill="#ff2b2b" points="425.00,241.00 450.00,241.00 450.00,228.00 425.00,228.00" /><polygon fill="#ff2b2b" points="450.00,241.00 475.00,241.00 475.00,228.00 450.00,228.00" /><polygon fill="#ff2b2b" points="475.00,241.00 500.00,241.00 500.00,228.00 475.00,228.00" /><polygon fill="#ff2b2b" points="500.00,241.00 525.00,241.00 525.00,228.00 500.00,228.00" /><polygon fill="#ff2b2b" points="525.00,241.00 550.00,241.00 550.00,228.00 525.00,228.00" /><polygon fill="#ff2b2b" points="50.00,228.00 75.00,228.00 75.00,215.00 50.00,215.00" /><polygon fill="#ff2b2b" points="75.00,228.00 100.00,228.00 100.00,215.00 75.00,215.00" /><polygon fill="#ff2b2b" points="100.00,228.00 125.00,228.00 125.00,215.00 100.00,215.00" /><polygon fill="#ff015d" points="125.00,228.00 150.00,228.00 150.00,215.00 125.00,215.00" /><polygon fill="#ff2b2b" points="150.00,228.00 175.00,228.00 175.00,215.00 150.00,215.00" /><polygon fill="#34ff21" points="175.00,228.00 200.00,228.00 200.00,215.00 175.00,215.00" /><polygon fill="#ff2b2b" points="200.00,228.00 225.00,228.00 225.00,215.00 200.00,215.00" /><polygon fill="#ff2b2b" points="225.00,228.00 250.00,228.00 250.00,215.00 225.00,215.00" /><polygon fill="#ff2b2b" points="250.00,228.00 275.00,228.00 275.00,215.00 250.00,215.00" /><polygon fill="#ff2b2b" points="275.00,228.00 300.00,228.00 300.00,215.00 275.00,215.00" /><polygon fill="#ff2b2b" points="300.00,228.00 325.00,228.00 325.00,215.00 300.00,215.00" /><polygon fill="#bc00eb" points="325.00,228.00 350.00,228.00 350.00,215.00 325.00,215.00" /><polygon fill="#ff2b2b" points="350.00,228.00 375.00,228.00 375.00,215.00 350.00,215.00" /><polygon fill="#ff2b2b" points="375.00,228.00 400.00,228.00 400.00,215.00 375.00,215.00" /><polygon fill="#ff9d00" points="400.00,228.00 425.00,228.00 425.00,215.00 400.00,215.00" /><polygon fill="#ff2b2b" points="425.00,228.00 450.00,228.00 450.00,215.00 425.00,215.00" /><polygon fill="#ff2b2b" points="450.00,228.00 475.00,228.00 475.00,215.00 450.00,215.00" /><polygon fill="#ff2b2b" points="475.00,228.00 500.00,228.00 500.00,215.00 475.00,215.00" /><polygon fill="#ff2b2b" points="500.00,228.00 525.00,228.00 525.00,215.00 500.00,215.00" /><polygon fill="#ff2b2b" points="525.00,228.00 550.00,228.00 550.00,215.00 525.00,215.00" /><polygon fill="#ff2b2b" points="50.00,215.00 75.00,215.00 75.00,202.00 50.00,202.00" /><polygon fill="#ff2b2b" points="75.00,215.00 100.00,215.00 100.00,202.00 75.00,202.00" /><polygon fill="#ff2b2b" points="100.00,215.00 125.00,215.00 125.00,202.00 100.00,202.00" /><polygon fill="#00c6e2" points="125.00,215.00 150.00,215.00 150.00,202.00 125.00,202.00" /><polygon fill="#ff2b2b" points="150.00,215.00 175.00,215.00 175.00,202.00 150.00,202.00" /><polygon fill="#0088ff" points="175.00,215.00 200.00,215.00 200.00,202.00 175.00,202.00" /><polygon fill="#7200ff" points="200.00,215.00 225.00,215.00 225.00,202.00 200.00,202.00" /><polygon fill="#ff2b2b" points="225.00,215.00 250.00,215.00 250.00,202.00 225.00,202.00" /><polygon fill="#ff2b2b" points="250.00,215.00 275.00,215.00 275.00,202.00 250.00,202.00" /><polygon fill="#ff2b2b" points="275.00,215.00 300.00,215.00 300.00,202.00 275.00,202.00" /><polygon fill="#ff2b2b" points="300.00,215.00 325.00,215.00 325.00,202.00 300.00,202.00" /><polygon fill="#ff2b2b" points="325.00,215.00 350.00,215.00 350.00,202.00 325.00,202.00" /><polygon fill="#d900d0" points="350.00,215.00 375.00,215.00 375.00,202.00 350.00,202.00" /><polygon fill="#193eff" points="375.00,215.00 400.00,215.00 400.00,202.00 375.00,202.00" /><polygon fill="#ff2b2b" points="400.00,215.00 425.00,215.00 425.00,202.00 400.00,202.00" /><polygon fill="#ff2b2b" points="425.00,215.00 450.00,215.00 450.00,202.00 425.00,202.00" /><polygon fill="#00b2f3" points="450.00,215.00 475.00,215.00 475.00,202.00 450.00,202.00" /><polygon fill="#ff2b2b" points="475.00,215.00 500.00,215.00 500.00,202.00 475.00,202.00" /><polygon fill="#ff2b2b" points="500.00,215.00 525.00,215.00 525.00,202.00 500.00,202.00" /><polygon fill="#ff2b2b" points="525.00,215.00 550.00,215.00 550.00,202.00 525.00,202.00" /><polygon fill="#ff2b2b" points="50.00,202.00 75.00,202.00 75.00,189.00 50.00,189.00" /><polygon fill="#ff2b2b" points="75.00,202.00 100.00,202.00 100.00,189.00 75.00,189.00" /><polygon fill="#ff2b2b" points="100.00,202.00 125.00,202.00 125.00,189.00 100.00,189.00" /><polygon fill="#ff2b2b" points="125.00,202.00 150.00,202.00 150.00,189.00 125.00,189.00" /><polygon fill="#ff6700" points="150.00,202.00 175.00,202.00 175.00,189.00 150.00,189.00" /><polygon fill="#ff2b2b" points="175.00,202.00 200.00,202.00 200.00,189.00 175.00,189.00" /><polygon fill="#ff2b2b" points="200.00,202.00 225.00,202.00 225.00,189.00 200.00,189.00" /><polygon fill="#ff2b2b" points="225.00,202.00 250.00,202.00 250.00,189.00 225.00,189.00" /><polygon fill="#ff2b2b" points="250.00,202.00 275.00,202.00 275.00,189.00 250.00,189.00" /><polygon fill="#ff2b2b" points="275.00,202.00 300.00,202.00 300.00,189.00 275.00,189.00" /><polygon fill="#ff2b2b" points="300.00,202.00 325.00,202.00 325.00,189.00 300.00,189.00" /><polygon fill="#ff2b2b" points="325.00,202.00 350.00,202.00 350.00,189.00 325.00,189.00" /><polygon fill="#ff2b2b" points="350.00,202.00 375.00,202.00 375.00,189.00 350.00,189.00" /><polygon fill="#ff2b2b" points="375.00,202.00 400.00,202.00 400.00,189.00 375.00,189.00" /><polygon fill="#3e19ff" points="400.00,202.00 425.00,202.00 425.00,189.00 400.00,189.00" /><polygon fill="#ff2b2b" points="425.00,202.00 450.00,202.00 450.00,189.00 425.00,189.00" /><polygon fill="#ff2b2b" points="450.00,202.00 475.00,202.00 475.00,189.00 450.00,189.00" /><polygon fill="#ff2b2b" points="475.00,202.00 500.00,202.00 500.00,189.00 475.00,189.00" /><polygon fill="#ff2b2b" points="500.00,202.00 525.00,202.00 525.00,189.00 500.00,189.00" /><polygon fill="#ff2b2b" points="525.00,202.00 550.00,202.00 550.00,189.00 525.00,189.00" /><polygon fill="#ff2b2b" points="50.00,189.00 75.00,189.00 75.00,176.00 50.00,176.00" /><polygon fill="#ff2b2b" points="75.00,189.00 100.00,189.00 100.00,176.00 75.00,176.00" /><polygon fill="#ff2b2b" points="100.00,189.00 125.00,189.00 125.00,176.00 100.00,176.00" /><polygon fill="#0088ff" points="125.00,189.00 150.00,189.00 150.00,176.00 125.00,176.00" /><polygon fill="#ff2b2b" points="150.00,189.00 175.00,189.00 175.00,176.00 150.00,176.00" /><polygon fill="#ff2b2b" points="175.00,189.00 200.00,189.00 200.00,176.00 175.00,176.00" /><polygon fill="#ff2b2b" points="200.00,189.00 225.00,189.00 225.00,176.00 200.00,176.00" /><polygon fill="#ff2b2b" points="225.00,189.00 250.00,189.00 250.00,176.00 225.00,176.00" /><polygon fill="#ff2b2b" points="250.00,189.00 275.00,189.00 275.00,176.00 250.00,176.00" /><polygon fill="#ff2b2b" points="275.00,189.00 300.00,189.00 300.00,176.00 275.00,176.00" /><polygon fill="#ff2b2b" points="300.00,189.00 325.00,189.00 325.00,176.00 300.00,176.00" /><polygon fill="#ff2b2b" points="325.00,189.00 350.00,189.00 350.00,176.00 325.00,176.00" /><polygon fill="#ff2b2b" points="350.00,189.00 375.00,189.00 375.00,176.00 350.00,176.00" /><polygon fill="#ff2b2b" points="375.00,189.00 400.00,189.00 400.00,176.00 375.00,176.00" /><polygon fill="#ff2b2b" points="400.00,189.00 425.00,189.00 425.00,176.00 400.00,176.00" /><polygon fill="#01ff5d" points="425.00,189.00 450.00,189.00 450.00,176.00 425.00,176.00" /><polygon fill="#21ff34" points="450.00,189.00 475.00,189.00 475.00,176.00 450.00,176.00" /><polygon fill="#ff2b2b" points="475.00,189.00 500.00,189.00 500.00,176.00 475.00,176.00" /><polygon fill="#ff2b2b" points="500.00,189.00 525.00,189.00 525.00,176.00 500.00,176.00" /><polygon fill="#ff2b2b" points="525.00,189.00 550.00,189.00 550.00,176.00 525.00,176.00" /><polygon fill="#ff2b2b" points="50.00,176.00 75.00,176.00 75.00,163.00 50.00,163.00" /><polygon fill="#ff2b2b" points="75.00,176.00 100.00,176.00 100.00,163.00 75.00,163.00" /><polygon fill="#ff2b2b" points="100.00,176.00 125.00,176.00 125.00,163.00 100.00,163.00" /><polygon fill="#3eff19" points="125.00,176.00 150.00,176.00 150.00,163.00 125.00,163.00" /><polygon fill="#4810ff" points="150.00,176.00 175.00,176.00 175.00,163.00 150.00,163.00" /><polygon fill="#ff2b2b" points="175.00,176.00 200.00,176.00 200.00,163.00 175.00,163.00" /><polygon fill="#ff2b2b" points="200.00,176.00 225.00,176.00 225.00,163.00 200.00,163.00" /><polygon fill="#ff2b2b" points="225.00,176.00 250.00,176.00 250.00,163.00 225.00,163.00" /><polygon fill="#ff2b2b" points="250.00,176.00 275.00,176.00 275.00,163.00 250.00,163.00" /><polygon fill="#ff2b2b" points="275.00,176.00 300.00,176.00 300.00,163.00 275.00,163.00" /><polygon fill="#ff2b2b" points="300.00,176.00 325.00,176.00 325.00,163.00 300.00,163.00" /><polygon fill="#ff015d" points="325.00,176.00 350.00,176.00 350.00,163.00 325.00,163.00" /><polygon fill="#ff2b2b" points="350.00,176.00 375.00,176.00 375.00,163.00 350.00,163.00" /><polygon fill="#ff2b2b" points="375.00,176.00 400.00,176.00 400.00,163.00 375.00,163.00" /><polygon fill="#ff2b2b" points="400.00,176.00 425.00,176.00 425.00,163.00 400.00,163.00" /><polygon fill="#ff2b2b" points="425.00,176.00 450.00,176.00 450.00,163.00 425.00,163.00" /><polygon fill="#d0d900" points="450.00,176.00 475.00,176.00 475.00,163.00 450.00,163.00" /><polygon fill="#5dff01" points="475.00,176.00 500.00,176.00 500.00,163.00 475.00,163.00" /><polygon fill="#ff2b2b" points="500.00,176.00 525.00,176.00 525.00,163.00 500.00,163.00" /><polygon fill="#ff2b2b" points="525.00,176.00 550.00,176.00 550.00,163.00 525.00,163.00" /><polygon fill="#ff2b2b" points="50.00,163.00 75.00,163.00 75.00,150.00 50.00,150.00" /><polygon fill="#ff2b2b" points="75.00,163.00 100.00,163.00 100.00,150.00 75.00,150.00" /><polygon fill="#ff2b2b" points="100.00,163.00 125.00,163.00 125.00,150.00 100.00,150.00" /><polygon fill="#ff2b2b" points="125.00,163.00 150.00,163.00 150.00,150.00 125.00,150.00" /><polygon fill="#8800ff" points="150.00,163.00 175.00,163.00 175.00,150.00 150.00,150.00" /><polygon fill="#ff2b2b" points="175.00,163.00 200.00,163.00 200.00,150.00 175.00,150.00" /><polygon fill="#ff2b2b" points="200.00,163.00 225.00,163.00 225.00,150.00 200.00,150.00" /><polygon fill="#ff2b2b" points="225.00,163.00 250.00,163.00 250.00,150.00 225.00,150.00" /><polygon fill="#ff2b2b" points="250.00,163.00 275.00,163.00 275.00,150.00 250.00,150.00" /><polygon fill="#ff2b2b" points="275.00,163.00 300.00,163.00 300.00,150.00 275.00,150.00" /><polygon fill="#0072ff" points="300.00,163.00 325.00,163.00 325.00,150.00 300.00,150.00" /><polygon fill="#ff2b2b" points="325.00,163.00 350.00,163.00 350.00,150.00 325.00,150.00" /><polygon fill="#ff2b2b" points="350.00,163.00 375.00,163.00 375.00,150.00 350.00,150.00" /><polygon fill="#ff2b2b" points="375.00,163.00 400.00,163.00 400.00,150.00 375.00,150.00" /><polygon fill="#ff2b2b" points="400.00,163.00 425.00,163.00 425.00,150.00 400.00,150.00" /><polygon fill="#ff2b2b" points="425.00,163.00 450.00,163.00 450.00,150.00 425.00,150.00" /><polygon fill="#0067ff" points="450.00,163.00 475.00,163.00 475.00,150.00 450.00,150.00" /><polygon fill="#ff2b2b" points="475.00,163.00 500.00,163.00 500.00,150.00 475.00,150.00" /><polygon fill="#fa00a7" points="500.00,163.00 525.00,163.00 525.00,150.00 500.00,150.00" /><polygon fill="#ff2b2b" points="525.00,163.00 550.00,163.00 550.00,150.00 525.00,150.00" /><polygon fill="#ff2b2b" points="50.00,150.00 75.00,150.00 75.00,137.00 50.00,137.00" /><polygon fill="#ff2b2b" points="75.00,150.00 100.00,150.00 100.00,137.00 75.00,137.00" /><polygon fill="#10ff48" points="100.00,150.00 125.00,150.00 125.00,137.00 100.00,137.00" /><polygon fill="#ff2b2b" points="125.00,150.00 150.00,150.00 150.00,137.00 125.00,137.00" /><polygon fill="#1048ff" points="150.00,150.00 175.00,150.00 175.00,137.00 150.00,137.00" /><polygon fill="#ff2b2b" points="175.00,150.00 200.00,150.00 200.00,137.00 175.00,137.00" /><polygon fill="#ff2b2b" points="200.00,150.00 225.00,150.00 225.00,137.00 200.00,137.00" /><polygon fill="#ff2b2b" points="225.00,150.00 250.00,150.00 250.00,137.00 225.00,137.00" /><polygon fill="#ff2b2b" points="250.00,150.00 275.00,150.00 275.00,137.00 250.00,137.00" /><polygon fill="#ff2b2b" points="275.00,150.00 300.00,150.00 300.00,137.00 275.00,137.00" /><polygon fill="#e2c600" points="300.00,150.00 325.00,150.00 325.00,137.00 300.00,137.00" /><polygon fill="#ff2b2b" points="325.00,150.00 350.00,150.00 350.00,137.00 325.00,137.00" /><polygon fill="#ff2b2b" points="350.00,150.00 375.00,150.00 375.00,137.00 350.00,137.00" /><polygon fill="#ff2b2b" points="375.00,150.00 400.00,150.00 400.00,137.00 375.00,137.00" /><polygon fill="#ff2b2b" points="400.00,150.00 425.00,150.00 425.00,137.00 400.00,137.00" /><polygon fill="#ff2b2b" points="425.00,150.00 450.00,150.00 450.00,137.00 425.00,137.00" /><polygon fill="#00ff7d" points="450.00,150.00 475.00,150.00 475.00,137.00 450.00,137.00" /><polygon fill="#ff2b2b" points="475.00,150.00 500.00,150.00 500.00,137.00 475.00,137.00" /><polygon fill="#ff2b2b" points="500.00,150.00 525.00,150.00 525.00,137.00 500.00,137.00" /><polygon fill="#ff2b2b" points="525.00,150.00 550.00,150.00 550.00,137.00 525.00,137.00" /><polygon fill="#ff2b2b" points="50.00,137.00 75.00,137.00 75.00,124.00 50.00,124.00" /><polygon fill="#ff2b2b" points="75.00,137.00 100.00,137.00 100.00,124.00 75.00,124.00" /><polygon fill="#00d9d0" points="100.00,137.00 125.00,137.00 125.00,124.00 100.00,124.00" /><polygon fill="#88ff00" points="125.00,137.00 150.00,137.00 150.00,124.00 125.00,124.00" /><polygon fill="#7200ff" points="150.00,137.00 175.00,137.00 175.00,124.00 150.00,124.00" /><polygon fill="#ff2b2b" points="175.00,137.00 200.00,137.00 200.00,124.00 175.00,124.00" /><polygon fill="#ff2b2b" points="200.00,137.00 225.00,137.00 225.00,124.00 200.00,124.00" /><polygon fill="#ff2b2b" points="225.00,137.00 250.00,137.00 250.00,124.00 225.00,124.00" /><polygon fill="#ff2b2b" points="250.00,137.00 275.00,137.00 275.00,124.00 250.00,124.00" /><polygon fill="#ff2b2b" points="275.00,137.00 300.00,137.00 300.00,124.00 275.00,124.00" /><polygon fill="#ff2b2b" points="300.00,137.00 325.00,137.00 325.00,124.00 300.00,124.00" /><polygon fill="#ff2b2b" points="325.00,137.00 350.00,137.00 350.00,124.00 325.00,124.00" /><polygon fill="#ff2b2b" points="350.00,137.00 375.00,137.00 375.00,124.00 350.00,124.00" /><polygon fill="#ff2b2b" points="375.00,137.00 400.00,137.00 400.00,124.00 375.00,124.00" /><polygon fill="#ff2b2b" points="400.00,137.00 425.00,137.00 425.00,124.00 400.00,124.00" /><polygon fill="#ff2b2b" points="425.00,137.00 450.00,137.00 450.00,124.00 425.00,124.00" /><polygon fill="#7200ff" points="450.00,137.00 475.00,137.00 475.00,124.00 450.00,124.00" /><polygon fill="#ff2b2b" points="475.00,137.00 500.00,137.00 500.00,124.00 475.00,124.00" /><polygon fill="#ff0088" points="500.00,137.00 525.00,137.00 525.00,124.00 500.00,124.00" /><polygon fill="#ff2b2b" points="525.00,137.00 550.00,137.00 550.00,124.00 525.00,124.00" /><polygon fill="#ff2b2b" points="50.00,124.00 75.00,124.00 75.00,111.00 50.00,111.00" /><polygon fill="#ff2b2b" points="75.00,124.00 100.00,124.00 100.00,111.00 75.00,111.00" /><polygon fill="#a800fa" points="100.00,124.00 125.00,124.00 125.00,111.00 100.00,111.00" /><polygon fill="#3eff19" points="125.00,124.00 150.00,124.00 150.00,111.00 125.00,111.00" /><polygon fill="#3eff19" points="150.00,124.00 175.00,124.00 175.00,111.00 150.00,111.00" /><polygon fill="#ff2b2b" points="175.00,124.00 200.00,124.00 200.00,111.00 175.00,111.00" /><polygon fill="#ff2b2b" points="200.00,124.00 225.00,124.00 225.00,111.00 200.00,111.00" /><polygon fill="#ff2b2b" points="225.00,124.00 250.00,124.00 250.00,111.00 225.00,111.00" /><polygon fill="#ff2b2b" points="250.00,124.00 275.00,124.00 275.00,111.00 250.00,111.00" /><polygon fill="#ff2b2b" points="275.00,124.00 300.00,124.00 300.00,111.00 275.00,111.00" /><polygon fill="#ff2b2b" points="300.00,124.00 325.00,124.00 325.00,111.00 300.00,111.00" /><polygon fill="#ff2b2b" points="325.00,124.00 350.00,124.00 350.00,111.00 325.00,111.00" /><polygon fill="#ff2b2b" points="350.00,124.00 375.00,124.00 375.00,111.00 350.00,111.00" /><polygon fill="#ff2b2b" points="375.00,124.00 400.00,124.00 400.00,111.00 375.00,111.00" /><polygon fill="#ff2b2b" points="400.00,124.00 425.00,124.00 425.00,111.00 400.00,111.00" /><polygon fill="#b2f300" points="425.00,124.00 450.00,124.00 450.00,111.00 425.00,111.00" /><polygon fill="#ff2b2b" points="450.00,124.00 475.00,124.00 475.00,111.00 450.00,111.00" /><polygon fill="#0072ff" points="475.00,124.00 500.00,124.00 500.00,111.00 475.00,111.00" /><polygon fill="#ff2b2b" points="500.00,124.00 525.00,124.00 525.00,111.00 500.00,111.00" /><polygon fill="#ff2b2b" points="525.00,124.00 550.00,124.00 550.00,111.00 525.00,111.00" /><polygon fill="#ff2b2b" points="50.00,111.00 75.00,111.00 75.00,98.00 50.00,98.00" /><polygon fill="#ff2b2b" points="75.00,111.00 100.00,111.00 100.00,98.00 75.00,98.00" /><polygon fill="#ff2b2b" points="100.00,111.00 125.00,111.00 125.00,98.00 100.00,98.00" /><polygon fill="#3eff19" points="125.00,111.00 150.00,111.00 150.00,98.00 125.00,98.00" /><polygon fill="#ff2b2b" points="150.00,111.00 175.00,111.00 175.00,98.00 150.00,98.00" /><polygon fill="#9d00ff" points="175.00,111.00 200.00,111.00 200.00,98.00 175.00,98.00" /><polygon fill="#ff2b2b" points="200.00,111.00 225.00,111.00 225.00,98.00 200.00,98.00" /><polygon fill="#ff2b2b" points="225.00,111.00 250.00,111.00 250.00,98.00 225.00,98.00" /><polygon fill="#ff2b2b" points="250.00,111.00 275.00,111.00 275.00,98.00 250.00,98.00" /><polygon fill="#ff2b2b" points="275.00,111.00 300.00,111.00 300.00,98.00 275.00,98.00" /><polygon fill="#ff2b2b" points="300.00,111.00 325.00,111.00 325.00,98.00 300.00,98.00" /><polygon fill="#ff2b2b" points="325.00,111.00 350.00,111.00 350.00,98.00 325.00,98.00" /><polygon fill="#ff2b2b" points="350.00,111.00 375.00,111.00 375.00,98.00 350.00,98.00" /><polygon fill="#ff2b2b" points="375.00,111.00 400.00,111.00 400.00,98.00 375.00,98.00" /><polygon fill="#5208ff" points="400.00,111.00 425.00,111.00 425.00,98.00 400.00,98.00" /><polygon fill="#ff2b2b" points="425.00,111.00 450.00,111.00 450.00,98.00 425.00,98.00" /><polygon fill="#009dff" points="450.00,111.00 475.00,111.00 475.00,98.00 450.00,98.00" /><polygon fill="#ff2b2b" points="475.00,111.00 500.00,111.00 500.00,98.00 475.00,98.00" /><polygon fill="#ff2b2b" points="500.00,111.00 525.00,111.00 525.00,98.00 500.00,98.00" /><polygon fill="#ff2b2b" points="525.00,111.00 550.00,111.00 550.00,98.00 525.00,98.00" /><polygon fill="#ff2b2b" points="50.00,98.00 75.00,98.00 75.00,85.00 50.00,85.00" /><polygon fill="#ff2b2b" points="75.00,98.00 100.00,98.00 100.00,85.00 75.00,85.00" /><polygon fill="#ff2b2b" points="100.00,98.00 125.00,98.00 125.00,85.00 100.00,85.00" /><polygon fill="#0067ff" points="125.00,98.00 150.00,98.00 150.00,85.00 125.00,85.00" /><polygon fill="#2bff2b" points="150.00,98.00 175.00,98.00 175.00,85.00 150.00,85.00" /><polygon fill="#67ff00" points="175.00,98.00 200.00,98.00 200.00,85.00 175.00,85.00" /><polygon fill="#00d0d9" points="200.00,98.00 225.00,98.00 225.00,85.00 200.00,85.00" /><polygon fill="#ff2b2b" points="225.00,98.00 250.00,98.00 250.00,85.00 225.00,85.00" /><polygon fill="#ff2b2b" points="250.00,98.00 275.00,98.00 275.00,85.00 250.00,85.00" /><polygon fill="#ff2b2b" points="275.00,98.00 300.00,98.00 300.00,85.00 275.00,85.00" /><polygon fill="#ff2b2b" points="300.00,98.00 325.00,98.00 325.00,85.00 300.00,85.00" /><polygon fill="#ff2b2b" points="325.00,98.00 350.00,98.00 350.00,85.00 325.00,85.00" /><polygon fill="#ff2b2b" points="350.00,98.00 375.00,98.00 375.00,85.00 350.00,85.00" /><polygon fill="#ff2b2b" points="375.00,98.00 400.00,98.00 400.00,85.00 375.00,85.00" /><polygon fill="#ff2b2b" points="400.00,98.00 425.00,98.00 425.00,85.00 400.00,85.00" /><polygon fill="#ff7d00" points="425.00,98.00 450.00,98.00 450.00,85.00 425.00,85.00" /><polygon fill="#ff2b2b" points="450.00,98.00 475.00,98.00 475.00,85.00 450.00,85.00" /><polygon fill="#ff2b2b" points="475.00,98.00 500.00,98.00 500.00,85.00 475.00,85.00" /><polygon fill="#ff2b2b" points="500.00,98.00 525.00,98.00 525.00,85.00 500.00,85.00" /><polygon fill="#ff2b2b" points="525.00,98.00 550.00,98.00 550.00,85.00 525.00,85.00" /><polygon fill="#ff2b2b" points="50.00,85.00 75.00,85.00 75.00,72.00 50.00,72.00" /><polygon fill="#ff2b2b" points="75.00,85.00 100.00,85.00 100.00,72.00 75.00,72.00" /><polygon fill="#ff2b2b" points="100.00,85.00 125.00,85.00 125.00,72.00 100.00,72.00" /><polygon fill="#ff2b2b" points="125.00,85.00 150.00,85.00 150.00,72.00 125.00,72.00" /><polygon fill="#ff2b2b" points="150.00,85.00 175.00,85.00 175.00,72.00 150.00,72.00" /><polygon fill="#ff7d00" points="175.00,85.00 200.00,85.00 200.00,72.00 175.00,72.00" /><polygon fill="#ff2b2b" points="200.00,85.00 225.00,85.00 225.00,72.00 200.00,72.00" /><polygon fill="#ff2b2b" points="225.00,85.00 250.00,85.00 250.00,72.00 225.00,72.00" /><polygon fill="#ff2b2b" points="250.00,85.00 275.00,85.00 275.00,72.00 250.00,72.00" /><polygon fill="#ff2b2b" points="275.00,85.00 300.00,85.00 300.00,72.00 275.00,72.00" /><polygon fill="#d000d9" points="300.00,85.00 325.00,85.00 325.00,72.00 300.00,72.00" /><polygon fill="#ff2b2b" points="325.00,85.00 350.00,85.00 350.00,72.00 325.00,72.00" /><polygon fill="#5d01ff" points="350.00,85.00 375.00,85.00 375.00,72.00 350.00,72.00" /><polygon fill="#ff2b2b" points="375.00,85.00 400.00,85.00 400.00,72.00 375.00,72.00" /><polygon fill="#0852ff" points="400.00,85.00 425.00,85.00 425.00,72.00 400.00,72.00" /><polygon fill="#ff2b2b" points="425.00,85.00 450.00,85.00 450.00,72.00 425.00,72.00" /><polygon fill="#fa00a7" points="450.00,85.00 475.00,85.00 475.00,72.00 450.00,72.00" /><polygon fill="#ff2b2b" points="475.00,85.00 500.00,85.00 500.00,72.00 475.00,72.00" /><polygon fill="#ff2b2b" points="500.00,85.00 525.00,85.00 525.00,72.00 500.00,72.00" /><polygon fill="#ff2b2b" points="525.00,85.00 550.00,85.00 550.00,72.00 525.00,72.00" /><polygon fill="#ff2b2b" points="50.00,72.00 75.00,72.00 75.00,59.00 50.00,59.00" /><polygon fill="#ff2b2b" points="75.00,72.00 100.00,72.00 100.00,59.00 75.00,59.00" /><polygon fill="#ff2b2b" points="100.00,72.00 125.00,72.00 125.00,59.00 100.00,59.00" /><polygon fill="#ff2b2b" points="125.00,72.00 150.00,72.00 150.00,59.00 125.00,59.00" /><polygon fill="#ff2b2b" points="150.00,72.00 175.00,72.00 175.00,59.00 150.00,59.00" /><polygon fill="#ff2b2b" points="175.00,72.00 200.00,72.00 200.00,59.00 175.00,59.00" /><polygon fill="#0072ff" points="200.00,72.00 225.00,72.00 225.00,59.00 200.00,59.00" /><polygon fill="#3eff19" points="225.00,72.00 250.00,72.00 250.00,59.00 225.00,59.00" /><polygon fill="#ff2b2b" points="250.00,72.00 275.00,72.00 275.00,59.00 250.00,59.00" /><polygon fill="#ff2b2b" points="275.00,72.00 300.00,72.00 300.00,59.00 275.00,59.00" /><polygon fill="#ff2b2b" points="300.00,72.00 325.00,72.00 325.00,59.00 300.00,59.00" /><polygon fill="#ff2b2b" points="325.00,72.00 350.00,72.00 350.00,59.00 325.00,59.00" /><polygon fill="#ff2b2b" points="350.00,72.00 375.00,72.00 375.00,59.00 350.00,59.00" /><polygon fill="#00f3b2" points="375.00,72.00 400.00,72.00 400.00,59.00 375.00,59.00" /><polygon fill="#00c6e2" points="400.00,72.00 425.00,72.00 425.00,59.00 400.00,59.00" /><polygon fill="#ff2b2b" points="425.00,72.00 450.00,72.00 450.00,59.00 425.00,59.00" /><polygon fill="#ff2b2b" points="450.00,72.00 475.00,72.00 475.00,59.00 450.00,59.00" /><polygon fill="#ff2b2b" points="475.00,72.00 500.00,72.00 500.00,59.00 475.00,59.00" /><polygon fill="#ff2b2b" points="500.00,72.00 525.00,72.00 525.00,59.00 500.00,59.00" /><polygon fill="#ff2b2b" points="525.00,72.00 550.00,72.00 550.00,59.00 525.00,59.00" /><polygon fill="#ff2b2b" points="50.00,59.00 75.00,59.00 75.00,46.00 50.00,46.00" /><polygon fill="#ff2b2b" points="75.00,59.00 100.00,59.00 100.00,46.00 75.00,46.00" /><polygon fill="#ff2b2b" points="100.00,59.00 125.00,59.00 125.00,46.00 100.00,46.00" /><polygon fill="#ff2b2b" points="125.00,59.00 150.00,59.00 150.00,46.00 125.00,46.00" /><polygon fill="#ff2b2b" points="150.00,59.00 175.00,59.00 175.00,46.00 150.00,46.00" /><polygon fill="#ff2b2b" points="175.00,59.00 200.00,59.00 200.00,46.00 175.00,46.00" /><polygon fill="#ff2b2b" points="200.00,59.00 225.00,59.00 225.00,46.00 200.00,46.00" /><polygon fill="#ff2b2b" points="225.00,59.00 250.00,59.00 250.00,46.00 225.00,46.00" /><polygon fill="#3421ff" points="250.00,59.00 275.00,59.00 275.00,46.00 250.00,46.00" /><polygon fill="#00c6e2" points="275.00,59.00 300.00,59.00 300.00,46.00 275.00,46.00" /><polygon fill="#0092ff" points="300.00,59.00 325.00,59.00 325.00,46.00 300.00,46.00" /><polygon fill="#ff2b2b" points="325.00,59.00 350.00,59.00 350.00,46.00 325.00,46.00" /><polygon fill="#ff2b2b" points="350.00,59.00 375.00,59.00 375.00,46.00 350.00,46.00" /><polygon fill="#5208ff" points="375.00,59.00 400.00,59.00 400.00,46.00 375.00,46.00" /><polygon fill="#ff2b2b" points="400.00,59.00 425.00,59.00 425.00,46.00 400.00,46.00" /><polygon fill="#ff2b2b" points="425.00,59.00 450.00,59.00 450.00,46.00 425.00,46.00" /><polygon fill="#ff2b2b" points="450.00,59.00 475.00,59.00 475.00,46.00 450.00,46.00" /><polygon fill="#ff2b2b" points="475.00,59.00 500.00,59.00 500.00,46.00 475.00,46.00" /><polygon fill="#ff2b2b" points="500.00,59.00 525.00,59.00 525.00,46.00 500.00,46.00" /><polygon fill="#ff2b2b" points="525.00,59.00 550.00,59.00 550.00,46.00 525.00,46.00" /><polygon fill="#ff2b2b" points="50.00,46.00 75.00,46.00 75.00,33.00 50.00,33.00" /><polygon fill="#ff2b2b" points="75.00,46.00 100.00,46.00 100.00,33.00 75.00,33.00" /><polygon fill="#ff2b2b" points="100.00,46.00 125.00,46.00 125.00,33.00 100.00,33.00" /><polygon fill="#ff2b2b" points="125.00,46.00 150.00,46.00 150.00,33.00 125.00,33.00" /><polygon fill="#ff2b2b" points="150.00,46.00 175.00,46.00 175.00,33.00 150.00,33.00" /><polygon fill="#ff2b2b" points="175.00,46.00 200.00,46.00 200.00,33.00 175.00,33.00" /><polygon fill="#ff2b2b" points="200.00,46.00 225.00,46.00 225.00,33.00 200.00,33.00" /><polygon fill="#ff2b2b" points="225.00,46.00 250.00,46.00 250.00,33.00 225.00,33.00" /><polygon fill="#ff2b2b" points="250.00,46.00 275.00,46.00 275.00,33.00 250.00,33.00" /><polygon fill="#ff2b2b" points="275.00,46.00 300.00,46.00 300.00,33.00 275.00,33.00" /><polygon fill="#ff2b2b" points="300.00,46.00 325.00,46.00 325.00,33.00 300.00,33.00" /><polygon fill="#a800fa" points="325.00,46.00 350.00,46.00 350.00,33.00 325.00,33.00" /><polygon fill="#ff2b2b" points="350.00,46.00 375.00,46.00 375.00,33.00 350.00,33.00" /><polygon fill="#ff2b2b" points="375.00,46.00 400.00,46.00 400.00,33.00 375.00,33.00" /><polygon fill="#ff2b2b" points="400.00,46.00 425.00,46.00 425.00,33.00 400.00,33.00" /><polygon fill="#ff2b2b" points="425.00,46.00 450.00,46.00 450.00,33.00 425.00,33.00" /><polygon fill="#ff2b2b" points="450.00,46.00 475.00,46.00 475.00,33.00 450.00,33.00" /><polygon fill="#ff2b2b" points="475.00,46.00 500.00,46.00 500.00,33.00 475.00,33.00" /><polygon fill="#ff2b2b" points="500.00,46.00 525.00,46.00 525.00,33.00 500.00,33.00" /><polygon fill="#ff2b2b" points="525.00,46.00 550.00,46.00 550.00,33.00 525.00,33.00" /><polygon fill="#ff2b2b" points="50.00,33.00 75.00,33.00 75.00,20.00 50.00,20.00" /><polygon fill="#ff2b2b" points="75.00,33.00 100.00,33.00 100.00,20.00 75.00,20.00" /><polygon fill="#ff2b2b" points="100.00,33.00 125.00,33.00 125.00,20.00 100.00,20.00" /><polygon fill="#ff2b2b" points="125.00,33.00 150.00,33.00 150.00,20.00 125.00,20.00" /><polygon fill="#ff2b2b" points="150.00,33.00 175.00,33.00 175.00,20.00 150.00,20.00" /><polygon fill="#ff2b2b" points="175.00,33.00 200.00,33.00 200.00,20.00 175.00,20.00" /><polygon fill="#ff2b2b" points="200.00,33.00 225.00,33.00 225.00,20.00 200.00,20.00" /><polygon fill="#ff2b2b" points="225.00,33.00 250.00,33.00 250.00,20.00 225.00,20.00" /><polygon fill="#ff2b2b" points="250.00,33.00 275.00,33.00 275.00,20.00 250.00,20.00" /><polygon fill="#ff2b2b" points="275.00,33.00 300.00,33.00 300.00,20.00 275.00,20.00" /><polygon fill="#ff2b2b" points="300.00,33.00 325.00,33.00 325.00,20.00 300.00,20.00" /><polygon fill="#ff2b2b" points="325.00,33.00 350.00,33.00 350.00,20.00 325.00,20.00" /><polygon fill="#ff2b2b" points="350.00,33.00 375.00,33.00 375.00,20.00 350.00,20.00" /><polygon fill="#ff2b2b" points="375.00,33.00 400.00,33.00 400.00,20.00 375.00,20.00" /><polygon fill="#ff2b2b" points="400.00,33.00 425.00,33.00 425.00,20.00 400.00,20.00" /><polygon fill="#ff2b2b" points="425.00,33.00 450.00,33.00 450.00,20.00 425.00,20.00" /><polygon fill="#ff2b2b" points="450.00,33.00 475.00,33.00 475.00,20.00 450.00,20.00" /><polygon fill="#ff2b2b" points="475.00,33.00 500.00,33.00 500.00,20.00 475.00,20.00" /><polygon fill="#ff2b2b" points="500.00,33.00 525.00,33.00 525.00,20.00 500.00,20.00" /><polygon fill="#ff2b2b" points="525.00,33.00 550.00,33.00 550.00,20.00 525.00,20.00" /></g><g stroke="black"><line x1="50.00" x2="50.00" y1="280.00" y2="290.00" /><line x1="300.00" x2="300.00" y1="280.00" y2="290.00" /><line x1="550.00" x2="550.00" y1="280.00" y2="290.00" /><line x1="175.00" x2="175.00" y1="280.00" y2="285.00" /><line x1="425.00" x2="425.00" y1="280.00" y2="285.00" /><g fill="black" font-family="Arial, sans-serif" font-size="10" stroke="none" text-anchor="middle"><text x="50.00" y="300.00">0.00</text><text x="300.00" y="300.00">10.00</text><text x="550.00" y="300.00">20.00</text></g><line x1="50.00" x2="550.00" y1="280.00" y2="280.00" /></g><g stroke="black"><line x1="50.00" x2="40.00" y1="280.00" y2="280.00" /><line x1="50.00" x2="40.00" y1="150.00" y2="150.00" /><line x1="50.00" x2="40.00" y1="20.00" y2="20.00" /><g fill="black" font-family="Arial, sans-serif" font-size="10" stroke="none" text-anchor="end"><text x="35.00" y="280.00">0.00</text><text x="35.00" y="150.00">10.00</text><text x="35.00" y="20.00">20.00</text></g><line x1="50.00" x2="50.00" y1="280.00" y2="20.00" /></g></g></svg>