<?xml version="1.0"?>
<svg height="300" version="1.1" width="600" xmlns:xlink="http://www.w3.org/1999/xlink" xmlns="http://www.w3.org/2000/svg"><g><g><polygon fill="#ffa700" points="50.00,280.00 62.50,280.00 62.50,267.00 50.00,267.00" /><polygon fill="#ffa700" points="62.50,280.00 75.00,280.00 75.00,267.00 62.50,267.00" /><polygon fill="#ffa700" points="75.00,280.00 87.50,280.00 87.50,267.00 75.00,267.00" /><polygon fill="#ffa700" points="87.50,280.00 100.00,280.00 100.00,267.00 87.50,267.00" /><polygon fill="#ffa700" points="100.00,280.00 112.50,280.00 112.50,267.00 100.00,267.00" /><polygon fill="#ffa700" points="112.50,280.00 125.00,280.00 125.00,267.00 112.50,267.00" /><polygon fill="#ffa700" points="125.00,280.00 137.50,280.00 137.50,267.00 125.00,267.00" /><polygon fill="#ffa700" points="137.50,280.00 150.00,280.00 150.00,267.00 137.50,267.00" /><polygon fill="#ffa700" points="150.00,280.00 162.50,280.00 162.50,267.00 150.00,267.00" /><polygon fill="#ffa700" points="162.50,280.00 175.00,280.00 175.00,267.00 162.50,267.00" /><polygon fill="#ffa700" points="175.00,280.00 187.50,280.00 187.50,267.00 175.00,267.00" /><polygon fill="#ffa700" points="187.50,280.00 200.00,280.00 200.00,267.00 187.50,267.00" /><polygon fill="#ffa700" points="200.00,280.00 212.50,280.00 212.50,267.00 200.00,267.00" /><polygon fill="#ffa700" points="212.50,280.00 225.00,280.00 225.00,267.00 212.50,267.00" /><polygon fill="#ffa700" points="225.00,280.00 237.50,280.00 237.50,267.00 225.00,267.00" /><polygon fill="#ffa700" points="237.50,280.00 250.00,280.00 250.00,267.00 237.50,267.00" /><polygon fill="#ffa700" points="250.00,280.00 262.50,280.00 262.50,267.00 250.00,267.00" /><polygon fill="#ffa700" points="262.50,280.00 275.00,280.00 275.00,267.00 262.50,267.00" /><polygon fill="#ffa700" points="275.00,280.00 287.50,280.00 287.50,267.00 275.00,267.00" /><polygon fill="#ffa700" points="287.50,280.00 300.00,280.00 300.00,267.00 287.50,267.00" /><polygon fill="#ffa700" points="300.00,280.00 312.50,280.00 312.50,267.00 300.00,267.00" /><polygon fill="#ffa700" points="312.50,280.00 325.00,280.00 325.00,267.00 312.50,267.00" /><polygon fill="#ffa700" points="325.00,280.00 337.50,280.00 337.50,267.00 325.00,267.00" /><polygon fill="#ffa700" points="337.50,280.00 350.00,280.00 350.00,267.00 337.50,267.00" /><polygon fill="#ffa700" points="350.00,280.00 362.50,280.00 362.50,267.00 350.00,267.00" /><polygon fill="#ffa700" points="362.50,280.00 375.00,280.00 375.00,267.00 362.50,267.00" /><polygon fill="#ffa700" points="375.00,280.00 387.50,280.00 387.50,267.00 375.00,267.00" /><polygon fill="#ffa700" points="387.50,280.00 400.00,280.00 400.00,267.00 387.50,267.00" /><polygon fill="#ffa700" points="400.00,280.00 412.50,280.00 412.50,267.00 400.00,267.00" /><polygon fill="#ffa700" points="412.50,280.00 425.00,280.00 425.00,267.00 412.50,267.00" /><polygon fill="#ffa700" points="425.00,280.00 437.50,280.00 437.50,267.00 425.00,267.00" /><polygon fill="#ffa700" points="437.50,280.00 450.00,280.00 450.00,267.00 437.50,267.00" /><polygon fill="#ffa700" points="450.00,280.00 462.50,280.00 462.50,267.00 450.00,267.00" /><polygon fill="#ffa700" points="462.50,280.00 475.00,280.00 475.00,267.00 462.50,267.00" /><polygon fill="#ffa700" points="475.00,280.00 487.50,280.00 487.50,267.00 475.00,267.00" /><polygon fill="#ffa700" points="487.50,280.00 500.00,280.00 500.00,267.00 487.50,267.00" /><polygon fill="#ffa700" points="500.00,280.00 512.50,280.00 512.50,267.00 500.00,267.00" /><polygon fill="#ffa700" points="512.50,280.00 525.00,280.00 525.00,267.00 512.50,267.00" /><polygon fill="#ffa700" points="525.00,280.00 537.50,280.00 537.50,267.00 525.00,267.00" /><polygon fill="#ffa700" points="537.50,280.00 550.00,280.00 550.00,267.00 537.50,267.00" /><polygon fill="#ffa700" points="50.00,267.00 62.50,267.00 62.50,254.00 50.00,254.00" /><polygon fill="#ffa700" points="62.50,267.00 75.00,267.00 75.00,254.00 62.50,254.00" /><polygon fill="#ffa700" points="75.00,267.00 87.50,267.00 87.50,254.00 75.00,254.00" /><polygon fill="#ffa700" points="87.50,267.00 100.00,267.00 100.00,254.00 87.50,254.00" /><polygon fill="#ffa700" points="100.00,267.00 112.50,267.00 112.50,254.00 100.00,254.00" /><polygon fill="#ffa700" points="112.50,267.00 125.00,267.00 125.00,254.00 112.50,254.00" /><polygon fill="#ffa700" points="125.00,267.00 137.50,267.00 137.50,254.00 125.00,254.00" /><polygon fill="#ffa700" points="137.50,267.00 150.00,267.00 150.00,254.00 137.50,254.00" /><polygon fill="#ffa700" points="150.00,267.00 162.50,267.00 162.50,254.00 150.00,254.00" /><polygon fill="#ffa700" points="162.50,267.00 175.00,267.00 175.00,254.00 162.50,254.00" /><polygon fill="#ffa700" points="175.00,267.00 187.50,267.00 187.50,254.00 175.00,254.00" /><polygon fill="#ffa700" points="187.50,267.00 200.00,267.00 200.00,254.00 187.50,254.00" /><polygon fill="#ffa700" points="200.00,267.00 212.50,267.00 212.50,254.00 200.00,254.00" /><polygon fill="#ffa700" points="212.50,267.00 225.00,267.00 225.00,254.00 212.50,254.00" /><polygon fill="#ffa700" points="225.00,267.00 237.50,267.00 237.50,254.00 225.00,254.00" /><polygon fill="#ffa700" points="237.50,267.00 250.00,267.00 250.00,254.00 237.50,254.00" /><polygon fill="#ffa700" points="250.00,267.00 262.50,267.00 262.50,254.00 250.00,254.00" /><polygon fill="#ffa700" points="262.50,267.00 275.00,267.00 275.00,254.00 262.50,254.00" /><polygon fill="#ffa700" points="275.00,267.00 287.50,267.00 287.50,254.00 275.00,254.00" /><polygon fill="#ffa700" points="287.50,267.00 300.00,267.00 300.00,254.00 287.50,254.00" /><polygon fill="#ffa700" points="300.00,267.00 312.50,267.00 312.50,254.00 300.00,254.00" /><polygon fill="#ffa700" points="312.50,267.00 325.00,267.00 325.00,254.00 312.50,254.00" /><polygon fill="#ffa700" points="325.00,267.00 337.50,267.00 337.50,254.00 325.00,254.00" /><polygon fill="#ffa700" points="337.50,267.00 350.00,267.00 350.00,254.00 337.50,254.00" /><polygon fill="#ffa700" points="350.00,267.00 362.50,267.00 362.50,254.00 350.00,254.00" /><polygon fill="#ffa700" points="362.50,267.00 375.00,267.00 375.00,254.00 362.50,254.00" /><polygon fill="#ffa700" points="375.00,267.00 387.50,267.00 387.50,254.00 375.00,254.00" /><polygon fill="#ffa700" points="387.50,267.00 400.00,267.00 400.00,254.00 387.50,254.00" /><polygon fill="#ffa700" points="400.00,267.00 412.50,267.00 412.50,254.00 400.00,254.00" /><polygon fill="#ffa700" points="412.50,267.00 425.00,267.00 425.00,254.00 412.50,254.00" /><polygon fill="#ffa700" points="425.00,267.00 437.50,267.00 437.50,254.00 425.00,254.00" /><polygon fill="#ffa700" points="437.50,267.00 450.00,267.00 450.00,254.00 437.50,254.00" /><polygon fill="#ffa700" points="450.00,267.00 462.50,267.00 462.50,254.00 450.00,254.00" /><polygon fill="#ffa700" points="462.50,267.00 475.00,267.00 475.00,254.00 462.50,254.00" /><polygon fill="#ffa700" points="475.00,267.00 487.50,267.00 487.50,254.00 475.00,254.00" /><polygon fill="#ffa700" points="487.50,267.00 500.00,267.00 500.00,254.00 487.50,254.00" /><polygon fill="#ffa700" points="500.00,267.00 512.50,267.00 512.50,254.00 500.00,254.00" /><polygon fill="#ffa700" points="512.50,267.00 525.00,267.00 525.00,254.00 512.50,254.00" /><polygon fill="#ffa700" points="525.00,267.00 537.50,267.00 537.50,254.00 525.00,254.00" /><polygon fill="#ffa700" points="537.50,267.00 550.00,267.00 550.00,254.00 537.50,254.00" /><polygon fill="#ffa700" points="50.00,254.00 62.50,254.00 62.50,241.00 50.00,241.00" /><polygon fill="#ffa700" points="62.50,254.00 75.00,254.00 75.00,241.00 62.50,241.00" /><polygon fill="#ffa700" points="75.00,254.00 87.50,254.00 87.50,241.00 75.00,241.00" /><polygon fill="#ffa700" points="87.50,254.00 100.00,254.00 100.00,241.00 87.50,241.00" /><polygon fill="#ffa700" points="100.00,254.00 112.50,254.00 112.50,241.00 100.00,241.00" /><polygon fill="#ffa700" points="112.50,254.00 125.00,254.00 125.00,241.00 112.50,241.00" /><polygon fill="#ffa700" points="125.00,254.00 137.50,254.00 137.50,241.00 125.00,241.00" /><polygon fill="#ffa700" points="137.50,254.00 150.00,254.00 150.00,241.00 137.50,241.00" /><polygon fill="#ffa700" points="150.00,254.00 162.50,254.00 162.50,241.00 150.00,241.00" /><polygon fill="#ffa700" points="162.50,254.00 175.00,254.00 175.00,241.00 162.50,241.00" /><polygon fill="#ffa700" points="175.00,254.00 187.50,254.00 187.50,241.00 175.00,241.00" /><polygon fill="#ffa700" points="187.50,254.00 200.00,254.00 200.00,241.00 187.50,241.00" /><polygon fill="#ffa700" points="200.00,254.00 212.50,254.00 212.50,241.00 200.00,241.00" /><polygon fill="#ffa700" points="212.50,254.00 225.00,254.00 225.00,241.00 212.50,241.00" /><polygon fill="#ffa700" points="225.00,254.00 237.50,254.00 237.50,241.00 225.00,241.00" /><polygon fill="#ffa700" points="237.50,254.00 250.00,254.00 250.00,241.00 237.50,241.00" /><polygon fill="#ffa700" points="250.00,254.00 262.50,254.00 262.50,241.00 250.00,241.00" /><polygon fill="#ffa700" points="262.50,254.00 275.00,254.00 275.00,241.00 262.50,241.00" /><polygon fill="#ffa700" points="275.00,254.00 287.50,254.00 287.50,241.00 275.00,241.00" /><polygon fill="#ffa700" points="287.50,254.00 300.00,254.00 300.00,241.00 287.50,241.00" /><polygon fill="#ffa700" points="300.00,254.00 312.50,254.00 312.50,241.00 300.00,241.00" /><polygon fill="#ffa700" points="312.50,254.00 325.00,254.00 325.00,241.00 312.50,241.00" /><polygon fill="#ffa700" points="325.00,254.00 337.50,254.00 337.50,241.00 325.00,241.00" /><polygon fill="#ffa700" points="337.50,254.00 350.00,254.00 350.00,241.00 337.50,241.00" /><polygon fill="#ffa700" points="350.00,254.00 362.50,254.00 362.50,241.00 350.00,241.00" /><polygon fill="#ffa700" points="362.50,254.00 375.00,254.00 375.00,241.00 362.50,241.00" /><polygon fill="#ffa700" points="375.00,254.00 387.50,254.00 387.50,241.00 375.00,241.00" /><polygon fill="#ffa700" points="387.50,254.00 400.00,254.00 400.00,241.00 387.50,241.00" /><polygon fill="#ffa700" points="400.00,254.00 412.50,254.00 412.50,241.00 400.00,241.00" /><polygon fill="#ffa700" points="412.50,254.00 425.00,254.00 425.00,241.00 412.50,241.00" /><polygon fill="#ffa700" points="425.00,254.00 437.50,254.00 437.50,241.00 425.00,241.00" /><polygon fill="#ffa700" points="437.50,254.00 450.00,254.00 450.00,241.00 437.50,241.00" /><polygon fill="#ffa700" points="450.00,254.00 462.50,254.00 462.50,241.00 450.00,241.00" /><polygon fill="#ffa700" points="462.50,254.00 475.00,254.00 475.00,241.00 462.50,241.00" /><polygon fill="#ffa700" points="475.00,254.00 487.50,254.00 487.50,241.00 475.00,241.00" /><polygon fill="#ffa700" points="487.50,254.00 500.00,254.00 500.00,241.00 487.50,241.00" /><polygon fill="#ffa700" points="500.00,254.00 512.50,254.00 512.50,241.00 500.00,241.00" /><polygon fill="#ffa700" points="512.50,254.00 525.00,254.00 525.00,241.00 512.50,241.00" /><polygon fill="#ffa700" points="525.00,254.00 537.50,254.00 537.50,241.00 525.00,241.00" /><polygon fill="#ffa700" points="537.50,254.00 550.00,254.00 550.00,241.00 537.50,241.00" /><polygon fill="#ffa700" points="50.00,241.00 62.50,241.00 62.50,228.00 50.00,228.00" /><polygon fill="#ffa700" points="62.50,241.00 75.00,241.00 75.00,228.00 62.50,228.00" /><polygon fill="#ffa700" points="75.00,241.00 87.50,241.00 87.50,228.00 75.00,228.00" /><polygon fill="#ffa700" points="87.50,241.00 100.00,241.00 100.00,228.00 87.50,228.00" /><polygon fill="#ffa700" points="100.00,241.00 112.50,241.00 112.50,228.00 100.00,228.00" /><polygon fill="#ffa700" points="112.50,241.00 125.00,241.00 125.00,228.00 112.50,228.00" /><polygon fill="#ffa700" points="125.00,241.00 137.50,241.00 137.50,228.00 125.00,228.00" /><polygon fill="#ffa700" points="137.50,241.00 150.00,241.00 150.00,228.00 137.50,228.00" /><polygon fill="#ffa700" points="150.00,241.00 162.50,241.00 162.50,228.00 150.00,228.00" /><polygon fill="#ffa700" points="162.50,241.00 175.00,241.00 175.00,228.00 162.50,228.00" /><polygon fill="#ffa700" points="175.00,241.00 187.50,241.00 187.50,228.00 175.00,228.00" /><polygon fill="#ffa100" points="187.50,241.00 200.00,241.00 200.00,228.00 187.50,228.00" /><polygon fill="#fe9401" points="200.00,241.00 212.50,241.00 212.50,228.00 200.00,228.00" /><polygon fill="#fc8e01" points="212.50,241.00 225.00,241.00 225.00,228.00 212.50,228.00" /><polygon fill="#fc8e01" points="225.00,241.00 237.50,241.00 237.50,228.00 225.00,228.00" /><polygon fill="#fc8e01" points="237.50,241.00 250.00,241.00 250.00,228.00 237.50,228.00" /><polygon fill="#fe9401" points="250.00,241.00 262.50,241.00 262.50,228.00 250.00,228.00" /><polygon fill="#ffa700" points="262.50,241.00 275.00,241.00 275.00,228.00 262.50,228.00" /><polygon fill="#ffa700" points="275.00,241.00 287.50,241.00 287.50,228.00 275.00,228.00" /><polygon fill="#ffa700" points="287.50,241.00 300.00,241.00 300.00,228.00 287.50,228.00" /><polygon fill="#ffa700" points="300.00,241.00 312.50,241.00 312.50,228.00 300.00,228.00" /><polygon fill="#ffa700" points="312.50,241.00 325.00,241.00 325.00,228.00 312.50,228.00" /><polygon fill="#ffa700" points="325.00,241.00 337.50,241.00 337.50,228.00 325.00,228.00" /><polygon fill="#ffa700" points="337.50,241.00 350.00,241.00 350.00,228.00 337.50,228.00" /><polygon fill="#ffa700" points="350.00,241.00 362.50,241.00 362.50,228.00 350.00,228.00" /><polygon fill="#ffa700" points="362.50,241.00 375.00,241.00 375.00,228.00 362.50,228.00" /><polygon fill="#ffa700" points="375.00,241.00 387.50,241.00 387.50,228.00 375.00,228.00" /><polygon fill="#ffa700" points="387.50,241.00 400.00,241.00 400.00,228.00 387.50,228.00" /><polygon fill="#ffa700" points="400.00,241.00 412.50,241.00 412.50,228.00 400.00,228.00" /><polygon fill="#ffa700" points="412.50,241.00 425.00,241.00 425.00,228.00 412.50,228.00" /><polygon fill="#ffa700" points="425.00,241.00 437.50,241.00 437.50,228.00 425.00,228.00" /><polygon fill="#ffa700" points="437.50,241.00 450.00,241.00 450.00,228.00 437.50,228.00" /><polygon fill="#ffa700" points="450.00,241.00 462.50,241.00 462.50,228.00 450.00,228.00" /><polygon fill="#ffa700" points="462.50,241.00 475.00,241.00 475.00,228.00 462.50,228.00" /><polygon fill="#ffa700" points="475.00,241.00 487.50,241.00 487.50,228.00 475.00,228.00" /><polygon fill="#ffa700" points="487.50,241.00 500.00,241.00 500.00,228.00 487.50,228.00" /><polygon fill="#ffa700" points="500.00,241.00 512.50,241.00 512.50,228.00 500.00,228.00" /><polygon fill="#ffa700" points="512.50,241.00 525.00,241.00 525.00,228.00 512.50,228.00" /><polygon fill="#ffa700" points="525.00,241.00 537.50,241.00 537.50,228.00 525.00,228.00" /><polygon fill="#ffa700" points="537.50,241.00 550.00,241.00 550.00,228.00 537.50,228.00" /><polygon fill="#ffa700" points="50.00,228.00 62.50,228.00 62.50,215.00 50.00,215.00" /><polygon fill="#ffa700" points="62.50,228.00 75.00,228.00 75.00,215.00 62.50,215.00" /><polygon fill="#ffa700" points="75.00,228.00 87.50,228.00 87.50,215.00 75.00,215.00" /><polygon fill="#ffa700" points="87.50,228.00 100.00,228.00 100.00,215.00 87.50,215.00" /><polygon fill="#ffa700" points="100.00,228.00 112.50,228.00 112.50,215.00 100.00,215.00" /><polygon fill="#ffa700" points="112.50,228.00 125.00,228.00 125.00,215.00 112.50,215.00" /><polygon fill="#ffa700" points="125.00,228.00 137.50,228.00 137.50,215.00 125.00,215.00" /><polygon fill="#ffa700" points="137.50,228.00 150.00,228.00 150.00,215.00 137.50,215.00" /><polygon fill="#ffa100" points="150.00,228.00 162.50,228.00 162.50,215.00 150.00,215.00" /><polygon fill="#f77a03" points="162.50,228.00 175.00,228.00 175.00,215.00 162.50,215.00" /><polygon fill="#ef6706" points="175.00,228.00 187.50,228.00 187.50,215.00 175.00,215.00" /><polygon fill="#e4540b" points="187.50,228.00 200.00,228.00 200.00,215.00 187.50,215.00" /><polygon fill="#e85a09" points="200.00,228.00 212.50,228.00 212.50,215.00 200.00,215.00" /><polygon fill="#e04e0c" points="212.50,228.00 225.00,228.00 225.00,215.00 212.50,215.00" /><polygon fill="#dc480e" points="225.00,228.00 237.50,228.00 237.50,215.00 225.00,215.00" /><polygon fill="#d74310" points="237.50,228.00 250.00,228.00 250.00,215.00 237.50,215.00" /><polygon fill="#e85a09" points="250.00,228.00 262.50,228.00 262.50,215.00 250.00,215.00" /><polygon fill="#e85a09" points="262.50,228.00 275.00,228.00 275.00,215.00 262.50,215.00" /><polygon fill="#f57404" points="275.00,228.00 287.50,228.00 287.50,215.00 275.00,215.00" /><polygon fill="#ffa100" points="287.50,228.00 300.00,228.00 300.00,215.00 287.50,215.00" /><polygon fill="#ffa700" points="300.00,228.00 312.50,228.00 312.50,215.00 300.00,215.00" /><polygon fill="#ffa700" points="312.50,228.00 325.00,228.00 325.00,215.00 312.50,215.00" /><polygon fill="#ffa700" points="325.00,228.00 337.50,228.00 337.50,215.00 325.00,215.00" /><polygon fill="#ffa700" points="337.50,228.00 350.00,228.00 350.00,215.00 337.50,215.00" /><polygon fill="#ffa700" points="350.00,228.00 362.50,228.00 362.50,215.00 350.00,215.00" /><polygon fill="#ffa700" points="362.50,228.00 375.00,228.00 375.00,215.00 362.50,215.00" /><polygon fill="#ffa700" points="375.00,228.00 387.50,228.00 387.50,215.00 375.00,215.00" /><polygon fill="#ffa700" points="387.50,228.00 400.00,228.00 400.00,215.00 387.50,215.00" /><polygon fill="#ffa700" points="400.00,228.00 412.50,228.00 412.50,215.00 400.00,215.00" /><polygon fill="#ffa700" points="412.50,228.00 425.00,228.00 425.00,215.00 412.50,215.00" /><polygon fill="#ffa700" points="425.00,228.00 437.50,228.00 437.50,215.00 425.00,215.00" /><polygon fill="#ffa700" points="437.50,228.00 450.00,228.00 450.00,215.00 437.50,215.00" /><polygon fill="#ffa700" points="450.00,228.00 462.50,228.00 462.50,215.00 450.00,215.00" /><polygon fill="#ffa700" points="462.50,228.00 475.00,228.00 475.00,215.00 462.50,215.00" /><polygon fill="#ffa700" points="475.00,228.00 487.50,228.00 487.50,215.00 475.00,215.00" /><polygon fill="#ffa700" points="487.50,228.00 500.00,228.00 500.00,215.00 487.50,215.00" /><polygon fill="#ffa700" points="500.00,228.00 512.50,228.00 512.50,215.00 500.00,215.00" /><polygon fill="#ffa700" points="512.50,228.00 525.00,228.00 525.00,215.00 512.50,215.00" /><polygon fill="#ffa700" points="525.00,228.00 537.50,228.00 537.50,215.00 525.00,215.00" /><polygon fill="#ffa700" points="537.50,228.00 550.00,228.00 550.00,215.00 537.50,215.00" /><polygon fill="#ffa700" points="50.00,215.00 62.50,215.00 62.50,202.00 50.00,202.00" /><polygon fill="#ffa700" points="62.50,215.00 75.00,215.00 75.00,202.00 62.50,202.00" /><polygon fill="#ffa700" points="75.00,215.00 87.50,215.00 87.50,202.00 75.00,202.00" /><polygon fill="#ffa700" points="87.50,215.00 100.00,215.00 100.00,202.00 87.50,202.00" /><polygon fill="#ffa700" points="100.00,215.00 112.50,215.00 112.50,202.00 100.00,202.00" /><polygon fill="#ffa700" points="112.50,215.00 125.00,215.00 125.00,202.00 112.50,202.00" /><polygon fill="#ffa700" points="125.00,215.00 137.50,215.00 137.50,202.00 125.00,202.00" /><polygon fill="#fe9401" points="137.50,215.00 150.00,215.00 150.00,202.00 137.50,202.00" /><polygon fill="#e04e0c" points="150.00,215.00 162.50,215.00 162.50,202.00 150.00,202.00" /><polygon fill="#e4540b" points="162.50,215.00 175.00,215.00 175.00,202.00 162.50,202.00" /><polygon fill="#d74310" points="175.00,215.00 187.50,215.00 187.50,202.00 175.00,202.00" /><polygon fill="#cd3814" points="187.50,215.00 200.00,215.00 200.00,202.00 187.50,202.00" /><polygon fill="#bd281b" points="200.00,215.00 212.50,215.00 212.50,202.00 200.00,202.00" /><polygon fill="#99102c" points="212.50,215.00 225.00,215.00 225.00,202.00 212.50,202.00" /><polygon fill="#9f1429" points="225.00,215.00 237.50,215.00 237.50,202.00 225.00,202.00" /><polygon fill="#ab1b23" points="237.50,215.00 250.00,215.00 250.00,202.00 237.50,202.00" /><polygon fill="#c32d19" points="250.00,215.00 262.50,215.00 262.50,202.00 250.00,202.00" /><polygon fill="#dc480e" points="262.50,215.00 275.00,215.00 275.00,202.00 262.50,202.00" /><polygon fill="#e85a09" points="275.00,215.00 287.50,215.00 287.50,202.00 275.00,202.00" /><polygon fill="#e85a09" points="287.50,215.00 300.00,215.00 300.00,202.00 287.50,202.00" /><polygon fill="#fc8e01" points="300.00,215.00 312.50,215.00 312.50,202.00 300.00,202.00" /><polygon fill="#ffa700" points="312.50,215.00 325.00,215.00 325.00,202.00 312.50,202.00" /><polygon fill="#ffa700" points="325.00,215.00 337.50,215.00 337.50,202.00 325.00,202.00" /><polygon fill="#ffa700" points="337.50,215.00 350.00,215.00 350.00,202.00 337.50,202.00" /><polygon fill="#ffa700" points="350.00,215.00 362.50,215.00 362.50,202.00 350.00,202.00" /><polygon fill="#ffa700" points="362.50,215.00 375.00,215.00 375.00,202.00 362.50,202.00" /><polygon fill="#ffa700" points="375.00,215.00 387.50,215.00 387.50,202.00 375.00,202.00" /><polygon fill="#ffa700" points="387.50,215.00 400.00,215.00 400.00,202.00 387.50,202.00" /><polygon fill="#ffa700" points="400.00,215.00 412.50,215.00 412.50,202.00 400.00,202.00" /><polygon fill="#ffa700" points="412.50,215.00 425.00,215.00 425.00,202.00 412.50,202.00" /><polygon fill="#ffa700" points="425.00,215.00 437.50,215.00 437.50,202.00 425.00,202.00" /><polygon fill="#ffa700" points="437.50,215.00 450.00,215.00 450.00,202.00 437.50,202.00" /><polygon fill="#ffa700" points="450.00,215.00 462.50,215.00 462.50,202.00 450.00,202.00" /><polygon fill="#ffa700" points="462.50,215.00 475.00,215.00 475.00,202.00 462.50,202.00" /><polygon fill="#ffa700" points="475.00,215.00 487.50,215.00 487.50,202.00 475.00,202.00" /><polygon fill="#ffa700" points="487.50,215.00 500.00,215.00 500.00,202.00 487.50,202.00" /><polygon fill="#ffa700" points="500.00,215.00 512.50,215.00 512.50,202.00 500.00,202.00" /><polygon fill="#ffa700" points="512.50,215.00 525.00,215.00 525.00,202.00 512.50,202.00" /><polygon fill="#ffa700" points="525.00,215.00 537.50,215.00 537.50,202.00 525.00,202.00" /><polygon fill="#ffa700" points="537.50,215.00 550.00,215.00 550.00,202.00 537.50,202.00" /><polygon fill="#ffa700" points="50.00,202.00 62.50,202.00 62.50,189.00 50.00,189.00" /><polygon fill="#ffa700" points="62.50,202.00 75.00,202.00 75.00,189.00 62.50,189.00" /><polygon fill="#ffa700" points="75.00,202.00 87.50,202.00 87.50,189.00 75.00,189.00" /><polygon fill="#ffa700" points="87.50,202.00 100.00,202.00 100.00,189.00 87.50,189.00" /><polygon fill="#ffa700" points="100.00,202.00 112.50,202.00 112.50,189.00 100.00,189.00" /><polygon fill="#ffa700" points="112.50,202.00 125.00,202.00 125.00,189.00 112.50,189.00" /><polygon fill="#ffa700" points="125.00,202.00 137.50,202.00 137.50,189.00 125.00,189.00" /><polygon fill="#ef6706" points="137.50,202.00 150.00,202.00 150.00,189.00 137.50,189.00" /><polygon fill="#e4540b" points="150.00,202.00 162.50,202.00 162.50,189.00 150.00,189.00" /><polygon fill="#d74310" points="162.50,202.00 175.00,202.00 175.00,189.00 162.50,189.00" /><polygon fill="#c32d19" points="175.00,202.00 187.50,202.00 187.50,189.00 175.00,189.00" /><polygon fill="#920d2f" points="187.50,202.00 200.00,202.00 200.00,189.00 187.50,189.00" /><polygon fill="#1e1379" points="200.00,202.00 212.50,202.00 212.50,189.00 200.00,189.00" /><polygon fill="#8efcfe" points="212.50,202.00 225.00,202.00 225.00,189.00 212.50,189.00" /><polygon fill="#a1ffff" points="225.00,202.00 237.50,202.00 237.50,189.00 225.00,189.00" /><polygon fill="#2c0a6d" points="237.50,202.00 250.00,202.00 250.00,189.00 237.50,189.00" /><polygon fill="#9f1429" points="250.00,202.00 262.50,202.00 262.50,189.00 250.00,189.00" /><polygon fill="#c32d19" points="262.50,202.00 275.00,202.00 275.00,189.00 262.50,189.00" /><polygon fill="#d74310" points="275.00,202.00 287.50,202.00 287.50,189.00 275.00,189.00" /><polygon fill="#e04e0c" points="287.50,202.00 300.00,202.00 300.00,189.00 287.50,189.00" /><polygon fill="#f26d05" points="300.00,202.00 312.50,202.00 312.50,189.00 300.00,189.00" /><polygon fill="#ffa700" points="312.50,202.00 325.00,202.00 325.00,189.00 312.50,189.00" /><polygon fill="#ffa700" points="325.00,202.00 337.50,202.00 337.50,189.00 325.00,189.00" /><polygon fill="#ffa700" points="337.50,202.00 350.00,202.00 350.00,189.00 337.50,189.00" /><polygon fill="#ffa700" points="350.00,202.00 362.50,202.00 362.50,189.00 350.00,189.00" /><polygon fill="#ffa700" points="362.50,202.00 375.00,202.00 375.00,189.00 362.50,189.00" /><polygon fill="#ffa700" points="375.00,202.00 387.50,202.00 387.50,189.00 375.00,189.00" /><polygon fill="#ffa700" points="387.50,202.00 400.00,202.00 400.00,189.00 387.50,189.00" /><polygon fill="#ffa700" points="400.00,202.00 412.50,202.00 412.50,189.00 400.00,189.00" /><polygon fill="#ffa700" points="412.50,202.00 425.00,202.00 425.00,189.00 412.50,189.00" /><polygon fill="#ffa700" points="425.00,202.00 437.50,202.00 437.50,189.00 425.00,189.00" /><polygon fill="#ffa700" points="437.50,202.00 450.00,202.00 450.00,189.00 437.50,189.00" /><polygon fill="#ffa700" points="450.00,202.00 462.50,202.00 462.50,189.00 450.00,189.00" /><polygon fill="#ffa700" points="462.50,202.00 475.00,202.00 475.00,189.00 462.50,189.00" /><polygon fill="#ffa700" points="475.00,202.00 487.50,202.00 487.50,189.00 475.00,189.00" /><polygon fill="#ffa700" points="487.50,202.00 500.00,202.00 500.00,189.00 487.50,189.00" /><polygon fill="#ffa700" points="500.00,202.00 512.50,202.00 512.50,189.00 500.00,189.00" /><polygon fill="#ffa700" points="512.50,202.00 525.00,202.00 525.00,189.00 512.50,189.00" /><polygon fill="#ffa700" points="525.00,202.00 537.50,202.00 537.50,189.00 525.00,189.00" /><polygon fill="#ffa700" points="537.50,202.00 550.00,202.00 550.00,189.00 537.50,189.00" /><polygon fill="#ffa700" points="50.00,189.00 62.50,189.00 62.50,176.00 50.00,176.00" /><polygon fill="#ffa700" points="62.50,189.00 75.00,189.00 75.00,176.00 62.50,176.00" /><polygon fill="#ffa700" points="75.00,189.00 87.50,189.00 87.50,176.00 75.00,176.00" /><polygon fill="#ffa700" points="87.50,189.00 100.00,189.00 100.00,176.00 87.50,176.00" /><polygon fill="#ffa700" points="100.00,189.00 112.50,189.00 112.50,176.00 100.00,176.00" /><polygon fill="#ffa700" points="112.50,189.00 125.00,189.00 125.00,176.00 112.50,176.00" /><polygon fill="#ffa700" points="125.00,189.00 137.50,189.00 137.50,176.00 125.00,176.00" /><polygon fill="#ef6706" points="137.50,189.00 150.00,189.00 150.00,176.00 137.50,176.00" /><polygon fill="#e4540b" points="150.00,189.00 162.50,189.00 162.50,176.00 150.00,176.00" /><polygon fill="#dc480e" points="162.50,189.00 175.00,189.00 175.00,176.00 162.50,176.00" /><polygon fill="#b7241e" points="175.00,189.00 187.50,189.00 187.50,176.00 175.00,176.00" /><polygon fill="#8c0b32" points="187.50,189.00 200.00,189.00 200.00,176.00 187.50,176.00" /><polygon fill="#360665" points="200.00,189.00 212.50,189.00 212.50,176.00 200.00,176.00" /><polygon fill="#9afeff" points="212.50,189.00 225.00,189.00 225.00,176.00 212.50,176.00" /><polygon fill="#a7ffff" points="225.00,189.00 237.50,189.00 237.50,176.00 225.00,176.00" /><polygon fill="#2c0a6d" points="237.50,189.00 250.00,189.00 250.00,176.00 237.50,176.00" /><polygon fill="#920d2f" points="250.00,189.00 262.50,189.00 262.50,176.00 250.00,176.00" /><polygon fill="#c83216" points="262.50,189.00 275.00,189.00 275.00,176.00 262.50,176.00" /><polygon fill="#c83216" points="275.00,189.00 287.50,189.00 287.50,176.00 275.00,176.00" /><polygon fill="#e85a09" points="287.50,189.00 300.00,189.00 300.00,176.00 287.50,176.00" /><polygon fill="#f26d05" points="300.00,189.00 312.50,189.00 312.50,176.00 300.00,176.00" /><polygon fill="#ffa700" points="312.50,189.00 325.00,189.00 325.00,176.00 312.50,176.00" /><polygon fill="#ffa700" points="325.00,189.00 337.50,189.00 337.50,176.00 325.00,176.00" /><polygon fill="#ffa700" points="337.50,189.00 350.00,189.00 350.00,176.00 337.50,176.00" /><polygon fill="#ffa700" points="350.00,189.00 362.50,189.00 362.50,176.00 350.00,176.00" /><polygon fill="#ffa700" points="362.50,189.00 375.00,189.00 375.00,176.00 362.50,176.00" /><polygon fill="#ffa700" points="375.00,189.00 387.50,189.00 387.50,176.00 375.00,176.00" /><polygon fill="#ffa700" points="387.50,189.00 400.00,189.00 400.00,176.00 387.50,176.00" /><polygon fill="#ffa700" points="400.00,189.00 412.50,189.00 412.50,176.00 400.00,176.00" /><polygon fill="#ffa700" points="412.50,189.00 425.00,189.00 425.00,176.00 412.50,176.00" /><polygon fill="#ffa700" points="425.00,189.00 437.50,189.00 437.50,176.00 425.00,176.00" /><polygon fill="#ffa700" points="437.50,189.00 450.00,189.00 450.00,176.00 437.50,176.00" /><polygon fill="#ffa700" points="450.00,189.00 462.50,189.00 462.50,176.00 450.00,176.00" /><polygon fill="#ffa700" points="462.50,189.00 475.00,189.00 475.00,176.00 462.50,176.00" /><polygon fill="#ffa700" points="475.00,189.00 487.50,189.00 487.50,176.00 475.00,176.00" /><polygon fill="#ffa700" points="487.50,189.00 500.00,189.00 500.00,176.00 487.50,176.00" /><polygon fill="#ffa700" points="500.00,189.00 512.50,189.00 512.50,176.00 500.00,176.00" /><polygon fill="#ffa700" points="512.50,189.00 525.00,189.00 525.00,176.00 512.50,176.00" /><polygon fill="#ffa700" points="525.00,189.00 537.50,189.00 537.50,176.00 525.00,176.00" /><polygon fill="#ffa700" points="537.50,189.00 550.00,189.00 550.00,176.00 537.50,176.00" /><polygon fill="#ffa700" points="50.00,176.00 62.50,176.00 62.50,163.00 50.00,163.00" /><polygon fill="#ffa700" points="62.50,176.00 75.00,176.00 75.00,163.00 62.50,163.00" /><polygon fill="#ffa700" points="75.00,176.00 87.50,176.00 87.50,163.00 75.00,163.00" /><polygon fill="#ffa700" points="87.50,176.00 100.00,176.00 100.00,163.00 87.50,163.00" /><polygon fill="#ffa700" points="100.00,176.00 112.50,176.00 112.50,163.00 100.00,163.00" /><polygon fill="#ffa700" points="112.50,176.00 125.00,176.00 125.00,163.00 112.50,163.00" /><polygon fill="#ffa700" points="125.00,176.00 137.50,176.00 137.50,163.00 125.00,163.00" /><polygon fill="#fe9401" points="137.50,176.00 150.00,176.00 150.00,163.00 137.50,163.00" /><polygon fill="#e85a09" points="150.00,176.00 162.50,176.00 162.50,163.00 150.00,163.00" /><polygon fill="#e4540b" points="162.50,176.00 175.00,176.00 175.00,163.00 162.50,163.00" /><polygon fill="#d23d12" points="175.00,176.00 187.50,176.00 187.50,163.00 175.00,163.00" /><polygon fill="#c32d19" points="187.50,176.00 200.00,176.00 200.00,163.00 187.50,163.00" /><polygon fill="#b21f20" points="200.00,176.00 212.50,176.00 212.50,163.00 200.00,163.00" /><polygon fill="#9f1429" points="212.50,176.00 225.00,176.00 225.00,163.00 212.50,163.00" /><polygon fill="#a51726" points="225.00,176.00 237.50,176.00 237.50,163.00 225.00,163.00" /><polygon fill="#9f1429" points="237.50,176.00 250.00,176.00 250.00,163.00 237.50,163.00" /><polygon fill="#c83216" points="250.00,176.00 262.50,176.00 262.50,163.00 250.00,163.00" /><polygon fill="#d74310" points="262.50,176.00 275.00,176.00 275.00,163.00 262.50,163.00" /><polygon fill="#e4540b" points="275.00,176.00 287.50,176.00 287.50,163.00 275.00,163.00" /><polygon fill="#ec6108" points="287.50,176.00 300.00,176.00 300.00,163.00 287.50,163.00" /><polygon fill="#fe9401" points="300.00,176.00 312.50,176.00 312.50,163.00 300.00,163.00" /><polygon fill="#ffa700" points="312.50,176.00 325.00,176.00 325.00,163.00 312.50,163.00" /><polygon fill="#ffa700" points="325.00,176.00 337.50,176.00 337.50,163.00 325.00,163.00" /><polygon fill="#ffa700" points="337.50,176.00 350.00,176.00 350.00,163.00 337.50,163.00" /><polygon fill="#ffa700" points="350.00,176.00 362.50,176.00 362.50,163.00 350.00,163.00" /><polygon fill="#ffa700" points="362.50,176.00 375.00,176.00 375.00,163.00 362.50,163.00" /><polygon fill="#ffa700" points="375.00,176.00 387.50,176.00 387.50,163.00 375.00,163.00" /><polygon fill="#ffa700" points="387.50,176.00 400.00,176.00 400.00,163.00 387.50,163.00" /><polygon fill="#ffa700" points="400.00,176.00 412.50,176.00 412.50,163.00 400.00,163.00" /><polygon fill="#ffa700" points="412.50,176.00 425.00,176.00 425.00,163.00 412.50,163.00" /><polygon fill="#ffa700" points="425.00,176.00 437.50,176.00 437.50,163.00 425.00,163.00" /><polygon fill="#ffa700" points="437.50,176.00 450.00,176.00 450.00,163.00 437.50,163.00" /><polygon fill="#ffa700" points="450.00,176.00 462.50,176.00 462.50,163.00 450.00,163.00" /><polygon fill="#ffa700" points="462.50,176.00 475.00,176.00 475.00,163.00 462.50,163.00" /><polygon fill="#ffa700" points="475.00,176.00 487.50,176.00 487.50,163.00 475.00,163.00" /><polygon fill="#ffa700" points="487.50,176.00 500.00,176.00 500.00,163.00 487.50,163.00" /><polygon fill="#ffa700" points="500.00,176.00 512.50,176.00 512.50,163.00 500.00,163.00" /><polygon fill="#ffa700" points="512.50,176.00 525.00,176.00 525.00,163.00 512.50,163.00" /><polygon fill="#ffa700" points="525.00,176.00 537.50,176.00 537.50,163.00 525.00,163.00" /><polygon fill="#ffa700" points="537.50,176.00 550.00,176.00 550.00,163.00 537.50,163.00" /><polygon fill="#ffa700" points="50.00,163.00 62.50,163.00 62.50,150.00 50.00,150.00" /><polygon fill="#ffa700" points="62.50,163.00 75.00,163.00 75.00,150.00 62.50,150.00" /><polygon fill="#ffa700" points="75.00,163.00 87.50,163.00 87.50,150.00 75.00,150.00" /><polygon fill="#ffa700" points="87.50,163.00 100.00,163.00 100.00,150.00 87.50,150.00" /><polygon fill="#ffa700" points="100.00,163.00 112.50,163.00 112.50,150.00 100.00,150.00" /><polygon fill="#ffa700" points="112.50,163.00 125.00,163.00 125.00,150.00 112.50,150.00" /><polygon fill="#ffa700" points="125.00,163.00 137.50,163.00 137.50,150.00 125.00,150.00" /><polygon fill="#ffa700" points="137.50,163.00 150.00,163.00 150.00,150.00 137.50,150.00" /><polygon fill="#ffa100" points="150.00,163.00 162.50,163.00 162.50,150.00 150.00,150.00" /><polygon fill="#f98102" points="162.50,163.00 175.00,163.00 175.00,150.00 162.50,150.00" /><polygon fill="#ef6706" points="175.00,163.00 187.50,163.00 187.50,150.00 175.00,150.00" /><polygon fill="#e04e0c" points="187.50,163.00 200.00,163.00 200.00,150.00 187.50,150.00" /><polygon fill="#e85a09" points="200.00,163.00 212.50,163.00 212.50,150.00 200.00,150.00" /><polygon fill="#e4540b" points="212.50,163.00 225.00,163.00 225.00,150.00 212.50,150.00" /><polygon fill="#e4540b" points="225.00,163.00 237.50,163.00 237.50,150.00 225.00,150.00" /><polygon fill="#dc480e" points="237.50,163.00 250.00,163.00 250.00,150.00 237.50,150.00" /><polygon fill="#e4540b" points="250.00,163.00 262.50,163.00 262.50,150.00 250.00,150.00" /><polygon fill="#ec6108" points="262.50,163.00 275.00,163.00 275.00,150.00 262.50,150.00" /><polygon fill="#f77a03" points="275.00,163.00 287.50,163.00 287.50,150.00 275.00,150.00" /><polygon fill="#ffa700" points="287.50,163.00 300.00,163.00 300.00,150.00 287.50,150.00" /><polygon fill="#ffa700" points="300.00,163.00 312.50,163.00 312.50,150.00 300.00,150.00" /><polygon fill="#ffa700" points="312.50,163.00 325.00,163.00 325.00,150.00 312.50,150.00" /><polygon fill="#ffa700" points="325.00,163.00 337.50,163.00 337.50,150.00 325.00,150.00" /><polygon fill="#ffa700" points="337.50,163.00 350.00,163.00 350.00,150.00 337.50,150.00" /><polygon fill="#ffa700" points="350.00,163.00 362.50,163.00 362.50,150.00 350.00,150.00" /><polygon fill="#ffa700" points="362.50,163.00 375.00,163.00 375.00,150.00 362.50,150.00" /><polygon fill="#ffa700" points="375.00,163.00 387.50,163.00 387.50,150.00 375.00,150.00" /><polygon fill="#ffa700" points="387.50,163.00 400.00,163.00 400.00,150.00 387.50,150.00" /><polygon fill="#ffa700" points="400.00,163.00 412.50,163.00 412.50,150.00 400.00,150.00" /><polygon fill="#ffa700" points="412.50,163.00 425.00,163.00 425.00,150.00 412.50,150.00" /><polygon fill="#ffa700" points="425.00,163.00 437.50,163.00 437.50,150.00 425.00,150.00" /><polygon fill="#ffa700" points="437.50,163.00 450.00,163.00 450.00,150.00 437.50,150.00" /><polygon fill="#ffa700" points="450.00,163.00 462.50,163.00 462.50,150.00 450.00,150.00" /><polygon fill="#ffa700" points="462.50,163.00 475.00,163.00 475.00,150.00 462.50,150.00" /><polygon fill="#ffa700" points="475.00,163.00 487.50,163.00 487.50,150.00 475.00,150.00" /><polygon fill="#ffa700" points="487.50,163.00 500.00,163.00 500.00,150.00 487.50,150.00" /><polygon fill="#ffa700" points="500.00,163.00 512.50,163.00 512.50,150.00 500.00,150.00" /><polygon fill="#ffa700" points="512.50,163.00 525.00,163.00 525.00,150.00 512.50,150.00" /><polygon fill="#ffa700" points="525.00,163.00 537.50,163.00 537.50,150.00 525.00,150.00" /><polygon fill="#ffa700" points="537.50,163.00 550.00,163.00 550.00,150.00 537.50,150.00" /><polygon fill="#ffa700" points="50.00,150.00 62.50,150.00 62.50,137.00 50.00,137.00" /><polygon fill="#ffa700" points="62.50,150.00 75.00,150.00 75.00,137.00 62.50,137.00" /><polygon fill="#ffa700" points="75.00,150.00 87.50,150.00 87.50,137.00 75.00,137.00" /><polygon fill="#ffa700" points="87.50,150.00 100.00,150.00 100.00,137.00 87.50,137.00" /><polygon fill="#ffa700" points="100.00,150.00 112.50,150.00 112.50,137.00 100.00,137.00" /><polygon fill="#ffa700" points="112.50,150.00 125.00,150.00 125.00,137.00 112.50,137.00" /><polygon fill="#ffa700" points="125.00,150.00 137.50,150.00 137.50,137.00 125.00,137.00" /><polygon fill="#ffa700" points="137.50,150.00 150.00,150.00 150.00,137.00 137.50,137.00" /><polygon fill="#ffa700" points="150.00,150.00 162.50,150.00 162.50,137.00 150.00,137.00" /><polygon fill="#ffa700" points="162.50,150.00 175.00,150.00 175.00,137.00 162.50,137.00" /><polygon fill="#ffa700" points="175.00,150.00 187.50,150.00 187.50,137.00 175.00,137.00" /><polygon fill="#fe9401" points="187.50,150.00 200.00,150.00 200.00,137.00 187.50,137.00" /><polygon fill="#fc8e01" points="200.00,150.00 212.50,150.00 212.50,137.00 200.00,137.00" /><polygon fill="#fc8e01" points="212.50,150.00 225.00,150.00 225.00,137.00 212.50,137.00" /><polygon fill="#fb8702" points="225.00,150.00 237.50,150.00 237.50,137.00 225.00,137.00" /><polygon fill="#fe9401" points="237.50,150.00 250.00,150.00 250.00,137.00 237.50,137.00" /><polygon fill="#ffa100" points="250.00,150.00 262.50,150.00 262.50,137.00 250.00,137.00" /><polygon fill="#ffa700" points="262.50,150.00 275.00,150.00 275.00,137.00 262.50,137.00" /><polygon fill="#ffa700" points="275.00,150.00 287.50,150.00 287.50,137.00 275.00,137.00" /><polygon fill="#ffa700" points="287.50,150.00 300.00,150.00 300.00,137.00 287.50,137.00" /><polygon fill="#ffa700" points="300.00,150.00 312.50,150.00 312.50,137.00 300.00,137.00" /><polygon fill="#ffa700" points="312.50,150.00 325.00,150.00 325.00,137.00 312.50,137.00" /><polygon fill="#ffa700" points="325.00,150.00 337.50,150.00 337.50,137.00 325.00,137.00" /><polygon fill="#ffa700" points="337.50,150.00 350.00,150.00 350.00,137.00 337.50,137.00" /><polygon fill="#ffa700" points="350.00,150.00 362.50,150.00 362.50,137.00 350.00,137.00" /><polygon fill="#ffa700" points="362.50,150.00 375.00,150.00 375.00,137.00 362.50,137.00" /><polygon fill="#ffa700" points="375.00,150.00 387.50,150.00 387.50,137.00 375.00,137.00" /><polygon fill="#ffa700" points="387.50,150.00 400.00,150.00 400.00,137.00 387.50,137.00" /><polygon fill="#ffa700" points="400.00,150.00 412.50,150.00 412.50,137.00 400.00,137.00" /><polygon fill="#ffa700" points="412.50,150.00 425.00,150.00 425.00,137.00 412.50,137.00" /><polygon fill="#ffa700" points="425.00,150.00 437.50,150.00 437.50,137.00 425.00,137.00" /><polygon fill="#ffa700" points="437.50,150.00 450.00,150.00 450.00,137.00 437.50,137.00" /><polygon fill="#ffa700" points="450.00,150.00 462.50,150.00 462.50,137.00 450.00,137.00" /><polygon fill="#ffa700" points="462.50,150.00 475.00,150.00 475.00,137.00 462.50,137.00" /><polygon fill="#ffa700" points="475.00,150.00 487.50,150.00 487.50,137.00 475.00,137.00" /><polygon fill="#ffa700" points="487.50,150.00 500.00,150.00 500.00,137.00 487.50,137.00" /><polygon fill="#ffa700" points="500.00,150.00 512.50,150.00 512.50,137.00 500.00,137.00" /><polygon fill="#ffa700" points="512.50,150.00 525.00,150.00 525.00,137.00 512.50,137.00" /><polygon fill="#ffa700" points="525.00,150.00 537.50,150.00 537.50,137.00 525.00,137.00" /><polygon fill="#ffa700" points="537.50,150.00 550.00,150.00 550.00,137.00 537.50,137.00" /><polygon fill="#ffa700" points="50.00,137.00 62.50,137.00 62.50,124.00 50.00,124.00" /><polygon fill="#ffa700" points="62.50,137.00 75.00,137.00 75.00,124.00 62.50,124.00" /><polygon fill="#ffa700" points="75.00,137.00 87.50,137.00 87.50,124.00 75.00,124.00" /><polygon fill="#ffa700" points="87.50,137.00 100.00,137.00 100.00,124.00 87.50,124.00" /><polygon fill="#ffa700" points="100.00,137.00 112.50,137.00 112.50,124.00 100.00,124.00" /><polygon fill="#ffa700" points="112.50,137.00 125.00,137.00 125.00,124.00 112.50,124.00" /><polygon fill="#ffa700" points="125.00,137.00 137.50,137.00 137.50,124.00 125.00,124.00" /><polygon fill="#ffa700" points="137.50,137.00 150.00,137.00 150.00,124.00 137.50,124.00" /><polygon fill="#ffa700" points="150.00,137.00 162.50,137.00 162.50,124.00 150.00,124.00" /><polygon fill="#ffa700" points="162.50,137.00 175.00,137.00 175.00,124.00 162.50,124.00" /><polygon fill="#ffa700" points="175.00,137.00 187.50,137.00 187.50,124.00 175.00,124.00" /><polygon fill="#ffa700" points="187.50,137.00 200.00,137.00 200.00,124.00 187.50,124.00" /><polygon fill="#ffa700" points="200.00,137.00 212.50,137.00 212.50,124.00 200.00,124.00" /><polygon fill="#ffa700" points="212.50,137.00 225.00,137.00 225.00,124.00 212.50,124.00" /><polygon fill="#ffa700" points="225.00,137.00 237.50,137.00 237.50,124.00 225.00,124.00" /><polygon fill="#ffa700" points="237.50,137.00 250.00,137.00 250.00,124.00 237.50,124.00" /><polygon fill="#ffa700" points="250.00,137.00 262.50,137.00 262.50,124.00 250.00,124.00" /><polygon fill="#ffa700" points="262.50,137.00 275.00,137.00 275.00,124.00 262.50,124.00" /><polygon fill="#ffa700" points="275.00,137.00 287.50,137.00 287.50,124.00 275.00,124.00" /><polygon fill="#ffa700" points="287.50,137.00 300.00,137.00 300.00,124.00 287.50,124.00" /><polygon fill="#ffa700" points="300.00,137.00 312.50,137.00 312.50,124.00 300.00,124.00" /><polygon fill="#ffa700" points="312.50,137.00 325.00,137.00 325.00,124.00 312.50,124.00" /><polygon fill="#ffa700" points="325.00,137.00 337.50,137.00 337.50,124.00 325.00,124.00" /><polygon fill="#ffa700" points="337.50,137.00 350.00,137.00 350.00,124.00 337.50,124.00" /><polygon fill="#ffa700" points="350.00,137.00 362.50,137.00 362.50,124.00 350.00,124.00" /><polygon fill="#ffa700" points="362.50,137.00 375.00,137.00 375.00,124.00 362.50,124.00" /><polygon fill="#ffa700" points="375.00,137.00 387.50,137.00 387.50,124.00 375.00,124.00" /><polygon fill="#ffa700" points="387.50,137.00 400.00,137.00 400.00,124.00 387.50,124.00" /><polygon fill="#ffa700" points="400.00,137.00 412.50,137.00 412.50,124.00 400.00,124.00" /><polygon fill="#ffa700" points="412.50,137.00 425.00,137.00 425.00,124.00 412.50,124.00" /><polygon fill="#ffa700" points="425.00,137.00 437.50,137.00 437.50,124.00 425.00,124.00" /><polygon fill="#ffa700" points="437.50,137.00 450.00,137.00 450.00,124.00 437.50,124.00" /><polygon fill="#ffa700" points="450.00,137.00 462.50,137.00 462.50,124.00 450.00,124.00" /><polygon fill="#ffa700" points="462.50,137.00 475.00,137.00 475.00,124.00 462.50,124.00" /><polygon fill="#ffa700" points="475.00,137.00 487.50,137.00 487.50,124.00 475.00,124.00" /><polygon fill="#ffa700" points="487.50,137.00 500.00,137.00 500.00,124.00 487.50,124.00" /><polygon fill="#ffa700" points="500.00,137.00 512.50,137.00 512.50,124.00 500.00,124.00" /><polygon fill="#ffa700" points="512.50,137.00 525.00,137.00 525.00,124.00 512.50,124.00" /><polygon fill="#ffa700" points="525.00,137.00 537.50,137.00 537.50,124.00 525.00,124.00" /><polygon fill="#ffa700" points="537.50,137.00 550.00,137.00 550.00,124.00 537.50,124.00" /><polygon fill="#ffa700" points="50.00,124.00 62.50,124.00 62.50,111.00 50.00,111.00" /><polygon fill="#ffa700" points="62.50,124.00 75.00,124.00 75.00,111.00 62.50,111.00" /><polygon fill="#ffa700" points="75.00,124.00 87.50,124.00 87.50,111.00 75.00,111.00" /><polygon fill="#ffa700" points="87.50,124.00 100.00,124.00 100.00,111.00 87.50,111.00" /><polygon fill="#ffa700" points="100.00,124.00 112.50,124.00 112.50,111.00 100.00,111.00" /><polygon fill="#ffa700" points="112.50,124.00 125.00,124.00 125.00,111.00 112.50,111.00" /><polygon fill="#ffa700" points="125.00,124.00 137.50,124.00 137.50,111.00 125.00,111.00" /><polygon fill="#ffa700" points="137.50,124.00 150.00,124.00 150.00,111.00 137.50,111.00" /><polygon fill="#ffa700" points="150.00,124.00 162.50,124.00 162.50,111.00 150.00,111.00" /><polygon fill="#ffa700" points="162.50,124.00 175.00,124.00 175.00,111.00 162.50,111.00" /><polygon fill="#ffa700" points="175.00,124.00 187.50,124.00 187.50,111.00 175.00,111.00" /><polygon fill="#ffa700" points="187.50,124.00 200.00,124.00 200.00,111.00 187.50,111.00" /><polygon fill="#ffa700" points="200.00,124.00 212.50,124.00 212.50,111.00 200.00,111.00" /><polygon fill="#ffa700" points="212.50,124.00 225.00,124.00 225.00,111.00 212.50,111.00" /><polygon fill="#ffa700" points="225.00,124.00 237.50,124.00 237.50,111.00 225.00,111.00" /><polygon fill="#ffa700" points="237.50,124.00 250.00,124.00 250.00,111.00 237.50,111.00" /><polygon fill="#ffa700" points="250.00,124.00 262.50,124.00 262.50,111.00 250.00,111.00" /><polygon fill="#ffa700" points="262.50,124.00 275.00,124.00 275.00,111.00 262.50,111.00" /><polygon fill="#ffa700" points="275.00,124.00 287.50,124.00 287.50,111.00 275.00,111.00" /><polygon fill="#ffa700" points="287.50,124.00 300.00,124.00 300.00,111.00 287.50,111.00" /><polygon fill="#ffa700" points="300.00,124.00 312.50,124.00 312.50,111.00 300.00,111.00" /><polygon fill="#ffa700" points="312.50,124.00 325.00,124.00 325.00,111.00 312.50,111.00" /><polygon fill="#ffa700" points="325.00,124.00 337.50,124.00 337.50,111.00 325.00,111.00" /><polygon fill="#ffa700" points="337.50,124.00 350.00,124.00 350.00,111.00 337.50,111.00" /><polygon fill="#ffa700" points="350.00,124.00 362.50,124.00 362.50,111.00 350.00,111.00" /><polygon fill="#ffa700" points="362.50,124.00 375.00,124.00 375.00,111.00 362.50,111.00" /><polygon fill="#ffa700" points="375.00,124.00 387.50,124.00 387.50,111.00 375.00,111.00" /><polygon fill="#ffa700" points="387.50,124.00 400.00,124.00 400.00,111.00 387.50,111.00" /><polygon fill="#ffa700" points="400.00,124.00 412.50,124.00 412.50,111.00 400.00,111.00" /><polygon fill="#ffa700" points="412.50,124.00 425.00,124.00 425.00,111.00 412.50,111.00" /><polygon fill="#ffa700" points="425.00,124.00 437.50,124.00 437.50,111.00 425.00,111.00" /><polygon fill="#ffa700" points="437.50,124.00 450.00,124.00 450.00,111.00 437.50,111.00" /><polygon fill="#ffa700" points="450.00,124.00 462.50,124.00 462.50,111.00 450.00,111.00" /><polygon fill="#ffa700" points="462.50,124.00 475.00,124.00 475.00,111.00 462.50,111.00" /><polygon fill="#ffa700" points="475.00,124.00 487.50,124.00 487.50,111.00 475.00,111.00" /><polygon fill="#ffa700" points="487.50,124.00 500.00,124.00 500.00,111.00 487.50,111.00" /><polygon fill="#ffa700" points="500.00,124.00 512.50,124.00 512.50,111.00 500.00,111.00" /><polygon fill="#ffa700" points="512.50,124.00 525.00,124.00 525.00,111.00 512.50,111.00" /><polygon fill="#ffa700" points="525.00,124.00 537.50,124.00 537.50,111.00 525.00,111.00" /><polygon fill="#ffa700" points="537.50,124.00 550.00,124.00 550.00,111.00 537.50,111.00" /><polygon fill="#ffa700" points="50.00,111.00 62.50,111.00 62.50,98.00 50.00,98.00" /><polygon fill="#ffa700" points="62.50,111.00 75.00,111.00 75.00,98.00 62.50,98.00" /><polygon fill="#ffa700" points="75.00,111.00 87.50,111.00 87.50,98.00 75.00,98.00" /><polygon fill="#ffa700" points="87.50,111.00 100.00,111.00 100.00,98.00 87.50,98.00" /><polygon fill="#ffa700" points="100.00,111.00 112.50,111.00 112.50,98.00 100.00,98.00" /><polygon fill="#ffa700" points="112.50,111.00 125.00,111.00 125.00,98.00 112.50,98.00" /><polygon fill="#ffa700" points="125.00,111.00 137.50,111.00 137.50,98.00 125.00,98.00" /><polygon fill="#ffa700" points="137.50,111.00 150.00,111.00 150.00,98.00 137.50,98.00" /><polygon fill="#ffa700" points="150.00,111.00 162.50,111.00 162.50,98.00 150.00,98.00" /><polygon fill="#ffa700" points="162.50,111.00 175.00,111.00 175.00,98.00 162.50,98.00" /><polygon fill="#ffa700" points="175.00,111.00 187.50,111.00 187.50,98.00 175.00,98.00" /><polygon fill="#ffa700" points="187.50,111.00 200.00,111.00 200.00,98.00 187.50,98.00" /><polygon fill="#ffa700" points="200.00,111.00 212.50,111.00 212.50,98.00 200.00,98.00" /><polygon fill="#ffa700" points="212.50,111.00 225.00,111.00 225.00,98.00 212.50,98.00" /><polygon fill="#ffa700" points="225.00,111.00 237.50,111.00 237.50,98.00 225.00,98.00" /><polygon fill="#ffa700" points="237.50,111.00 250.00,111.00 250.00,98.00 237.50,98.00" /><polygon fill="#ffa700" points="250.00,111.00 262.50,111.00 262.50,98.00 250.00,98.00" /><polygon fill="#ffa700" points="262.50,111.00 275.00,111.00 275.00,98.00 262.50,98.00" /><polygon fill="#ffa700" points="275.00,111.00 287.50,111.00 287.50,98.00 275.00,98.00" /><polygon fill="#ffa700" points="287.50,111.00 300.00,111.00 300.00,98.00 287.50,98.00" /><polygon fill="#ffa700" points="300.00,111.00 312.50,111.00 312.50,98.00 300.00,98.00" /><polygon fill="#ffa700" points="312.50,111.00 325.00,111.00 325.00,98.00 312.50,98.00" /><polygon fill="#ffa700" points="325.00,111.00 337.50,111.00 337.50,98.00 325.00,98.00" /><polygon fill="#ffa700" points="337.50,111.00 350.00,111.00 350.00,98.00 337.50,98.00" /><polygon fill="#ffa700" points="350.00,111.00 362.50,111.00 362.50,98.00 350.00,98.00" /><polygon fill="#ffa700" points="362.50,111.00 375.00,111.00 375.00,98.00 362.50,98.00" /><polygon fill="#ffa700" points="375.00,111.00 387.50,111.00 387.50,98.00 375.00,98.00" /><polygon fill="#ffa700" points="387.50,111.00 400.00,111.00 400.00,98.00 387.50,98.00" /><polygon fill="#ffa700" points="400.00,111.00 412.50,111.00 412.50,98.00 400.00,98.00" /><polygon fill="#ffa700" points="412.50,111.00 425.00,111.00 425.00,98.00 412.50,98.00" /><polygon fill="#ffa700" points="425.00,111.00 437.50,111.00 437.50,98.00 425.00,98.00" /><polygon fill="#ffa700" points="437.50,111.00 450.00,111.00 450.00,98.00 437.50,98.00" /><polygon fill="#ffa700" points="450.00,111.00 462.50,111.00 462.50,98.00 450.00,98.00" /><polygon fill="#ffa700" points="462.50,111.00 475.00,111.00 475.00,98.00 462.50,98.00" /><polygon fill="#ffa700" points="475.00,111.00 487.50,111.00 487.50,98.00 475.00,98.00" /><polygon fill="#ffa700" points="487.50,111.00 500.00,111.00 500.00,98.00 487.50,98.00" /><polygon fill="#ffa700" points="500.00,111.00 512.50,111.00 512.50,98.00 500.00,98.00" /><polygon fill="#ffa700" points="512.50,111.00 525.00,111.00 525.00,98.00 512.50,98.00" /><polygon fill="#ffa700" points="525.00,111.00 537.50,111.00 537.50,98.00 525.00,98.00" /><polygon fill="#ffa700" points="537.50,111.00 550.00,111.00 550.00,98.00 537.50,98.00" /><polygon fill="#ffa700" points="50.00,98.00 62.50,98.00 62.50,85.00 50.00,85.00" /><polygon fill="#ffa700" points="62.50,98.00 75.00,98.00 75.00,85.00 62.50,85.00" /><polygon fill="#ffa700" points="75.00,98.00 87.50,98.00 87.50,85.00 75.00,85.00" /><polygon fill="#ffa700" points="87.50,98.00 100.00,98.00 100.00,85.00 87.50,85.00" /><polygon fill="#ffa700" points="100.00,98.00 112.50,98.00 112.50,85.00 100.00,85.00" /><polygon fill="#ffa700" points="112.50,98.00 125.00,98.00 125.00,85.00 112.50,85.00" /><polygon fill="#ffa700" points="125.00,98.00 137.50,98.00 137.50,85.00 125.00,85.00" /><polygon fill="#ffa700" points="137.50,98.00 150.00,98.00 150.00,85.00 137.50,85.00" /><polygon fill="#ffa700" points="150.00,98.00 162.50,98.00 162.50,85.00 150.00,85.00" /><polygon fill="#ffa700" points="162.50,98.00 175.00,98.00 175.00,85.00 162.50,85.00" /><polygon fill="#ffa700" points="175.00,98.00 187.50,98.00 187.50,85.00 175.00,85.00" /><polygon fill="#ffa700" points="187.50,98.00 200.00,98.00 200.00,85.00 187.50,85.00" /><polygon fill="#ffa700" points="200.00,98.00 212.50,98.00 212.50,85.00 200.00,85.00" /><polygon fill="#ffa700" points="212.50,98.00 225.00,98.00 225.00,85.00 212.50,85.00" /><polygon fill="#ffa700" points="225.00,98.00 237.50,98.00 237.50,85.00 225.00,85.00" /><polygon fill="#ffa700" points="237.50,98.00 250.00,98.00 250.00,85.00 237.50,85.00" /><polygon fill="#ffa700" points="250.00,98.00 262.50,98.00 262.50,85.00 250.00,85.00" /><polygon fill="#ffa700" points="262.50,98.00 275.00,98.00 275.00,85.00 262.50,85.00" /><polygon fill="#ffa700" points="275.00,98.00 287.50,98.00 287.50,85.00 275.00,85.00" /><polygon fill="#ffa700" points="287.50,98.00 300.00,98.00 300.00,85.00 287.50,85.00" /><polygon fill="#ffa700" points="300.00,98.00 312.50,98.00 312.50,85.00 300.00,85.00" /><polygon fill="#ffa700" points="312.50,98.00 325.00,98.00 325.00,85.00 312.50,85.00" /><polygon fill="#ffa700" points="325.00,98.00 337.50,98.00 337.50,85.00 325.00,85.00" /><polygon fill="#ffa700" points="337.50,98.00 350.00,98.00 350.00,85.00 337.50,85.00" /><polygon fill="#ffa700" points="350.00,98.00 362.50,98.00 362.50,85.00 350.00,85.00" /><polygon fill="#ffa700" points="362.50,98.00 375.00,98.00 375.00,85.00 362.50,85.00" /><polygon fill="#ffa700" points="375.00,98.00 387.50,98.00 387.50,85.00 375.00,85.00" /><polygon fill="#ffa700" points="387.50,98.00 400.00,98.00 400.00,85.00 387.50,85.00" /><polygon fill="#ffa700" points="400.00,98.00 412.50,98.00 412.50,85.00 400.00,85.00" /><polygon fill="#ffa700" points="412.50,98.00 425.00,98.00 425.00,85.00 412.50,85.00" /><polygon fill="#ffa700" points="425.00,98.00 437.50,98.00 437.50,85.00 425.00,85.00" /><polygon fill="#ffa700" points="437.50,98.00 450.00,98.00 450.00,85.00 437.50,85.00" /><polygon fill="#ffa700" points="450.00,98.00 462.50,98.00 462.50,85.00 450.00,85.00" /><polygon fill="#ffa700" points="462.50,98.00 475.00,98.00 475.00,85.00 462.50,85.00" /><polygon fill="#ffa700" points="475.00,98.00 487.50,98.00 487.50,85.00 475.00,85.00" /><polygon fill="#ffa700" points="487.50,98.00 500.00,98.00 500.00,85.00 487.50,85.00" /><polygon fill="#ffa700" points="500.00,98.00 512.50,98.00 512.50,85.00 500.00,85.00" /><polygon fill="#ffa700" points="512.50,98.00 525.00,98.00 525.00,85.00 512.50,85.00" /><polygon fill="#ffa700" points="525.00,98.00 537.50,98.00 537.50,85.00 525.00,85.00" /><polygon fill="#ffa700" points="537.50,98.00 550.00,98.00 550.00,85.00 537.50,85.00" /><polygon fill="#ffa700" points="50.00,85.00 62.50,85.00 62.50,72.00 50.00,72.00" /><polygon fill="#ffa700" points="62.50,85.00 75.00,85.00 75.00,72.00 62.50,72.00" /><polygon fill="#ffa700" points="75.00,85.00 87.50,85.00 87.50,72.00 75.00,72.00" /><polygon fill="#ffa700" points="87.50,85.00 100.00,85.00 100.00,72.00 87.50,72.00" /><polygon fill="#ffa700" points="100.00,85.00 112.50,85.00 112.50,72.00 100.00,72.00" /><polygon fill="#ffa700" points="112.50,85.00 125.00,85.00 125.00,72.00 112.50,72.00" /><polygon fill="#ffa700" points="125.00,85.00 137.50,85.00 137.50,72.00 125.00,72.00" /><polygon fill="#ffa700" points="137.50,85.00 150.00,85.00 150.00,72.00 137.50,72.00" /><polygon fill="#ffa700" points="150.00,85.00 162.50,85.00 162.50,72.00 150.00,72.00" /><polygon fill="#ffa700" points="162.50,85.00 175.00,85.00 175.00,72.00 162.50,72.00" /><polygon fill="#ffa700" points="175.00,85.00 187.50,85.00 187.50,72.00 175.00,72.00" /><polygon fill="#ffa700" points="187.50,85.00 200.00,85.00 200.00,72.00 187.50,72.00" /><polygon fill="#ffa700" points="200.00,85.00 212.50,85.00 212.50,72.00 200.00,72.00" /><polygon fill="#ffa700" points="212.50,85.00 225.00,85.00 225.00,72.00 212.50,72.00" /><polygon fill="#ffa700" points="225.00,85.00 237.50,85.00 237.50,72.00 225.00,72.00" /><polygon fill="#ffa700" points="237.50,85.00 250.00,85.00 250.00,72.00 237.50,72.00" /><polygon fill="#ffa700" points="250.00,85.00 262.50,85.00 262.50,72.00 250.00,72.00" /><polygon fill="#ffa700" points="262.50,85.00 275.00,85.00 275.00,72.00 262.50,72.00" /><polygon fill="#ffa700" points="275.00,85.00 287.50,85.00 287.50,72.00 275.00,72.00" /><polygon fill="#ffa700" points="287.50,85.00 300.00,85.00 300.00,72.00 287.50,72.00" /><polygon fill="#ffa700" points="300.00,85.00 312.50,85.00 312.50,72.00 300.00,72.00" /><polygon fill="#ffa700" points="312.50,85.00 325.00,85.00 325.00,72.00 312.50,72.00" /><polygon fill="#ffa700" points="325.00,85.00 337.50,85.00 337.50,72.00 325.00,72.00" /><polygon fill="#ffa700" points="337.50,85.00 350.00,85.00 350.00,72.00 337.50,72.00" /><polygon fill="#ffa700" points="350.00,85.00 362.50,85.00 362.50,72.00 350.00,72.00" /><polygon fill="#ffa700" points="362.50,85.00 375.00,85.00 375.00,72.00 362.50,72.00" /><polygon fill="#ffa700" points="375.00,85.00 387.50,85.00 387.50,72.00 375.00,72.00" /><polygon fill="#ffa700" points="387.50,85.00 400.00,85.00 400.00,72.00 387.50,72.00" /><polygon fill="#ffa700" points="400.00,85.00 412.50,85.00 412.50,72.00 400.00,72.00" /><polygon fill="#ffa700" points="412.50,85.00 425.00,85.00 425.00,72.00 412.50,72.00" /><polygon fill="#ffa700" points="425.00,85.00 437.50,85.00 437.50,72.00 425.00,72.00" /><polygon fill="#ffa700" points="437.50,85.00 450.00,85.00 450.00,72.00 437.50,72.00" /><polygon fill="#ffa700" points="450.00,85.00 462.50,85.00 462.50,72.00 450.00,72.00" /><polygon fill="#ffa700" points="462.50,85.00 475.00,85.00 475.00,72.00 462.50,72.00" /><polygon fill="#ffa700" points="475.00,85.00 487.50,85.00 487.50,72.00 475.00,72.00" /><polygon fill="#ffa700" points="487.50,85.00 500.00,85.00 500.00,72.00 487.50,72.00" /><polygon fill="#ffa700" points="500.00,85.00 512.50,85.00 512.50,72.00 500.00,72.00" /><polygon fill="#ffa700" points="512.50,85.00 525.00,85.00 525.00,72.00 512.50,72.00" /><polygon fill="#ffa700" points="525.00,85.00 537.50,85.00 537.50,72.00 525.00,72.00" /><polygon fill="#ffa700" points="537.50,85.00 550.00,85.00 550.00,72.00 537.50,72.00" /><polygon fill="#ffa700" points="50.00,72.00 62.50,72.00 62.50,59.00 50.00,59.00" /><polygon fill="#ffa700" points="62.50,72.00 75.00,72.00 75.00,59.00 62.50,59.00" /><polygon fill="#ffa700" points="75.00,72.00 87.50,72.00 87.50,59.00 75.00,59.00" /><polygon fill="#ffa700" points="87.50,72.00 100.00,72.00 100.00,59.00 87.50,59.00" /><polygon fill="#ffa700" points="100.00,72.00 112.50,72.00 112.50,59.00 100.00,59.00" /><polygon fill="#ffa700" points="112.50,72.00 125.00,72.00 125.00,59.00 112.50,59.00" /><polygon fill="#ffa700" points="125.00,72.00 137.50,72.00 137.50,59.00 125.00,59.00" /><polygon fill="#ffa700" points="137.50,72.00 150.00,72.00 150.00,59.00 137.50,59.00" /><polygon fill="#ffa700" points="150.00,72.00 162.50,72.00 162.50,59.00 150.00,59.00" /><polygon fill="#ffa700" points="162.50,72.00 175.00,72.00 175.00,59.00 162.50,59.00" /><polygon fill="#ffa700" points="175.00,72.00 187.50,72.00 187.50,59.00 175.00,59.00" /><polygon fill="#ffa700" points="187.50,72.00 200.00,72.00 200.00,59.00 187.50,59.00" /><polygon fill="#ffa700" points="200.00,72.00 212.50,72.00 212.50,59.00 200.00,59.00" /><polygon fill="#ffa700" points="212.50,72.00 225.00,72.00 225.00,59.00 212.50,59.00" /><polygon fill="#ffa700" points="225.00,72.00 237.50,72.00 237.50,59.00 225.00,59.00" /><polygon fill="#ffa700" points="237.50,72.00 250.00,72.00 250.00,59.00 237.50,59.00" /><polygon fill="#ffa700" points="250.00,72.00 262.50,72.00 262.50,59.00 250.00,59.00" /><polygon fill="#ffa700" points="262.50,72.00 275.00,72.00 275.00,59.00 262.50,59.00" /><polygon fill="#ffa700" points="275.00,72.00 287.50,72.00 287.50,59.00 275.00,59.00" /><polygon fill="#ffa700" points="287.50,72.00 300.00,72.00 300.00,59.00 287.50,59.00" /><polygon fill="#ffa700" points="300.00,72.00 312.50,72.00 312.50,59.00 300.00,59.00" /><polygon fill="#ffa700" points="312.50,72.00 325.00,72.00 325.00,59.00 312.50,59.00" /><polygon fill="#ffa700" points="325.00,72.00 337.50,72.00 337.50,59.00 325.00,59.00" /><polygon fill="#ffa700" points="337.50,72.00 350.00,72.00 350.00,59.00 337.50,59.00" /><polygon fill="#ffa700" points="350.00,72.00 362.50,72.00 362.50,59.00 350.00,59.00" /><polygon fill="#ffa700" points="362.50,72.00 375.00,72.00 375.00,59.00 362.50,59.00" /><polygon fill="#ffa700" points="375.00,72.00 387.50,72.00 387.50,59.00 375.00,59.00" /><polygon fill="#ffa700" points="387.50,72.00 400.00,72.00 400.00,59.00 387.50,59.00" /><polygon fill="#ffa700" points="400.00,72.00 412.50,72.00 412.50,59.00 400.00,59.00" /><polygon fill="#ffa700" points="412.50,72.00 425.00,72.00 425.00,59.00 412.50,59.00" /><polygon fill="#ffa700" points="425.00,72.00 437.50,72.00 437.50,59.00 425.00,59.00" /><polygon fill="#ffa700" points="437.50,72.00 450.00,72.00 450.00,59.00 437.50,59.00" /><polygon fill="#ffa700" points="450.00,72.00 462.50,72.00 462.50,59.00 450.00,59.00" /><polygon fill="#ffa700" points="462.50,72.00 475.00,72.00 475.00,59.00 462.50,59.00" /><polygon fill="#ffa700" points="475.00,72.00 487.50,72.00 487.50,59.00 475.00,59.00" /><polygon fill="#ffa700" points="487.50,72.00 500.00,72.00 500.00,59.00 487.50,59.00" /><polygon fill="#ffa700" points="500.00,72.00 512.50,72.00 512.50,59.00 500.00,59.00" /><polygon fill="#ffa700" points="512.50,72.00 525.00,72.00 525.00,59.00 512.50,59.00" /><polygon fill="#ffa700" points="525.00,72.00 537.50,72.00 537.50,59.00 525.00,59.00" /><polygon fill="#ffa700" points="537.50,72.00 550.00,72.00 550.00,59.00 537.50,59.00" /><polygon fill="#ffa700" points="50.00,59.00 62.50,59.00 62.50,46.00 50.00,46.00" /><polygon fill="#ffa700" points="62.50,59.00 75.00,59.00 75.00,46.00 62.50,46.00" /><polygon fill="#ffa700" points="75.00,59.00 87.50,59.00 87.50,46.00 75.00,46.00" /><polygon fill="#ffa700" points="87.50,59.00 100.00,59.00 100.00,46.00 87.50,46.00" /><polygon fill="#ffa700" points="100.00,59.00 112.50,59.00 112.50,46.00 100.00,46.00" /><polygon fill="#ffa700" points="112.50,59.00 125.00,59.00 125.00,46.00 112.50,46.00" /><polygon fill="#ffa700" points="125.00,59.00 137.50,59.00 137.50,46.00 125.00,46.00" /><polygon fill="#ffa700" points="137.50,59.00 150.00,59.00 150.00,46.00 137.50,46.00" /><polygon fill="#ffa700" points="150.00,59.00 162.50,59.00 162.50,46.00 150.00,46.00" /><polygon fill="#ffa700" points="162.50,59.00 175.00,59.00 175.00,46.00 162.50,46.00" /><polygon fill="#ffa700" points="175.00,59.00 187.50,59.00 187.50,46.00 175.00,46.00" /><polygon fill="#ffa700" points="187.50,59.00 200.00,59.00 200.00,46.00 187.50,46.00" /><polygon fill="#ffa700" points="200.00,59.00 212.50,59.00 212.50,46.00 200.00,46.00" /><polygon fill="#ffa700" points="212.50,59.00 225.00,59.00 225.00,46.00 212.50,46.00" /><polygon fill="#ffa700" points="225.00,59.00 237.50,59.00 237.50,46.00 225.00,46.00" /><polygon fill="#ffa700" points="237.50,59.00 250.00,59.00 250.00,46.00 237.50,46.00" /><polygon fill="#ffa700" points="250.00,59.00 262.50,59.00 262.50,46.00 250.00,46.00" /><polygon fill="#ffa700" points="262.50,59.00 275.00,59.00 275.00,46.00 262.50,46.00" /><polygon fill="#ffa700" points="275.00,59.00 287.50,59.00 287.50,46.00 275.00,46.00" /><polygon fill="#ffa700" points="287.50,59.00 300.00,59.00 300.00,46.00 287.50,46.00" /><polygon fill="#ffa700" points="300.00,59.00 312.50,59.00 312.50,46.00 300.00,46.00" /><polygon fill="#ffa700" points="312.50,59.00 325.00,59.00 325.00,46.00 312.50,46.00" /><polygon fill="#ffa700" points="325.00,59.00 337.50,59.00 337.50,46.00 325.00,46.00" /><polygon fill="#ffa700" points="337.50,59.00 350.00,59.00 350.00,46.00 337.50,46.00" /><polygon fill="#ffa700" points="350.00,59.00 362.50,59.00 362.50,46.00 350.00,46.00" /><polygon fill="#ffa700" points="362.50,59.00 375.00,59.00 375.00,46.00 362.50,46.00" /><polygon fill="#ffa700" points="375.00,59.00 387.50,59.00 387.50,46.00 375.00,46.00" /><polygon fill="#ffa700" points="387.50,59.00 400.00,59.00 400.00,46.00 387.50,46.00" /><polygon fill="#ffa700" points="400.00,59.00 412.50,59.00 412.50,46.00 400.00,46.00" /><polygon fill="#ffa700" points="412.50,59.00 425.00,59.00 425.00,46.00 412.50,46.00" /><polygon fill="#ffa700" points="425.00,59.00 437.50,59.00 437.50,46.00 425.00,46.00" /><polygon fill="#ffa700" points="437.50,59.00 450.00,59.00 450.00,46.00 437.50,46.00" /><polygon fill="#ffa700" points="450.00,59.00 462.50,59.00 462.50,46.00 450.00,46.00" /><polygon fill="#ffa700" points="462.50,59.00 475.00,59.00 475.00,46.00 462.50,46.00" /><polygon fill="#ffa700" points="475.00,59.00 487.50,59.00 487.50,46.00 475.00,46.00" /><polygon fill="#ffa700" points="487.50,59.00 500.00,59.00 500.00,46.00 487.50,46.00" /><polygon fill="#ffa700" points="500.00,59.00 512.50,59.00 512.50,46.00 500.00,46.00" /><polygon fill="#ffa700" points="512.50,59.00 525.00,59.00 525.00,46.00 512.50,46.00" /><polygon fill="#ffa700" points="525.00,59.00 537.50,59.00 537.50,46.00 525.00,46.00" /><polygon fill="#ffa700" points="537.50,59.00 550.00,59.00 550.00,46.00 537.50,46.00" /><polygon fill="#ffa700" points="50.00,46.00 62.50,46.00 62.50,33.00 50.00,33.00" /><polygon fill="#ffa700" points="62.50,46.00 75.00,46.00 75.00,33.00 62.50,33.00" /><polygon fill="#ffa700" points="75.00,46.00 87.50,46.00 87.50,33.00 75.00,33.00" /><polygon fill="#ffa700" points="87.50,46.00 100.00,46.00 100.00,33.00 87.50,33.00" /><polygon fill="#ffa700" points="100.00,46.00 112.50,46.00 112.50,33.00 100.00,33.00" /><polygon fill="#ffa700" points="112.50,46.00 125.00,46.00 125.00,33.00 112.50,33.00" /><polygon fill="#ffa700" points="125.00,46.00 137.50,46.00 137.50,33.00 125.00,33.00" /><polygon fill="#ffa700" points="137.50,46.00 150.00,46.00 150.00,33.00 137.50,33.00" /><polygon fill="#ffa700" points="150.00,46.00 162.50,46.00 162.50,33.00 150.00,33.00" /><polygon fill="#ffa700" points="162.50,46.00 175.00,46.00 175.00,33.00 162.50,33.00" /><polygon fill="#ffa700" points="175.00,46.00 187.50,46.00 187.50,33.00 175.00,33.00" /><polygon fill="#ffa700" points="187.50,46.00 200.00,46.00 200.00,33.00 187.50,33.00" /><polygon fill="#ffa700" points="200.00,46.00 212.50,46.00 212.50,33.00 200.00,33.00" /><polygon fill="#ffa700" points="212.50,46.00 225.00,46.00 225.00,33.00 212.50,33.00" /><polygon fill="#ffa700" points="225.00,46.00 237.50,46.00 237.50,33.00 225.00,33.00" /><polygon fill="#ffa700" points="237.50,46.00 250.00,46.00 250.00,33.00 237.50,33.00" /><polygon fill="#ffa700" points="250.00,46.00 262.50,46.00 262.50,33.00 250.00,33.00" /><polygon fill="#ffa700" points="262.50,46.00 275.00,46.00 275.00,33.00 262.50,33.00" /><polygon fill="#ffa700" points="275.00,46.00 287.50,46.00 287.50,33.00 275.00,33.00" /><polygon fill="#ffa700" points="287.50,46.00 300.00,46.00 300.00,33.00 287.50,33.00" /><polygon fill="#ffa700" points="300.00,46.00 312.50,46.00 312.50,33.00 300.00,33.00" /><polygon fill="#ffa700" points="312.50,46.00 325.00,46.00 325.00,33.00 312.50,33.00" /><polygon fill="#ffa700" points="325.00,46.00 337.50,46.00 337.50,33.00 325.00,33.00" /><polygon fill="#ffa700" points="337.50,46.00 350.00,46.00 350.00,33.00 337.50,33.00" /><polygon fill="#ffa700" points="350.00,46.00 362.50,46.00 362.50,33.00 350.00,33.00" /><polygon fill="#ffa700" points="362.50,46.00 375.00,46.00 375.00,33.00 362.50,33.00" /><polygon fill="#ffa700" points="375.00,46.00 387.50,46.00 387.50,33.00 375.00,33.00" /><polygon fill="#ffa700" points="387.50,46.00 400.00,46.00 400.00,33.00 387.50,33.00" /><polygon fill="#ffa700" points="400.00,46.00 412.50,46.00 412.50,33.00 400.00,33.00" /><polygon fill="#ffa700" points="412.50,46.00 425.00,46.00 425.00,33.00 412.50,33.00" /><polygon fill="#ffa700" points="425.00,46.00 437.50,46.00 437.50,33.00 425.00,33.00" /><polygon fill="#ffa700" points="437.50,46.00 450.00,46.00 450.00,33.00 437.50,33.00" /><polygon fill="#ffa700" points="450.00,46.00 462.50,46.00 462.50,33.00 450.00,33.00" /><polygon fill="#ffa700" points="462.50,46.00 475.00,46.00 475.00,33.00 462.50,33.00" /><polygon fill="#ffa700" points="475.00,46.00 487.50,46.00 487.50,33.00 475.00,33.00" /><polygon fill="#ffa700" points="487.50,46.00 500.00,46.00 500.00,33.00 487.50,33.00" /><polygon fill="#ffa700" points="500.00,46.00 512.50,46.00 512.50,33.00 500.00,33.00" /><polygon fill="#ffa700" points="512.50,46.00 525.00,46.00 525.00,33.00 512.50,33.00" /><polygon fill="#ffa700" points="525.00,46.00 537.50,46.00 537.50,33.00 525.00,33.00" /><polygon fill="#ffa700" points="537.50,46.00 550.00,46.00 550.00,33.00 537.50,33.00" /><polygon fill="#ffa700" points="50.00,33.00 62.50,33.00 62.50,20.00 50.00,20.00" /><polygon fill="#ffa700" points="62.50,33.00 75.00,33.00 75.00,20.00 62.50,20.00" /><polygon fill="#ffa700" points="75.00,33.00 87.50,33.00 87.50,20.00 75.00,20.00" /><polygon fill="#ffa700" points="87.50,33.00 100.00,33.00 100.00,20.00 87.50,20.00" /><polygon fill="#ffa700" points="100.00,33.00 112.50,33.00 112.50,20.00 100.00,20.00" /><polygon fill="#ffa700" points="112.50,33.00 125.00,33.00 125.00,20.00 112.50,20.00" /><polygon fill="#ffa700" points="125.00,33.00 137.50,33.00 137.50,20.00 125.00,20.00" /><polygon fill="#ffa700" points="137.50,33.00 150.00,33.00 150.00,20.00 137.50,20.00" /><polygon fill="#ffa700" points="150.00,33.00 162.50,33.00 162.50,20.00 150.00,20.00" /><polygon fill="#ffa700" points="162.50,33.00 175.00,33.00 175.00,20.00 162.50,20.00" /><polygon fill="#ffa700" points="175.00,33.00 187.50,33.00 187.50,20.00 175.00,20.00" /><polygon fill="#ffa700" points="187.50,33.00 200.00,33.00 200.00,20.00 187.50,20.00" /><polygon fill="#ffa700" points="200.00,33.00 212.50,33.00 212.50,20.00 200.00,20.00" /><polygon fill="#ffa700" points="212.50,33.00 225.00,33.00 225.00,20.00 212.50,20.00" /><polygon fill="#ffa700" points="225.00,33.00 237.50,33.00 237.50,20.00 225.00,20.00" /><polygon fill="#ffa700" points="237.50,33.00 250.00,33.00 250.00,20.00 237.50,20.00" /><polygon fill="#ffa700" points="250.00,33.00 262.50,33.00 262.50,20.00 250.00,20.00" /><polygon fill="#ffa700" points="262.50,33.00 275.00,33.00 275.00,20.00 262.50,20.00" /><polygon fill="#ffa700" points="275.00,33.00 287.50,33.00 287.50,20.00 275.00,20.00" /><polygon fill="#ffa700" points="287.50,33.00 300.00,33.00 300.00,20.00 287.50,20.00" /><polygon fill="#ffa700" points="300.00,33.00 312.50,33.00 312.50,20.00 300.00,20.00" /><polygon fill="#ffa700" points="312.50,33.00 325.00,33.00 325.00,20.00 312.50,20.00" /><polygon fill="#ffa700" points="325.00,33.00 337.50,33.00 337.50,20.00 325.00,20.00" /><polygon fill="#ffa700" points="337.50,33.00 350.00,33.00 350.00,20.00 337.50,20.00" /><polygon fill="#ffa700" points="350.00,33.00 362.50,33.00 362.50,20.00 350.00,20.00" /><polygon fill="#ffa700" points="362.50,33.00 375.00,33.00 375.00,20.00 362.50,20.00" /><polygon fill="#ffa700" points="375.00,33.00 387.50,33.00 387.50,20.00 375.00,20.00" /><polygon fill="#ffa700" points="387.50,33.00 400.00,33.00 400.00,20.00 387.50,20.00" /><polygon fill="#ffa700" points="400.00,33.00 412.50,33.00 412.50,20.00 400.00,20.00" /><polygon fill="#ffa700" points="412.50,33.00 425.00,33.00 425.00,20.00 412.50,20.00" /><polygon fill="#ffa700" points="425.00,33.00 437.50,33.00 437.50,20.00 425.00,20.00" /><polygon fill="#ffa700" points="437.50,33.00 450.00,33.00 450.00,20.00 437.50,20.00" /><polygon fill="#ffa700" points="450.00,33.00 462.50,33.00 462.50,20.00 450.00,20.00" /><polygon fill="#ffa700" points="462.50,33.00 475.00,33.00 475.00,20.00 462.50,20.00" /><polygon fill="#ffa700" points="475.00,33.00 487.50,33.00 487.50,20.00 475.00,20.00" /><polygon fill="#ffa700" points="487.50,33.00 500.00,33.00 500.00,20.00 487.50,20.00" /><polygon fill="#ffa700" points="500.00,33.00 512.50,33.00 512.50,20.00 500.00,20.00" /><polygon fill="#ffa700" points="512.50,33.00 525.00,33.00 525.00,20.00 512.50,20.00" /><polygon fill="#ffa700" points="525.00,33.00 537.50,33.00 537.50,20.00 525.00,20.00" /><polygon fill="#ffa700" points="537.50,33.00 550.00,33.00 550.00,20.00 537.50,20.00" /></g><g stroke="black"><line x1="50.00" x2="50.00" y1="280.00" y2="290.00" /><line x1="175.00" x2="175.00" y1="280.00" y2="290.00" /><line x1="300.00" x2="300.00" y1="280.00" y2="290.00" /><line x1="425.00" x2="425.00" y1="280.00" y2="290.00" /><line x1="550.00" x2="550.00" y1="280.00" y2="290.00" /><line x1="112.50" x2="112.50" y1="280.00" y2="285.00" /><line x1="237.50" x2="237.50" y1="280.00" y2="285.00" /><line x1="362.50" x2="362.50" y1="280.00" y2="285.00" /><line x1="487.50" x2="487.50" y1="280.00" y2="285.00" /><g fill="black" font-family="Arial, sans-serif" font-size="10" stroke="none" text-anchor="middle"><text x="50.00" y="300.00">0.00</text><text x="175.00" y="300.00">10.00</text><text x="300.00" y="300.00">20.00</text><text x="425.00" y="300.00">30.00</text><text x="550.00" y="300.00">40.00</text></g><line x1="50.00" x2="550.00" y1="280.00" y2="280.00" /></g><g stroke="black"><line x1="50.00" x2="40.00" y1="280.00" y2="280.00" /><line x1="50.00" x2="40.00" y1="150.00" y2="150.00" /><line x1="50.00" x2="40.00" y1="20.00" y2="20.00" /><g fill="black" font-family="Arial, sans-serif" font-size="10" stroke="none" text-anchor="end"><text x="35.00" y="280.00">0.00</text><text x="35.00" y="150.00">10.00</text><text x="35.00" y="20.00">20.00</text></g><line x1="50.00" x2="50.00" y1="280.00" y2="20.00" /></g></g></svg>