<?xml version="1.0"?>
<svg height="600" version="1.1" width="600" xmlns:xlink="http://www.w3.org/1999/xlink" xmlns="http://www.w3.org/2000/svg"><g><g stroke-dasharray="1 1" stroke="#caa"><line x1="536.75" x2="536.75" y1="550.00" y2="20.00" /><line x1="510.25" x2="510.25" y1="550.00" y2="20.00" /><line x1="483.75" x2="483.75" y1="550.00" y2="20.00" /><line x1="457.25" x2="457.25" y1="550.00" y2="20.00" /><line x1="430.75" x2="430.75" y1="550.00" y2="20.00" /><line x1="404.25" x2="404.25" y1="550.00" y2="20.00" /><line x1="377.75" x2="377.75" y1="550.00" y2="20.00" /><line x1="351.25" x2="351.25" y1="550.00" y2="20.00" /><line x1="324.75" x2="324.75" y1="550.00" y2="20.00" /><line x1="298.25" x2="298.25" y1="550.00" y2="20.00" /><line x1="271.75" x2="271.75" y1="550.00" y2="20.00" /><line x1="245.25" x2="245.25" y1="550.00" y2="20.00" /><line x1="218.75" x2="218.75" y1="550.00" y2="20.00" /><line x1="192.25" x2="192.25" y1="550.00" y2="20.00" /><line x1="165.75" x2="165.75" y1="550.00" y2="20.00" /><line x1="139.25" x2="139.25" y1="550.00" y2="20.00" /><line x1="112.75" x2="112.75" y1="550.00" y2="20.00" /><line x1="86.25" x2="86.25" y1="550.00" y2="20.00" /><line x1="59.75" x2="59.75" y1="550.00" y2="20.00" /><line x1="33.25" x2="33.25" y1="550.00" y2="20.00" /><line x1="550.00" x2="550.00" y1="550.00" y2="20.00" /><line x1="523.50" x2="523.50" y1="550.00" y2="20.00" /><line x1="497.00" x2="497.00" y1="550.00" y2="20.00" /><line x1="470.50" x2="470.50" y1="550.00" y2="20.00" /><line x1="444.00" x2="444.00" y1="550.00" y2="20.00" /><line x1="417.50" x2="417.50" y1="550.00" y2="20.00" /><line x1="391.00" x2="391.00" y1="550.00" y2="20.00" /><line x1="364.50" x2="364.50" y1="550.00" y2="20.00" /><line x1="338.00" x2="338.00" y1="550.00" y2="20.00" /><line x1="311.50" x2="311.50" y1="550.00" y2="20.00" /><line x1="285.00" x2="285.00" y1="550.00" y2="20.00" /><line x1="258.50" x2="258.50" y1="550.00" y2="20.00" /><line x1="232.00" x2="232.00" y1="550.00" y2="20.00" /><line x1="205.50" x2="205.50" y1="550.00" y2="20.00" /><line x1="179.00" x2="179.00" y1="550.00" y2="20.00" /><line x1="152.50" x2="152.50" y1="550.00" y2="20.00" /><line x1="126.00" x2="126.00" y1="550.00" y2="20.00" /><line x1="99.50" x2="99.50" y1="550.00" y2="20.00" /><line x1="73.00" x2="73.00" y1="550.00" y2="20.00" /><line x1="46.50" x2="46.50" y1="550.00" y2="20.00" /><line x1="20.00" x2="20.00" y1="550.00" y2="20.00" /><line x1="550.00" x2="20.00" y1="536.75" y2="536.75" /><line x1="550.00" x2="20.00" y1="510.25" y2="510.25" /><line x1="550.00" x2="20.00" y1="483.75" y2="483.75" /><line x1="550.00" x2="20.00" y1="457.25" y2="457.25" /><line x1="550.00" x2="20.00" y1="430.75" y2="430.75" /><line x1="550.00" x2="20.00" y1="404.25" y2="404.25" /><line x1="550.00" x2="20.00" y1="377.75" y2="377.75" /><line x1="550.00" x2="20.00" y1="351.25" y2="351.25" /><line x1="550.00" x2="20.00" y1="324.75" y2="324.75" /><line x1="550.00" x2="20.00" y1="298.25" y2="298.25" /><line x1="550.00" x2="20.00" y1="271.75" y2="271.75" /><line x1="550.00" x2="20.00" y1="245.25" y2="245.25" /><line x1="550.00" x2="20.00" y1="218.75" y2="218.75" /><line x1="550.00" x2="20.00" y1="192.25" y2="192.25" /><line x1="550.00" x2="20.00" y1="165.75" y2="165.75" /><line x1="550.00" x2="20.00" y1="139.25" y2="139.25" /><line x1="550.00" x2="20.00" y1="112.75" y2="112.75" /><line x1="550.00" x2="20.00" y1="86.25" y2="86.25" /><line x1="550.00" x2="20.00" y1="59.75" y2="59.75" /><line x1="550.00" x2="20.00" y1="33.25" y2="33.25" /><line x1="550.00" x2="20.00" y1="550.00" y2="550.00" /><line x1="550.00" x2="20.00" y1="523.50" y2="523.50" /><line x1="550.00" x2="20.00" y1="497.00" y2="497.00" /><line x1="550.00" x2="20.00" y1="470.50" y2="470.50" /><line x1="550.00" x2="20.00" y1="444.00" y2="444.00" /><line x1="550.00" x2="20.00" y1="417.50" y2="417.50" /><line x1="550.00" x2="20.00" y1="391.00" y2="391.00" /><line x1="550.00" x2="20.00" y1="364.50" y2="364.50" /><line x1="550.00" x2="20.00" y1="338.00" y2="338.00" /><line x1="550.00" x2="20.00" y1="311.50" y2="311.50" /><line x1="550.00" x2="20.00" y1="285.00" y2="285.00" /><line x1="550.00" x2="20.00" y1="258.50" y2="258.50" /><line x1="550.00" x2="20.00" y1="232.00" y2="232.00" /><line x1="550.00" x2="20.00" y1="205.50" y2="205.50" /><line x1="550.00" x2="20.00" y1="179.00" y2="179.00" /><line x1="550.00" x2="20.00" y1="152.50" y2="152.50" /><line x1="550.00" x2="20.00" y1="126.00" y2="126.00" /><line x1="550.00" x2="20.00" y1="99.50" y2="99.50" /><line x1="550.00" x2="20.00" y1="73.00" y2="73.00" /><line x1="550.00" x2="20.00" y1="46.50" y2="46.50" /><line x1="550.00" x2="20.00" y1="20.00" y2="20.00" /></g><g fill="#0af" stroke="none"><circle cx="431.45" cy="135.14" r="3" /><circle cx="423.25" cy="153.12" r="3" /><circle cx="421.49" cy="167.28" r="3" /><circle cx="416.25" cy="132.39" r="3" /><circle cx="413.88" cy="117.02" r="3" /><circle cx="408.26" cy="146.76" r="3" /><circle cx="404.07" cy="184.82" r="3" /><circle cx="400.74" cy="95.72" r="3" /><circle cx="398.90" cy="165.06" r="3" /><circle cx="394.24" cy="131.31" r="3" /><circle cx="391.35" cy="108.19" r="3" /><circle cx="385.52" cy="91.99" r="3" /><circle cx="382.63" cy="196.99" r="3" /><circle cx="381.46" cy="450.62" r="3" /><circle cx="380.11" cy="183.48" r="3" /><circle cx="376.88" cy="213.15" r="3" /><circle cx="375.77" cy="118.32" r="3" /><circle cx="375.16" cy="165.47" r="3" /><circle cx="372.33" cy="412.48" r="3" /><circle cx="371.46" cy="432.39" r="3" /><circle cx="365.96" cy="454.75" r="3" /><circle cx="364.76" cy="180.40" r="3" /><circle cx="361.19" cy="474.61" r="3" /><circle cx="360.13" cy="158.29" r="3" /><circle cx="358.60" cy="196.51" r="3" /><circle cx="357.10" cy="406.52" r="3" /><circle cx="356.04" cy="492.07" r="3" /><circle cx="355.94" cy="443.54" r="3" /><circle cx="355.67" cy="425.12" r="3" /><circle cx="355.46" cy="142.67" r="3" /><circle cx="355.07" cy="213.34" r="3" /><circle cx="350.36" cy="170.39" r="3" /><circle cx="346.13" cy="127.64" r="3" /><circle cx="345.02" cy="479.23" r="3" /><circle cx="341.87" cy="204.04" r="3" /><circle cx="341.03" cy="154.09" r="3" /><circle cx="339.78" cy="186.51" r="3" /><circle cx="338.43" cy="433.36" r="3" /><circle cx="337.84" cy="449.24" r="3" /><circle cx="336.09" cy="495.28" r="3" /><circle cx="335.75" cy="412.53" r="3" /><circle cx="334.04" cy="137.41" r="3" /><circle cx="328.37" cy="464.92" r="3" /><circle cx="325.54" cy="482.43" r="3" /><circle cx="323.24" cy="423.95" r="3" /><circle cx="319.48" cy="191.17" r="3" /><circle cx="319.20" cy="438.76" r="3" /><circle cx="318.77" cy="172.99" r="3" /><circle cx="318.36" cy="207.20" r="3" /><circle cx="316.04" cy="453.08" r="3" /><circle cx="314.11" cy="146.84" r="3" /><circle cx="312.82" cy="494.07" r="3" /><circle cx="308.03" cy="469.39" r="3" /><circle cx="306.46" cy="161.98" r="3" /><circle cx="304.30" cy="399.38" r="3" /><circle cx="302.95" cy="181.79" r="3" /><circle cx="300.64" cy="436.62" r="3" /><circle cx="300.62" cy="418.03" r="3" /><circle cx="297.08" cy="451.98" r="3" /><circle cx="288.84" cy="474.35" r="3" /><circle cx="284.32" cy="436.64" r="3" /><circle cx="243.36" cy="310.15" r="3" /><circle cx="239.85" cy="346.47" r="3" /><circle cx="235.66" cy="121.11" r="3" /><circle cx="230.91" cy="269.16" r="3" /><circle cx="228.80" cy="315.06" r="3" /><circle cx="228.79" cy="299.82" r="3" /><circle cx="224.73" cy="322.06" r="3" /><circle cx="222.82" cy="329.88" r="3" /><circle cx="217.81" cy="279.13" r="3" /><circle cx="201.68" cy="246.45" r="3" /><circle cx="200.31" cy="163.10" r="3" /><circle cx="195.45" cy="289.77" r="3" /><circle cx="195.23" cy="264.27" r="3" /><circle cx="185.63" cy="306.62" r="3" /><circle cx="185.11" cy="240.80" r="3" /><circle cx="181.98" cy="491.32" r="3" /><circle cx="180.82" cy="268.76" r="3" /><circle cx="178.71" cy="225.44" r="3" /><circle cx="174.47" cy="345.14" r="3" /><circle cx="170.08" cy="302.65" r="3" /><circle cx="166.49" cy="315.86" r="3" /><circle cx="166.37" cy="254.24" r="3" /><circle cx="165.89" cy="335.01" r="3" /><circle cx="164.04" cy="271.43" r="3" /><circle cx="157.19" cy="349.81" r="3" /><circle cx="154.12" cy="299.25" r="3" /><circle cx="151.87" cy="314.20" r="3" /><circle cx="151.23" cy="247.77" r="3" /><circle cx="146.59" cy="331.93" r="3" /><circle cx="141.98" cy="271.23" r="3" /><circle cx="137.51" cy="315.54" r="3" /><circle cx="135.29" cy="104.81" r="3" /><circle cx="129.96" cy="251.82" r="3" /><circle cx="121.12" cy="281.12" r="3" /><circle cx="120.40" cy="296.71" r="3" /></g><g stroke="black"><line x1="550.00" x2="550.00" y1="50.00" y2="60.00" /><line x1="523.50" x2="523.50" y1="50.00" y2="60.00" /><line x1="497.00" x2="497.00" y1="50.00" y2="60.00" /><line x1="470.50" x2="470.50" y1="50.00" y2="60.00" /><line x1="444.00" x2="444.00" y1="50.00" y2="60.00" /><line x1="417.50" x2="417.50" y1="50.00" y2="60.00" /><line x1="391.00" x2="391.00" y1="50.00" y2="60.00" /><line x1="364.50" x2="364.50" y1="50.00" y2="60.00" /><line x1="338.00" x2="338.00" y1="50.00" y2="60.00" /><line x1="311.50" x2="311.50" y1="50.00" y2="60.00" /><line x1="285.00" x2="285.00" y1="50.00" y2="60.00" /><line x1="258.50" x2="258.50" y1="50.00" y2="60.00" /><line x1="232.00" x2="232.00" y1="50.00" y2="60.00" /><line x1="205.50" x2="205.50" y1="50.00" y2="60.00" /><line x1="179.00" x2="179.00" y1="50.00" y2="60.00" /><line x1="152.50" x2="152.50" y1="50.00" y2="60.00" /><line x1="126.00" x2="126.00" y1="50.00" y2="60.00" /><line x1="99.50" x2="99.50" y1="50.00" y2="60.00" /><line x1="73.00" x2="73.00" y1="50.00" y2="60.00" /><line x1="46.50" x2="46.50" y1="50.00" y2="60.00" /><line x1="20.00" x2="20.00" y1="50.00" y2="60.00" /><line x1="536.75" x2="536.75" y1="50.00" y2="55.00" /><line x1="510.25" x2="510.25" y1="50.00" y2="55.00" /><line x1="483.75" x2="483.75" y1="50.00" y2="55.00" /><line x1="457.25" x2="457.25" y1="50.00" y2="55.00" /><line x1="430.75" x2="430.75" y1="50.00" y2="55.00" /><line x1="404.25" x2="404.25" y1="50.00" y2="55.00" /><line x1="377.75" x2="377.75" y1="50.00" y2="55.00" /><line x1="351.25" x2="351.25" y1="50.00" y2="55.00" /><line x1="324.75" x2="324.75" y1="50.00" y2="55.00" /><line x1="298.25" x2="298.25" y1="50.00" y2="55.00" /><line x1="271.75" x2="271.75" y1="50.00" y2="55.00" /><line x1="245.25" x2="245.25" y1="50.00" y2="55.00" /><line x1="218.75" x2="218.75" y1="50.00" y2="55.00" /><line x1="192.25" x2="192.25" y1="50.00" y2="55.00" /><line x1="165.75" x2="165.75" y1="50.00" y2="55.00" /><line x1="139.25" x2="139.25" y1="50.00" y2="55.00" /><line x1="112.75" x2="112.75" y1="50.00" y2="55.00" /><line x1="86.25" x2="86.25" y1="50.00" y2="55.00" /><line x1="59.75" x2="59.75" y1="50.00" y2="55.00" /><line x1="33.25" x2="33.25" y1="50.00" y2="55.00" /><g fill="black" font-family="Arial, sans-serif" font-size="10" stroke="none" text-anchor="end"><text x="550.00" y="65.00">-100.00</text><text x="523.50" y="65.00">-90.00</text><text x="497.00" y="65.00">-80.00</text><text x="470.50" y="65.00">-70.00</text><text x="444.00" y="65.00">-60.00</text><text x="417.50" y="65.00">-50.00</text><text x="391.00" y="65.00">-40.00</text><text x="364.50" y="65.00">-30.00</text><text x="338.00" y="65.00">-20.00</text><text x="311.50" y="65.00">-10.00</text><text x="285.00" y="65.00">0.00</text><text x="258.50" y="65.00">10.00</text><text x="232.00" y="65.00">20.00</text><text x="205.50" y="65.00">30.00</text><text x="179.00" y="65.00">40.00</text><text x="152.50" y="65.00">50.00</text><text x="126.00" y="65.00">60.00</text><text x="99.50" y="65.00">70.00</text><text x="73.00" y="65.00">80.00</text><text x="46.50" y="65.00">90.00</text><text x="20.00" y="65.00">100.00</text></g><line x1="550.00" x2="20.00" y1="50.00" y2="50.00" /></g><g stroke="black"><line x1="50.00" x2="40.00" y1="550.00" y2="550.00" /><line x1="50.00" x2="40.00" y1="523.50" y2="523.50" /><line x1="50.00" x2="40.00" y1="497.00" y2="497.00" /><line x1="50.00" x2="40.00" y1="470.50" y2="470.50" /><line x1="50.00" x2="40.00" y1="444.00" y2="444.00" /><line x1="50.00" x2="40.00" y1="417.50" y2="417.50" /><line x1="50.00" x2="40.00" y1="391.00" y2="391.00" /><line x1="50.00" x2="40.00" y1="364.50" y2="364.50" /><line x1="50.00" x2="40.00" y1="338.00" y2="338.00" /><line x1="50.00" x2="40.00" y1="311.50" y2="311.50" /><line x1="50.00" x2="40.00" y1="285.00" y2="285.00" /><line x1="50.00" x2="40.00" y1="258.50" y2="258.50" /><line x1="50.00" x2="40.00" y1="232.00" y2="232.00" /><line x1="50.00" x2="40.00" y1="205.50" y2="205.50" /><line x1="50.00" x2="40.00" y1="179.00" y2="179.00" /><line x1="50.00" x2="40.00" y1="152.50" y2="152.50" /><line x1="50.00" x2="40.00" y1="126.00" y2="126.00" /><line x1="50.00" x2="40.00" y1="99.50" y2="99.50" /><line x1="50.00" x2="40.00" y1="73.00" y2="73.00" /><line x1="50.00" x2="40.00" y1="46.50" y2="46.50" /><line x1="50.00" x2="40.00" y1="20.00" y2="20.00" /><line x1="50.00" x2="45.00" y1="536.75" y2="536.75" /><line x1="50.00" x2="45.00" y1="510.25" y2="510.25" /><line x1="50.00" x2="45.00" y1="483.75" y2="483.75" /><line x1="50.00" x2="45.00" y1="457.25" y2="457.25" /><line x1="50.00" x2="45.00" y1="430.75" y2="430.75" /><line x1="50.00" x2="45.00" y1="404.25" y2="404.25" /><line x1="50.00" x2="45.00" y1="377.75" y2="377.75" /><line x1="50.00" x2="45.00" y1="351.25" y2="351.25" /><line x1="50.00" x2="45.00" y1="324.75" y2="324.75" /><line x1="50.00" x2="45.00" y1="298.25" y2="298.25" /><line x1="50.00" x2="45.00" y1="271.75" y2="271.75" /><line x1="50.00" x2="45.00" y1="245.25" y2="245.25" /><line x1="50.00" x2="45.00" y1="218.75" y2="218.75" /><line x1="50.00" x2="45.00" y1="192.25" y2="192.25" /><line x1="50.00" x2="45.00" y1="165.75" y2="165.75" /><line x1="50.00" x2="45.00" y1="139.25" y2="139.25" /><line x1="50.00" x2="45.00" y1="112.75" y2="112.75" /><line x1="50.00" x2="45.00" y1="86.25" y2="86.25" /><line x1="50.00" x2="45.00" y1="59.75" y2="59.75" /><line x1="50.00" x2="45.00" y1="33.25" y2="33.25" /><g fill="black" font-family="Arial, sans-serif" font-size="10" stroke="none" text-anchor="end"><text x="35.00" y="550.00">-100.00</text><text x="35.00" y="523.50">-90.00</text><text x="35.00" y="497.00">-80.00</text><text x="35.00" y="470.50">-70.00</text><text x="35.00" y="444.00">-60.00</text><text x="35.00" y="417.50">-50.00</text><text x="35.00" y="391.00">-40.00</text><text x="35.00" y="364.50">-30.00</text><text x="35.00" y="338.00">-20.00</text><text x="35.00" y="311.50">-10.00</text><text x="35.00" y="285.00">0.00</text><text x="35.00" y="258.50">10.00</text><text x="35.00" y="232.00">20.00</text><text x="35.00" y="205.50">30.00</text><text x="35.00" y="179.00">40.00</text><text x="35.00" y="152.50">50.00</text><text x="35.00" y="126.00">60.00</text><text x="35.00" y="99.50">70.00</text><text x="35.00" y="73.00">80.00</text><text x="35.00" y="46.50">90.00</text><text x="35.00" y="20.00">100.00</text></g><line x1="50.00" x2="50.00" y1="550.00" y2="20.00" /></g></g></svg>