<?xml version="1.0"?>
<svg height="600" version="1.1" width="600" xmlns:xlink="http://www.w3.org/1999/xlink" xmlns="http://www.w3.org/2000/svg"><g><g stroke-dasharray="1 1" stroke="#caa"><line x1="536.75" x2="536.75" y1="550.00" y2="20.00" /><line x1="510.25" x2="510.25" y1="550.00" y2="20.00" /><line x1="483.75" x2="483.75" y1="550.00" y2="20.00" /><line x1="457.25" x2="457.25" y1="550.00" y2="20.00" /><line x1="430.75" x2="430.75" y1="550.00" y2="20.00" /><line x1="404.25" x2="404.25" y1="550.00" y2="20.00" /><line x1="377.75" x2="377.75" y1="550.00" y2="20.00" /><line x1="351.25" x2="351.25" y1="550.00" y2="20.00" /><line x1="324.75" x2="324.75" y1="550.00" y2="20.00" /><line x1="298.25" x2="298.25" y1="550.00" y2="20.00" /><line x1="271.75" x2="271.75" y1="550.00" y2="20.00" /><line x1="245.25" x2="245.25" y1="550.00" y2="20.00" /><line x1="218.75" x2="218.75" y1="550.00" y2="20.00" /><line x1="192.25" x2="192.25" y1="550.00" y2="20.00" /><line x1="165.75" x2="165.75" y1="550.00" y2="20.00" /><line x1="139.25" x2="139.25" y1="550.00" y2="20.00" /><line x1="112.75" x2="112.75" y1="550.00" y2="20.00" /><line x1="86.25" x2="86.25" y1="550.00" y2="20.00" /><line x1="59.75" x2="59.75" y1="550.00" y2="20.00" /><line x1="33.25" x2="33.25" y1="550.00" y2="20.00" /><line x1="550.00" x2="550.00" y1="550.00" y2="20.00" /><line x1="523.50" x2="523.50" y1="550.00" y2="20.00" /><line x1="497.00" x2="497.00" y1="550.00" y2="20.00" /><line x1="470.50" x2="470.50" y1="550.00" y2="20.00" /><line x1="444.00" x2="444.00" y1="550.00" y2="20.00" /><line x1="417.50" x2="417.50" y1="550.00" y2="20.00" /><line x1="391.00" x2="391.00" y1="550.00" y2="20.00" /><line x1="364.50" x2="364.50" y1="550.00" y2="20.00" /><line x1="338.00" x2="338.00" y1="550.00" y2="20.00" /><line x1="311.50" x2="311.50" y1="550.00" y2="20.00" /><line x1="285.00" x2="285.00" y1="550.00" y2="20.00" /><line x1="258.50" x2="258.50" y1="550.00" y2="20.00" /><line x1="232.00" x2="232.00" y1="550.00" y2="20.00" /><line x1="205.50" x2="205.50" y1="550.00" y2="20.00" /><line x1="179.00" x2="179.00" y1="550.00" y2="20.00" /><line x1="152.50" x2="152.50" y1="550.00" y2="20.00" /><line x1="126.00" x2="126.00" y1="550.00" y2="20.00" /><line x1="99.50" x2="99.50" y1="550.00" y2="20.00" /><line x1="73.00" x2="73.00" y1="550.00" y2="20.00" /><line x1="46.50" x2="46.50" y1="550.00" y2="20.00" /><line x1="20.00" x2="20.00" y1="550.00" y2="20.00" /><line x1="550.00" x2="20.00" y1="536.75" y2="536.75" /><line x1="550.00" x2="20.00" y1="510.25" y2="510.25" /><line x1="550.00" x2="20.00" y1="483.75" y2="483.75" /><line x1="550.00" x2="20.00" y1="457.25" y2="457.25" /><line x1="550.00" x2="20.00" y1="430.75" y2="430.75" /><line x1="550.00" x2="20.00" y1="404.25" y2="404.25" /><line x1="550.00" x2="20.00" y1="377.75" y2="377.75" /><line x1="550.00" x2="20.00" y1="351.25" y2="351.25" /><line x1="550.00" x2="20.00" y1="324.75" y2="324.75" /><line x1="550.00" x2="20.00" y1="298.25" y2="298.25" /><line x1="550.00" x2="20.00" y1="271.75" y2="271.75" /><line x1="550.00" x2="20.00" y1="245.25" y2="245.25" /><line x1="550.00" x2="20.00" y1="218.75" y2="218.75" /><line x1="550.00" x2="20.00" y1="192.25" y2="192.25" /><line x1="550.00" x2="20.00" y1="165.75" y2="165.75" /><line x1="550.00" x2="20.00" y1="139.25" y2="139.25" /><line x1="550.00" x2="20.00" y1="112.75" y2="112.75" /><line x1="550.00" x2="20.00" y1="86.25" y2="86.25" /><line x1="550.00" x2="20.00" y1="59.75" y2="59.75" /><line x1="550.00" x2="20.00" y1="33.25" y2="33.25" /><line x1="550.00" x2="20.00" y1="550.00" y2="550.00" /><line x1="550.00" x2="20.00" y1="523.50" y2="523.50" /><line x1="550.00" x2="20.00" y1="497.00" y2="497.00" /><line x1="550.00" x2="20.00" y1="470.50" y2="470.50" /><line x1="550.00" x2="20.00" y1="444.00" y2="444.00" /><line x1="550.00" x2="20.00" y1="417.50" y2="417.50" /><line x1="550.00" x2="20.00" y1="391.00" y2="391.00" /><line x1="550.00" x2="20.00" y1="364.50" y2="364.50" /><line x1="550.00" x2="20.00" y1="338.00" y2="338.00" /><line x1="550.00" x2="20.00" y1="311.50" y2="311.50" /><line x1="550.00" x2="20.00" y1="285.00" y2="285.00" /><line x1="550.00" x2="20.00" y1="258.50" y2="258.50" /><line x1="550.00" x2="20.00" y1="232.00" y2="232.00" /><line x1="550.00" x2="20.00" y1="205.50" y2="205.50" /><line x1="550.00" x2="20.00" y1="179.00" y2="179.00" /><line x1="550.00" x2="20.00" y1="152.50" y2="152.50" /><line x1="550.00" x2="20.00" y1="126.00" y2="126.00" /><line x1="550.00" x2="20.00" y1="99.50" y2="99.50" /><line x1="550.00" x2="20.00" y1="73.00" y2="73.00" /><line x1="550.00" x2="20.00" y1="46.50" y2="46.50" /><line x1="550.00" x2="20.00" y1="20.00" y2="20.00" /></g><g fill="#0af" stroke="none"><circle cx="474.87" cy="128.97" r="3" /><circle cx="470.09" cy="141.84" r="3" /><circle cx="464.69" cy="118.66" r="3" /><circle cx="462.48" cy="161.04" r="3" /><circle cx="452.77" cy="136.38" r="3" /><circle cx="444.17" cy="164.08" r="3" /><circle cx="441.40" cy="118.46" r="3" /><circle cx="441.32" cy="142.54" r="3" /><circle cx="433.77" cy="132.28" r="3" /><circle cx="427.46" cy="114.60" r="3" /><circle cx="417.31" cy="139.96" r="3" /><circle cx="410.72" cy="86.93" r="3" /><circle cx="407.63" cy="151.36" r="3" /><circle cx="401.47" cy="97.81" r="3" /><circle cx="400.51" cy="114.48" r="3" /><circle cx="397.96" cy="80.73" r="3" /><circle cx="393.82" cy="131.99" r="3" /><circle cx="393.64" cy="177.77" r="3" /><circle cx="391.34" cy="161.62" r="3" /><circle cx="391.17" cy="468.33" r="3" /><circle cx="390.07" cy="499.98" r="3" /><circle cx="388.64" cy="103.83" r="3" /><circle cx="387.07" cy="147.29" r="3" /><circle cx="385.38" cy="119.97" r="3" /><circle cx="382.56" cy="512.68" r="3" /><circle cx="382.52" cy="479.76" r="3" /><circle cx="377.90" cy="176.48" r="3" /><circle cx="376.96" cy="135.70" r="3" /><circle cx="376.34" cy="93.41" r="3" /><circle cx="374.41" cy="451.27" r="3" /><circle cx="370.45" cy="500.16" r="3" /><circle cx="370.32" cy="120.69" r="3" /><circle cx="370.02" cy="157.34" r="3" /><circle cx="368.60" cy="107.24" r="3" /><circle cx="366.70" cy="466.23" r="3" /><circle cx="364.12" cy="519.26" r="3" /><circle cx="362.47" cy="169.46" r="3" /><circle cx="361.44" cy="135.70" r="3" /><circle cx="361.34" cy="484.10" r="3" /><circle cx="357.10" cy="457.02" r="3" /><circle cx="355.49" cy="496.71" r="3" /><circle cx="354.34" cy="439.04" r="3" /><circle cx="353.41" cy="154.37" r="3" /><circle cx="353.41" cy="472.90" r="3" /><circle cx="350.56" cy="126.65" r="3" /><circle cx="349.20" cy="513.79" r="3" /><circle cx="344.39" cy="168.12" r="3" /><circle cx="344.21" cy="456.27" r="3" /><circle cx="343.19" cy="485.11" r="3" /><circle cx="341.93" cy="499.49" r="3" /><circle cx="340.38" cy="429.12" r="3" /><circle cx="339.14" cy="470.88" r="3" /><circle cx="332.22" cy="442.88" r="3" /><circle cx="325.34" cy="514.98" r="3" /><circle cx="324.36" cy="456.70" r="3" /><circle cx="324.31" cy="487.61" r="3" /><circle cx="317.95" cy="435.93" r="3" /><circle cx="317.73" cy="501.31" r="3" /><circle cx="317.30" cy="471.29" r="3" /><circle cx="309.20" cy="458.61" r="3" /><circle cx="192.94" cy="311.06" r="3" /><circle cx="184.74" cy="296.73" r="3" /><circle cx="174.86" cy="319.56" r="3" /><circle cx="168.95" cy="338.49" r="3" /><circle cx="168.39" cy="269.79" r="3" /><circle cx="165.26" cy="294.45" r="3" /><circle cx="162.71" cy="325.89" r="3" /><circle cx="162.57" cy="308.20" r="3" /><circle cx="157.48" cy="253.35" r="3" /><circle cx="151.40" cy="338.09" r="3" /><circle cx="150.35" cy="296.06" r="3" /><circle cx="149.51" cy="318.45" r="3" /><circle cx="148.38" cy="266.03" r="3" /><circle cx="146.64" cy="246.53" r="3" /><circle cx="136.56" cy="277.46" r="3" /><circle cx="136.37" cy="235.49" r="3" /><circle cx="134.38" cy="289.56" r="3" /><circle cx="133.26" cy="258.95" r="3" /><circle cx="129.29" cy="303.81" r="3" /><circle cx="126.02" cy="275.79" r="3" /><circle cx="122.95" cy="329.98" r="3" /><circle cx="115.94" cy="313.52" r="3" /><circle cx="113.94" cy="253.19" r="3" /><circle cx="108.39" cy="272.69" r="3" /><circle cx="105.68" cy="289.36" r="3" /><circle cx="104.18" cy="315.81" r="3" /><circle cx="101.91" cy="302.61" r="3" /><circle cx="95.65" cy="277.16" r="3" /><circle cx="94.73" cy="260.47" r="3" /><circle cx="83.41" cy="281.82" r="3" /><circle cx="77.34" cy="263.68" r="3" /><circle cx="77.04" cy="309.72" r="3" /><circle cx="75.73" cy="296.04" r="3" /><circle cx="64.36" cy="270.63" r="3" /><circle cx="62.19" cy="256.20" r="3" /><circle cx="53.10" cy="277.13" r="3" /></g><g stroke="black"><line x1="550.00" x2="550.00" y1="50.00" y2="60.00" /><line x1="523.50" x2="523.50" y1="50.00" y2="60.00" /><line x1="497.00" x2="497.00" y1="50.00" y2="60.00" /><line x1="470.50" x2="470.50" y1="50.00" y2="60.00" /><line x1="444.00" x2="444.00" y1="50.00" y2="60.00" /><line x1="417.50" x2="417.50" y1="50.00" y2="60.00" /><line x1="391.00" x2="391.00" y1="50.00" y2="60.00" /><line x1="364.50" x2="364.50" y1="50.00" y2="60.00" /><line x1="338.00" x2="338.00" y1="50.00" y2="60.00" /><line x1="311.50" x2="311.50" y1="50.00" y2="60.00" /><line x1="285.00" x2="285.00" y1="50.00" y2="60.00" /><line x1="258.50" x2="258.50" y1="50.00" y2="60.00" /><line x1="232.00" x2="232.00" y1="50.00" y2="60.00" /><line x1="205.50" x2="205.50" y1="50.00" y2="60.00" /><line x1="179.00" x2="179.00" y1="50.00" y2="60.00" /><line x1="152.50" x2="152.50" y1="50.00" y2="60.00" /><line x1="126.00" x2="126.00" y1="50.00" y2="60.00" /><line x1="99.50" x2="99.50" y1="50.00" y2="60.00" /><line x1="73.00" x2="73.00" y1="50.00" y2="60.00" /><line x1="46.50" x2="46.50" y1="50.00" y2="60.00" /><line x1="20.00" x2="20.00" y1="50.00" y2="60.00" /><line x1="536.75" x2="536.75" y1="50.00" y2="55.00" /><line x1="510.25" x2="510.25" y1="50.00" y2="55.00" /><line x1="483.75" x2="483.75" y1="50.00" y2="55.00" /><line x1="457.25" x2="457.25" y1="50.00" y2="55.00" /><line x1="430.75" x2="430.75" y1="50.00" y2="55.00" /><line x1="404.25" x2="404.25" y1="50.00" y2="55.00" /><line x1="377.75" x2="377.75" y1="50.00" y2="55.00" /><line x1="351.25" x2="351.25" y1="50.00" y2="55.00" /><line x1="324.75" x2="324.75" y1="50.00" y2="55.00" /><line x1="298.25" x2="298.25" y1="50.00" y2="55.00" /><line x1="271.75" x2="271.75" y1="50.00" y2="55.00" /><line x1="245.25" x2="245.25" y1="50.00" y2="55.00" /><line x1="218.75" x2="218.75" y1="50.00" y2="55.00" /><line x1="192.25" x2="192.25" y1="50.00" y2="55.00" /><line x1="165.75" x2="165.75" y1="50.00" y2="55.00" /><line x1="139.25" x2="139.25" y1="50.00" y2="55.00" /><line x1="112.75" x2="112.75" y1="50.00" y2="55.00" /><line x1="86.25" x2="86.25" y1="50.00" y2="55.00" /><line x1="59.75" x2="59.75" y1="50.00" y2="55.00" /><line x1="33.25" x2="33.25" y1="50.00" y2="55.00" /><g fill="black" font-family="Arial, sans-serif" font-size="10" stroke="none" text-anchor="end"><text x="550.00" y="65.00">-100.00</text><text x="523.50" y="65.00">-90.00</text><text x="497.00" y="65.00">-80.00</text><text x="470.50" y="65.00">-70.00</text><text x="444.00" y="65.00">-60.00</text><text x="417.50" y="65.00">-50.00</text><text x="391.00" y="65.00">-40.00</text><text x="364.50" y="65.00">-30.00</text><text x="338.00" y="65.00">-20.00</text><text x="311.50" y="65.00">-10.00</text><text x="285.00" y="65.00">0.00</text><text x="258.50" y="65.00">10.00</text><text x="232.00" y="65.00">20.00</text><text x="205.50" y="65.00">30.00</text><text x="179.00" y="65.00">40.00</text><text x="152.50" y="65.00">50.00</text><text x="126.00" y="65.00">60.00</text><text x="99.50" y="65.00">70.00</text><text x="73.00" y="65.00">80.00</text><text x="46.50" y="65.00">90.00</text><text x="20.00" y="65.00">100.00</text></g><line x1="550.00" x2="20.00" y1="50.00" y2="50.00" /></g><g stroke="black"><line x1="50.00" x2="40.00" y1="550.00" y2="550.00" /><line x1="50.00" x2="40.00" y1="523.50" y2="523.50" /><line x1="50.00" x2="40.00" y1="497.00" y2="497.00" /><line x1="50.00" x2="40.00" y1="470.50" y2="470.50" /><line x1="50.00" x2="40.00" y1="444.00" y2="444.00" /><line x1="50.00" x2="40.00" y1="417.50" y2="417.50" /><line x1="50.00" x2="40.00" y1="391.00" y2="391.00" /><line x1="50.00" x2="40.00" y1="364.50" y2="364.50" /><line x1="50.00" x2="40.00" y1="338.00" y2="338.00" /><line x1="50.00" x2="40.00" y1="311.50" y2="311.50" /><line x1="50.00" x2="40.00" y1="285.00" y2="285.00" /><line x1="50.00" x2="40.00" y1="258.50" y2="258.50" /><line x1="50.00" x2="40.00" y1="232.00" y2="232.00" /><line x1="50.00" x2="40.00" y1="205.50" y2="205.50" /><line x1="50.00" x2="40.00" y1="179.00" y2="179.00" /><line x1="50.00" x2="40.00" y1="152.50" y2="152.50" /><line x1="50.00" x2="40.00" y1="126.00" y2="126.00" /><line x1="50.00" x2="40.00" y1="99.50" y2="99.50" /><line x1="50.00" x2="40.00" y1="73.00" y2="73.00" /><line x1="50.00" x2="40.00" y1="46.50" y2="46.50" /><line x1="50.00" x2="40.00" y1="20.00" y2="20.00" /><line x1="50.00" x2="45.00" y1="536.75" y2="536.75" /><line x1="50.00" x2="45.00" y1="510.25" y2="510.25" /><line x1="50.00" x2="45.00" y1="483.75" y2="483.75" /><line x1="50.00" x2="45.00" y1="457.25" y2="457.25" /><line x1="50.00" x2="45.00" y1="430.75" y2="430.75" /><line x1="50.00" x2="45.00" y1="404.25" y2="404.25" /><line x1="50.00" x2="45.00" y1="377.75" y2="377.75" /><line x1="50.00" x2="45.00" y1="351.25" y2="351.25" /><line x1="50.00" x2="45.00" y1="324.75" y2="324.75" /><line x1="50.00" x2="45.00" y1="298.25" y2="298.25" /><line x1="50.00" x2="45.00" y1="271.75" y2="271.75" /><line x1="50.00" x2="45.00" y1="245.25" y2="245.25" /><line x1="50.00" x2="45.00" y1="218.75" y2="218.75" /><line x1="50.00" x2="45.00" y1="192.25" y2="192.25" /><line x1="50.00" x2="45.00" y1="165.75" y2="165.75" /><line x1="50.00" x2="45.00" y1="139.25" y2="139.25" /><line x1="50.00" x2="45.00" y1="112.75" y2="112.75" /><line x1="50.00" x2="45.00" y1="86.25" y2="86.25" /><line x1="50.00" x2="45.00" y1="59.75" y2="59.75" /><line x1="50.00" x2="45.00" y1="33.25" y2="33.25" /><g fill="black" font-family="Arial, sans-serif" font-size="10" stroke="none" text-anchor="end"><text x="35.00" y="550.00">-100.00</text><text x="35.00" y="523.50">-90.00</text><text x="35.00" y="497.00">-80.00</text><text x="35.00" y="470.50">-70.00</text><text x="35.00" y="444.00">-60.00</text><text x="35.00" y="417.50">-50.00</text><text x="35.00" y="391.00">-40.00</text><text x="35.00" y="364.50">-30.00</text><text x="35.00" y="338.00">-20.00</text><text x="35.00" y="311.50">-10.00</text><text x="35.00" y="285.00">0.00</text><text x="35.00" y="258.50">10.00</text><text x="35.00" y="232.00">20.00</text><text x="35.00" y="205.50">30.00</text><text x="35.00" y="179.00">40.00</text><text x="35.00" y="152.50">50.00</text><text x="35.00" y="126.00">60.00</text><text x="35.00" y="99.50">70.00</text><text x="35.00" y="73.00">80.00</text><text x="35.00" y="46.50">90.00</text><text x="35.00" y="20.00">100.00</text></g><line x1="50.00" x2="50.00" y1="550.00" y2="20.00" /></g></g></svg>