<?xml version="1.0"?>
<svg height="600" version="1.1" width="600" xmlns:xlink="http://www.w3.org/1999/xlink" xmlns="http://www.w3.org/2000/svg"><g><g stroke-dasharray="1 1" stroke="#caa"><line x1="536.75" x2="536.75" y1="550.00" y2="20.00" /><line x1="510.25" x2="510.25" y1="550.00" y2="20.00" /><line x1="483.75" x2="483.75" y1="550.00" y2="20.00" /><line x1="457.25" x2="457.25" y1="550.00" y2="20.00" /><line x1="430.75" x2="430.75" y1="550.00" y2="20.00" /><line x1="404.25" x2="404.25" y1="550.00" y2="20.00" /><line x1="377.75" x2="377.75" y1="550.00" y2="20.00" /><line x1="351.25" x2="351.25" y1="550.00" y2="20.00" /><line x1="324.75" x2="324.75" y1="550.00" y2="20.00" /><line x1="298.25" x2="298.25" y1="550.00" y2="20.00" /><line x1="271.75" x2="271.75" y1="550.00" y2="20.00" /><line x1="245.25" x2="245.25" y1="550.00" y2="20.00" /><line x1="218.75" x2="218.75" y1="550.00" y2="20.00" /><line x1="192.25" x2="192.25" y1="550.00" y2="20.00" /><line x1="165.75" x2="165.75" y1="550.00" y2="20.00" /><line x1="139.25" x2="139.25" y1="550.00" y2="20.00" /><line x1="112.75" x2="112.75" y1="550.00" y2="20.00" /><line x1="86.25" x2="86.25" y1="550.00" y2="20.00" /><line x1="59.75" x2="59.75" y1="550.00" y2="20.00" /><line x1="33.25" x2="33.25" y1="550.00" y2="20.00" /><line x1="550.00" x2="550.00" y1="550.00" y2="20.00" /><line x1="523.50" x2="523.50" y1="550.00" y2="20.00" /><line x1="497.00" x2="497.00" y1="550.00" y2="20.00" /><line x1="470.50" x2="470.50" y1="550.00" y2="20.00" /><line x1="444.00" x2="444.00" y1="550.00" y2="20.00" /><line x1="417.50" x2="417.50" y1="550.00" y2="20.00" /><line x1="391.00" x2="391.00" y1="550.00" y2="20.00" /><line x1="364.50" x2="364.50" y1="550.00" y2="20.00" /><line x1="338.00" x2="338.00" y1="550.00" y2="20.00" /><line x1="311.50" x2="311.50" y1="550.00" y2="20.00" /><line x1="285.00" x2="285.00" y1="550.00" y2="20.00" /><line x1="258.50" x2="258.50" y1="550.00" y2="20.00" /><line x1="232.00" x2="232.00" y1="550.00" y2="20.00" /><line x1="205.50" x2="205.50" y1="550.00" y2="20.00" /><line x1="179.00" x2="179.00" y1="550.00" y2="20.00" /><line x1="152.50" x2="152.50" y1="550.00" y2="20.00" /><line x1="126.00" x2="126.00" y1="550.00" y2="20.00" /><line x1="99.50" x2="99.50" y1="550.00" y2="20.00" /><line x1="73.00" x2="73.00" y1="550.00" y2="20.00" /><line x1="46.50" x2="46.50" y1="550.00" y2="20.00" /><line x1="20.00" x2="20.00" y1="550.00" y2="20.00" /><line x1="550.00" x2="20.00" y1="536.75" y2="536.75" /><line x1="550.00" x2="20.00" y1="510.25" y2="510.25" /><line x1="550.00" x2="20.00" y1="483.75" y2="483.75" /><line x1="550.00" x2="20.00" y1="457.25" y2="457.25" /><line x1="550.00" x2="20.00" y1="430.75" y2="430.75" /><line x1="550.00" x2="20.00" y1="404.25" y2="404.25" /><line x1="550.00" x2="20.00" y1="377.75" y2="377.75" /><line x1="550.00" x2="20.00" y1="351.25" y2="351.25" /><line x1="550.00" x2="20.00" y1="324.75" y2="324.75" /><line x1="550.00" x2="20.00" y1="298.25" y2="298.25" /><line x1="550.00" x2="20.00" y1="271.75" y2="271.75" /><line x1="550.00" x2="20.00" y1="245.25" y2="245.25" /><line x1="550.00" x2="20.00" y1="218.75" y2="218.75" /><line x1="550.00" x2="20.00" y1="192.25" y2="192.25" /><line x1="550.00" x2="20.00" y1="165.75" y2="165.75" /><line x1="550.00" x2="20.00" y1="139.25" y2="139.25" /><line x1="550.00" x2="20.00" y1="112.75" y2="112.75" /><line x1="550.00" x2="20.00" y1="86.25" y2="86.25" /><line x1="550.00" x2="20.00" y1="59.75" y2="59.75" /><line x1="550.00" x2="20.00" y1="33.25" y2="33.25" /><line x1="550.00" x2="20.00" y1="550.00" y2="550.00" /><line x1="550.00" x2="20.00" y1="523.50" y2="523.50" /><line x1="550.00" x2="20.00" y1="497.00" y2="497.00" /><line x1="550.00" x2="20.00" y1="470.50" y2="470.50" /><line x1="550.00" x2="20.00" y1="444.00" y2="444.00" /><line x1="550.00" x2="20.00" y1="417.50" y2="417.50" /><line x1="550.00" x2="20.00" y1="391.00" y2="391.00" /><line x1="550.00" x2="20.00" y1="364.50" y2="364.50" /><line x1="550.00" x2="20.00" y1="338.00" y2="338.00" /><line x1="550.00" x2="20.00" y1="311.50" y2="311.50" /><line x1="550.00" x2="20.00" y1="285.00" y2="285.00" /><line x1="550.00" x2="20.00" y1="258.50" y2="258.50" /><line x1="550.00" x2="20.00" y1="232.00" y2="232.00" /><line x1="550.00" x2="20.00" y1="205.50" y2="205.50" /><line x1="550.00" x2="20.00" y1="179.00" y2="179.00" /><line x1="550.00" x2="20.00" y1="152.50" y2="152.50" /><line x1="550.00" x2="20.00" y1="126.00" y2="126.00" /><line x1="550.00" x2="20.00" y1="99.50" y2="99.50" /><line x1="550.00" x2="20.00" y1="73.00" y2="73.00" /><line x1="550.00" x2="20.00" y1="46.50" y2="46.50" /><line x1="550.00" x2="20.00" y1="20.00" y2="20.00" /></g><g fill="#0af" stroke="none"><circle cx="499.92" cy="230.71" r="3" /><circle cx="490.82" cy="234.51" r="3" /><circle cx="478.01" cy="271.50" r="3" /><circle cx="467.24" cy="227.59" r="3" /><circle cx="465.42" cy="211.89" r="3" /><circle cx="464.44" cy="251.64" r="3" /><circle cx="461.77" cy="171.49" r="3" /><circle cx="457.57" cy="188.15" r="3" /><circle cx="451.68" cy="140.38" r="3" /><circle cx="446.45" cy="258.34" r="3" /><circle cx="445.64" cy="412.22" r="3" /><circle cx="444.50" cy="185.84" r="3" /><circle cx="438.94" cy="167.67" r="3" /><circle cx="437.06" cy="207.30" r="3" /><circle cx="432.95" cy="269.13" r="3" /><circle cx="432.36" cy="238.12" r="3" /><circle cx="428.30" cy="181.91" r="3" /><circle cx="426.67" cy="159.57" r="3" /><circle cx="420.68" cy="200.53" r="3" /><circle cx="418.81" cy="224.89" r="3" /><circle cx="413.48" cy="240.55" r="3" /><circle cx="409.91" cy="182.77" r="3" /><circle cx="403.45" cy="221.20" r="3" /><circle cx="402.14" cy="259.42" r="3" /><circle cx="398.20" cy="203.43" r="3" /><circle cx="394.74" cy="166.12" r="3" /><circle cx="390.56" cy="241.68" r="3" /><circle cx="378.01" cy="233.95" r="3" /><circle cx="377.53" cy="201.31" r="3" /><circle cx="371.68" cy="219.48" r="3" /><circle cx="369.72" cy="251.25" r="3" /><circle cx="360.62" cy="237.47" r="3" /><circle cx="358.66" cy="187.42" r="3" /><circle cx="352.54" cy="254.06" r="3" /><circle cx="347.13" cy="216.64" r="3" /><circle cx="345.07" cy="475.13" r="3" /><circle cx="344.22" cy="436.89" r="3" /><circle cx="339.28" cy="454.98" r="3" /><circle cx="331.98" cy="426.80" r="3" /><circle cx="326.95" cy="474.20" r="3" /><circle cx="325.15" cy="494.34" r="3" /><circle cx="324.99" cy="442.50" r="3" /><circle cx="321.84" cy="457.97" r="3" /><circle cx="314.57" cy="419.74" r="3" /><circle cx="313.33" cy="487.07" r="3" /><circle cx="304.50" cy="449.27" r="3" /><circle cx="304.02" cy="468.42" r="3" /><circle cx="300.37" cy="504.94" r="3" /><circle cx="295.77" cy="435.62" r="3" /><circle cx="292.14" cy="483.85" r="3" /><circle cx="289.31" cy="457.70" r="3" /><circle cx="284.30" cy="504.92" r="3" /><circle cx="280.90" cy="423.24" r="3" /><circle cx="279.11" cy="441.85" r="3" /><circle cx="277.38" cy="479.24" r="3" /><circle cx="273.56" cy="493.50" r="3" /><circle cx="266.19" cy="459.50" r="3" /><circle cx="263.63" cy="422.00" r="3" /><circle cx="261.03" cy="440.25" r="3" /><circle cx="255.90" cy="495.06" r="3" /><circle cx="253.58" cy="471.52" r="3" /><circle cx="248.19" cy="455.80" r="3" /><circle cx="213.39" cy="234.20" r="3" /><circle cx="202.18" cy="244.35" r="3" /><circle cx="195.97" cy="200.08" r="3" /><circle cx="195.11" cy="229.50" r="3" /><circle cx="187.75" cy="258.57" r="3" /><circle cx="183.30" cy="212.73" r="3" /><circle cx="182.23" cy="274.81" r="3" /><circle cx="179.71" cy="241.82" r="3" /><circle cx="173.38" cy="261.07" r="3" /><circle cx="161.11" cy="248.68" r="3" /><circle cx="156.08" cy="268.25" r="3" /><circle cx="150.94" cy="205.68" r="3" /><circle cx="150.23" cy="222.21" r="3" /><circle cx="147.54" cy="175.45" r="3" /><circle cx="140.32" cy="192.61" r="3" /><circle cx="138.84" cy="238.86" r="3" /><circle cx="134.02" cy="171.55" r="3" /><circle cx="132.03" cy="219.95" r="3" /><circle cx="127.24" cy="271.93" r="3" /><circle cx="124.68" cy="241.67" r="3" /><circle cx="122.97" cy="192.35" r="3" /><circle cx="120.30" cy="214.70" r="3" /><circle cx="116.25" cy="177.75" r="3" /><circle cx="113.09" cy="227.90" r="3" /><circle cx="107.48" cy="204.73" r="3" /><circle cx="106.91" cy="158.76" r="3" /><circle cx="102.89" cy="243.07" r="3" /><circle cx="95.74" cy="218.15" r="3" /><circle cx="93.64" cy="184.70" r="3" /><circle cx="88.94" cy="233.18" r="3" /><circle cx="88.67" cy="164.11" r="3" /><circle cx="79.95" cy="200.51" r="3" /><circle cx="77.44" cy="182.79" r="3" /><circle cx="70.32" cy="212.05" r="3" /></g><g stroke="black"><line x1="550.00" x2="550.00" y1="50.00" y2="60.00" /><line x1="523.50" x2="523.50" y1="50.00" y2="60.00" /><line x1="497.00" x2="497.00" y1="50.00" y2="60.00" /><line x1="470.50" x2="470.50" y1="50.00" y2="60.00" /><line x1="444.00" x2="444.00" y1="50.00" y2="60.00" /><line x1="417.50" x2="417.50" y1="50.00" y2="60.00" /><line x1="391.00" x2="391.00" y1="50.00" y2="60.00" /><line x1="364.50" x2="364.50" y1="50.00" y2="60.00" /><line x1="338.00" x2="338.00" y1="50.00" y2="60.00" /><line x1="311.50" x2="311.50" y1="50.00" y2="60.00" /><line x1="285.00" x2="285.00" y1="50.00" y2="60.00" /><line x1="258.50" x2="258.50" y1="50.00" y2="60.00" /><line x1="232.00" x2="232.00" y1="50.00" y2="60.00" /><line x1="205.50" x2="205.50" y1="50.00" y2="60.00" /><line x1="179.00" x2="179.00" y1="50.00" y2="60.00" /><line x1="152.50" x2="152.50" y1="50.00" y2="60.00" /><line x1="126.00" x2="126.00" y1="50.00" y2="60.00" /><line x1="99.50" x2="99.50" y1="50.00" y2="60.00" /><line x1="73.00" x2="73.00" y1="50.00" y2="60.00" /><line x1="46.50" x2="46.50" y1="50.00" y2="60.00" /><line x1="20.00" x2="20.00" y1="50.00" y2="60.00" /><line x1="536.75" x2="536.75" y1="50.00" y2="55.00" /><line x1="510.25" x2="510.25" y1="50.00" y2="55.00" /><line x1="483.75" x2="483.75" y1="50.00" y2="55.00" /><line x1="457.25" x2="457.25" y1="50.00" y2="55.00" /><line x1="430.75" x2="430.75" y1="50.00" y2="55.00" /><line x1="404.25" x2="404.25" y1="50.00" y2="55.00" /><line x1="377.75" x2="377.75" y1="50.00" y2="55.00" /><line x1="351.25" x2="351.25" y1="50.00" y2="55.00" /><line x1="324.75" x2="324.75" y1="50.00" y2="55.00" /><line x1="298.25" x2="298.25" y1="50.00" y2="55.00" /><line x1="271.75" x2="271.75" y1="50.00" y2="55.00" /><line x1="245.25" x2="245.25" y1="50.00" y2="55.00" /><line x1="218.75" x2="218.75" y1="50.00" y2="55.00" /><line x1="192.25" x2="192.25" y1="50.00" y2="55.00" /><line x1="165.75" x2="165.75" y1="50.00" y2="55.00" /><line x1="139.25" x2="139.25" y1="50.00" y2="55.00" /><line x1="112.75" x2="112.75" y1="50.00" y2="55.00" /><line x1="86.25" x2="86.25" y1="50.00" y2="55.00" /><line x1="59.75" x2="59.75" y1="50.00" y2="55.00" /><line x1="33.25" x2="33.25" y1="50.00" y2="55.00" /><g fill="black" font-family="Arial, sans-serif" font-size="10" stroke="none" text-anchor="end"><text x="550.00" y="65.00">-100.00</text><text x="523.50" y="65.00">-90.00</text><text x="497.00" y="65.00">-80.00</text><text x="470.50" y="65.00">-70.00</text><text x="444.00" y="65.00">-60.00</text><text x="417.50" y="65.00">-50.00</text><text x="391.00" y="65.00">-40.00</text><text x="364.50" y="65.00">-30.00</text><text x="338.00" y="65.00">-20.00</text><text x="311.50" y="65.00">-10.00</text><text x="285.00" y="65.00">0.00</text><text x="258.50" y="65.00">10.00</text><text x="232.00" y="65.00">20.00</text><text x="205.50" y="65.00">30.00</text><text x="179.00" y="65.00">40.00</text><text x="152.50" y="65.00">50.00</text><text x="126.00" y="65.00">60.00</text><text x="99.50" y="65.00">70.00</text><text x="73.00" y="65.00">80.00</text><text x="46.50" y="65.00">90.00</text><text x="20.00" y="65.00">100.00</text></g><line x1="550.00" x2="20.00" y1="50.00" y2="50.00" /></g><g stroke="black"><line x1="50.00" x2="40.00" y1="550.00" y2="550.00" /><line x1="50.00" x2="40.00" y1="523.50" y2="523.50" /><line x1="50.00" x2="40.00" y1="497.00" y2="497.00" /><line x1="50.00" x2="40.00" y1="470.50" y2="470.50" /><line x1="50.00" x2="40.00" y1="444.00" y2="444.00" /><line x1="50.00" x2="40.00" y1="417.50" y2="417.50" /><line x1="50.00" x2="40.00" y1="391.00" y2="391.00" /><line x1="50.00" x2="40.00" y1="364.50" y2="364.50" /><line x1="50.00" x2="40.00" y1="338.00" y2="338.00" /><line x1="50.00" x2="40.00" y1="311.50" y2="311.50" /><line x1="50.00" x2="40.00" y1="285.00" y2="285.00" /><line x1="50.00" x2="40.00" y1="258.50" y2="258.50" /><line x1="50.00" x2="40.00" y1="232.00" y2="232.00" /><line x1="50.00" x2="40.00" y1="205.50" y2="205.50" /><line x1="50.00" x2="40.00" y1="179.00" y2="179.00" /><line x1="50.00" x2="40.00" y1="152.50" y2="152.50" /><line x1="50.00" x2="40.00" y1="126.00" y2="126.00" /><line x1="50.00" x2="40.00" y1="99.50" y2="99.50" /><line x1="50.00" x2="40.00" y1="73.00" y2="73.00" /><line x1="50.00" x2="40.00" y1="46.50" y2="46.50" /><line x1="50.00" x2="40.00" y1="20.00" y2="20.00" /><line x1="50.00" x2="45.00" y1="536.75" y2="536.75" /><line x1="50.00" x2="45.00" y1="510.25" y2="510.25" /><line x1="50.00" x2="45.00" y1="483.75" y2="483.75" /><line x1="50.00" x2="45.00" y1="457.25" y2="457.25" /><line x1="50.00" x2="45.00" y1="430.75" y2="430.75" /><line x1="50.00" x2="45.00" y1="404.25" y2="404.25" /><line x1="50.00" x2="45.00" y1="377.75" y2="377.75" /><line x1="50.00" x2="45.00" y1="351.25" y2="351.25" /><line x1="50.00" x2="45.00" y1="324.75" y2="324.75" /><line x1="50.00" x2="45.00" y1="298.25" y2="298.25" /><line x1="50.00" x2="45.00" y1="271.75" y2="271.75" /><line x1="50.00" x2="45.00" y1="245.25" y2="245.25" /><line x1="50.00" x2="45.00" y1="218.75" y2="218.75" /><line x1="50.00" x2="45.00" y1="192.25" y2="192.25" /><line x1="50.00" x2="45.00" y1="165.75" y2="165.75" /><line x1="50.00" x2="45.00" y1="139.25" y2="139.25" /><line x1="50.00" x2="45.00" y1="112.75" y2="112.75" /><line x1="50.00" x2="45.00" y1="86.25" y2="86.25" /><line x1="50.00" x2="45.00" y1="59.75" y2="59.75" /><line x1="50.00" x2="45.00" y1="33.25" y2="33.25" /><g fill="black" font-family="Arial, sans-serif" font-size="10" stroke="none" text-anchor="end"><text x="35.00" y="550.00">-100.00</text><text x="35.00" y="523.50">-90.00</text><text x="35.00" y="497.00">-80.00</text><text x="35.00" y="470.50">-70.00</text><text x="35.00" y="444.00">-60.00</text><text x="35.00" y="417.50">-50.00</text><text x="35.00" y="391.00">-40.00</text><text x="35.00" y="364.50">-30.00</text><text x="35.00" y="338.00">-20.00</text><text x="35.00" y="311.50">-10.00</text><text x="35.00" y="285.00">0.00</text><text x="35.00" y="258.50">10.00</text><text x="35.00" y="232.00">20.00</text><text x="35.00" y="205.50">30.00</text><text x="35.00" y="179.00">40.00</text><text x="35.00" y="152.50">50.00</text><text x="35.00" y="126.00">60.00</text><text x="35.00" y="99.50">70.00</text><text x="35.00" y="73.00">80.00</text><text x="35.00" y="46.50">90.00</text><text x="35.00" y="20.00">100.00</text></g><line x1="50.00" x2="50.00" y1="550.00" y2="20.00" /></g></g></svg>