<?xml version="1.0"?>
<svg height="600" version="1.1" width="600" xmlns:xlink="http://www.w3.org/1999/xlink" xmlns="http://www.w3.org/2000/svg"><g><g stroke-dasharray="1 1" stroke="#caa"><line x1="536.75" x2="536.75" y1="550.00" y2="20.00" /><line x1="510.25" x2="510.25" y1="550.00" y2="20.00" /><line x1="483.75" x2="483.75" y1="550.00" y2="20.00" /><line x1="457.25" x2="457.25" y1="550.00" y2="20.00" /><line x1="430.75" x2="430.75" y1="550.00" y2="20.00" /><line x1="404.25" x2="404.25" y1="550.00" y2="20.00" /><line x1="377.75" x2="377.75" y1="550.00" y2="20.00" /><line x1="351.25" x2="351.25" y1="550.00" y2="20.00" /><line x1="324.75" x2="324.75" y1="550.00" y2="20.00" /><line x1="298.25" x2="298.25" y1="550.00" y2="20.00" /><line x1="271.75" x2="271.75" y1="550.00" y2="20.00" /><line x1="245.25" x2="245.25" y1="550.00" y2="20.00" /><line x1="218.75" x2="218.75" y1="550.00" y2="20.00" /><line x1="192.25" x2="192.25" y1="550.00" y2="20.00" /><line x1="165.75" x2="165.75" y1="550.00" y2="20.00" /><line x1="139.25" x2="139.25" y1="550.00" y2="20.00" /><line x1="112.75" x2="112.75" y1="550.00" y2="20.00" /><line x1="86.25" x2="86.25" y1="550.00" y2="20.00" /><line x1="59.75" x2="59.75" y1="550.00" y2="20.00" /><line x1="33.25" x2="33.25" y1="550.00" y2="20.00" /><line x1="550.00" x2="550.00" y1="550.00" y2="20.00" /><line x1="523.50" x2="523.50" y1="550.00" y2="20.00" /><line x1="497.00" x2="497.00" y1="550.00" y2="20.00" /><line x1="470.50" x2="470.50" y1="550.00" y2="20.00" /><line x1="444.00" x2="444.00" y1="550.00" y2="20.00" /><line x1="417.50" x2="417.50" y1="550.00" y2="20.00" /><line x1="391.00" x2="391.00" y1="550.00" y2="20.00" /><line x1="364.50" x2="364.50" y1="550.00" y2="20.00" /><line x1="338.00" x2="338.00" y1="550.00" y2="20.00" /><line x1="311.50" x2="311.50" y1="550.00" y2="20.00" /><line x1="285.00" x2="285.00" y1="550.00" y2="20.00" /><line x1="258.50" x2="258.50" y1="550.00" y2="20.00" /><line x1="232.00" x2="232.00" y1="550.00" y2="20.00" /><line x1="205.50" x2="205.50" y1="550.00" y2="20.00" /><line x1="179.00" x2="179.00" y1="550.00" y2="20.00" /><line x1="152.50" x2="152.50" y1="550.00" y2="20.00" /><line x1="126.00" x2="126.00" y1="550.00" y2="20.00" /><line x1="99.50" x2="99.50" y1="550.00" y2="20.00" /><line x1="73.00" x2="73.00" y1="550.00" y2="20.00" /><line x1="46.50" x2="46.50" y1="550.00" y2="20.00" /><line x1="20.00" x2="20.00" y1="550.00" y2="20.00" /><line x1="550.00" x2="20.00" y1="536.75" y2="536.75" /><line x1="550.00" x2="20.00" y1="510.25" y2="510.25" /><line x1="550.00" x2="20.00" y1="483.75" y2="483.75" /><line x1="550.00" x2="20.00" y1="457.25" y2="457.25" /><line x1="550.00" x2="20.00" y1="430.75" y2="430.75" /><line x1="550.00" x2="20.00" y1="404.25" y2="404.25" /><line x1="550.00" x2="20.00" y1="377.75" y2="377.75" /><line x1="550.00" x2="20.00" y1="351.25" y2="351.25" /><line x1="550.00" x2="20.00" y1="324.75" y2="324.75" /><line x1="550.00" x2="20.00" y1="298.25" y2="298.25" /><line x1="550.00" x2="20.00" y1="271.75" y2="271.75" /><line x1="550.00" x2="20.00" y1="245.25" y2="245.25" /><line x1="550.00" x2="20.00" y1="218.75" y2="218.75" /><line x1="550.00" x2="20.00" y1="192.25" y2="192.25" /><line x1="550.00" x2="20.00" y1="165.75" y2="165.75" /><line x1="550.00" x2="20.00" y1="139.25" y2="139.25" /><line x1="550.00" x2="20.00" y1="112.75" y2="112.75" /><line x1="550.00" x2="20.00" y1="86.25" y2="86.25" /><line x1="550.00" x2="20.00" y1="59.75" y2="59.75" /><line x1="550.00" x2="20.00" y1="33.25" y2="33.25" /><line x1="550.00" x2="20.00" y1="550.00" y2="550.00" /><line x1="550.00" x2="20.00" y1="523.50" y2="523.50" /><line x1="550.00" x2="20.00" y1="497.00" y2="497.00" /><line x1="550.00" x2="20.00" y1="470.50" y2="470.50" /><line x1="550.00" x2="20.00" y1="444.00" y2="444.00" /><line x1="550.00" x2="20.00" y1="417.50" y2="417.50" /><line x1="550.00" x2="20.00" y1="391.00" y2="391.00" /><line x1="550.00" x2="20.00" y1="364.50" y2="364.50" /><line x1="550.00" x2="20.00" y1="338.00" y2="338.00" /><line x1="550.00" x2="20.00" y1="311.50" y2="311.50" /><line x1="550.00" x2="20.00" y1="285.00" y2="285.00" /><line x1="550.00" x2="20.00" y1="258.50" y2="258.50" /><line x1="550.00" x2="20.00" y1="232.00" y2="232.00" /><line x1="550.00" x2="20.00" y1="205.50" y2="205.50" /><line x1="550.00" x2="20.00" y1="179.00" y2="179.00" /><line x1="550.00" x2="20.00" y1="152.50" y2="152.50" /><line x1="550.00" x2="20.00" y1="126.00" y2="126.00" /><line x1="550.00" x2="20.00" y1="99.50" y2="99.50" /><line x1="550.00" x2="20.00" y1="73.00" y2="73.00" /><line x1="550.00" x2="20.00" y1="46.50" y2="46.50" /><line x1="550.00" x2="20.00" y1="20.00" y2="20.00" /></g><g fill="#0af" stroke="none"><circle cx="477.67" cy="267.91" r="3" /><circle cx="476.78" cy="304.50" r="3" /><circle cx="469.51" cy="251.52" r="3" /><circle cx="469.51" cy="329.30" r="3" /><circle cx="464.32" cy="282.55" r="3" /><circle cx="462.05" cy="348.00" r="3" /><circle cx="458.99" cy="307.59" r="3" /><circle cx="457.56" cy="263.74" r="3" /><circle cx="450.24" cy="323.81" r="3" /><circle cx="450.07" cy="278.36" r="3" /><circle cx="447.59" cy="352.15" r="3" /><circle cx="443.05" cy="290.54" r="3" /><circle cx="442.52" cy="306.16" r="3" /><circle cx="440.01" cy="336.82" r="3" /><circle cx="431.70" cy="325.51" r="3" /><circle cx="430.50" cy="264.62" r="3" /><circle cx="428.74" cy="281.20" r="3" /><circle cx="426.71" cy="306.38" r="3" /><circle cx="425.49" cy="243.75" r="3" /><circle cx="419.31" cy="296.09" r="3" /><circle cx="415.16" cy="257.66" r="3" /><circle cx="413.00" cy="336.28" r="3" /><circle cx="412.79" cy="317.50" r="3" /><circle cx="411.80" cy="358.46" r="3" /><circle cx="409.37" cy="245.62" r="3" /><circle cx="403.96" cy="276.64" r="3" /><circle cx="403.53" cy="305.07" r="3" /><circle cx="392.00" cy="293.92" r="3" /><circle cx="391.14" cy="254.09" r="3" /><circle cx="389.02" cy="344.30" r="3" /><circle cx="388.60" cy="267.76" r="3" /><circle cx="387.09" cy="329.04" r="3" /><circle cx="384.56" cy="308.50" r="3" /><circle cx="373.85" cy="280.47" r="3" /><circle cx="372.44" cy="329.00" r="3" /><circle cx="372.16" cy="296.10" r="3" /><circle cx="293.78" cy="162.13" r="3" /><circle cx="289.21" cy="185.31" r="3" /><circle cx="279.20" cy="171.79" r="3" /><circle cx="272.45" cy="140.65" r="3" /><circle cx="271.77" cy="192.34" r="3" /><circle cx="267.40" cy="159.16" r="3" /><circle cx="265.91" cy="176.78" r="3" /><circle cx="256.65" cy="192.73" r="3" /><circle cx="255.00" cy="165.53" r="3" /><circle cx="249.19" cy="107.33" r="3" /><circle cx="248.89" cy="210.10" r="3" /><circle cx="248.19" cy="133.80" r="3" /><circle cx="247.83" cy="410.29" r="3" /><circle cx="245.25" cy="180.79" r="3" /><circle cx="244.56" cy="152.61" r="3" /><circle cx="238.63" cy="129.42" r="3" /><circle cx="236.73" cy="167.78" r="3" /><circle cx="232.95" cy="409.37" r="3" /><circle cx="231.52" cy="143.04" r="3" /><circle cx="231.05" cy="426.17" r="3" /><circle cx="224.47" cy="159.75" r="3" /><circle cx="221.98" cy="400.78" r="3" /><circle cx="221.71" cy="401.25" r="3" /><circle cx="221.67" cy="444.26" r="3" /><circle cx="218.69" cy="122.94" r="3" /><circle cx="216.84" cy="193.56" r="3" /><circle cx="215.24" cy="178.50" r="3" /><circle cx="215.12" cy="426.19" r="3" /><circle cx="214.78" cy="382.52" r="3" /><circle cx="214.69" cy="97.71" r="3" /><circle cx="208.56" cy="456.10" r="3" /><circle cx="208.38" cy="406.52" r="3" /><circle cx="206.94" cy="130.26" r="3" /><circle cx="206.16" cy="368.80" r="3" /><circle cx="204.95" cy="159.25" r="3" /><circle cx="204.19" cy="116.13" r="3" /><circle cx="203.75" cy="442.94" r="3" /><circle cx="201.54" cy="87.36" r="3" /><circle cx="199.35" cy="418.71" r="3" /><circle cx="194.42" cy="380.49" r="3" /><circle cx="194.20" cy="397.06" r="3" /><circle cx="191.95" cy="201.01" r="3" /><circle cx="191.85" cy="470.17" r="3" /><circle cx="186.74" cy="428.14" r="3" /><circle cx="185.17" cy="124.99" r="3" /><circle cx="183.69" cy="166.57" r="3" /><circle cx="182.42" cy="412.10" r="3" /><circle cx="182.31" cy="100.14" r="3" /><circle cx="180.86" cy="445.66" r="3" /><circle cx="178.89" cy="42.52" r="3" /><circle cx="174.05" cy="456.86" r="3" /><circle cx="170.20" cy="426.70" r="3" /><circle cx="169.61" cy="392.02" r="3" /><circle cx="168.90" cy="187.02" r="3" /><circle cx="165.75" cy="120.51" r="3" /><circle cx="164.85" cy="414.75" r="3" /><circle cx="160.60" cy="446.56" r="3" /><circle cx="152.51" cy="462.24" r="3" /><circle cx="144.31" cy="433.07" r="3" /><circle cx="128.12" cy="201.85" r="3" /></g><g stroke="black"><line x1="550.00" x2="550.00" y1="50.00" y2="60.00" /><line x1="523.50" x2="523.50" y1="50.00" y2="60.00" /><line x1="497.00" x2="497.00" y1="50.00" y2="60.00" /><line x1="470.50" x2="470.50" y1="50.00" y2="60.00" /><line x1="444.00" x2="444.00" y1="50.00" y2="60.00" /><line x1="417.50" x2="417.50" y1="50.00" y2="60.00" /><line x1="391.00" x2="391.00" y1="50.00" y2="60.00" /><line x1="364.50" x2="364.50" y1="50.00" y2="60.00" /><line x1="338.00" x2="338.00" y1="50.00" y2="60.00" /><line x1="311.50" x2="311.50" y1="50.00" y2="60.00" /><line x1="285.00" x2="285.00" y1="50.00" y2="60.00" /><line x1="258.50" x2="258.50" y1="50.00" y2="60.00" /><line x1="232.00" x2="232.00" y1="50.00" y2="60.00" /><line x1="205.50" x2="205.50" y1="50.00" y2="60.00" /><line x1="179.00" x2="179.00" y1="50.00" y2="60.00" /><line x1="152.50" x2="152.50" y1="50.00" y2="60.00" /><line x1="126.00" x2="126.00" y1="50.00" y2="60.00" /><line x1="99.50" x2="99.50" y1="50.00" y2="60.00" /><line x1="73.00" x2="73.00" y1="50.00" y2="60.00" /><line x1="46.50" x2="46.50" y1="50.00" y2="60.00" /><line x1="20.00" x2="20.00" y1="50.00" y2="60.00" /><line x1="536.75" x2="536.75" y1="50.00" y2="55.00" /><line x1="510.25" x2="510.25" y1="50.00" y2="55.00" /><line x1="483.75" x2="483.75" y1="50.00" y2="55.00" /><line x1="457.25" x2="457.25" y1="50.00" y2="55.00" /><line x1="430.75" x2="430.75" y1="50.00" y2="55.00" /><line x1="404.25" x2="404.25" y1="50.00" y2="55.00" /><line x1="377.75" x2="377.75" y1="50.00" y2="55.00" /><line x1="351.25" x2="351.25" y1="50.00" y2="55.00" /><line x1="324.75" x2="324.75" y1="50.00" y2="55.00" /><line x1="298.25" x2="298.25" y1="50.00" y2="55.00" /><line x1="271.75" x2="271.75" y1="50.00" y2="55.00" /><line x1="245.25" x2="245.25" y1="50.00" y2="55.00" /><line x1="218.75" x2="218.75" y1="50.00" y2="55.00" /><line x1="192.25" x2="192.25" y1="50.00" y2="55.00" /><line x1="165.75" x2="165.75" y1="50.00" y2="55.00" /><line x1="139.25" x2="139.25" y1="50.00" y2="55.00" /><line x1="112.75" x2="112.75" y1="50.00" y2="55.00" /><line x1="86.25" x2="86.25" y1="50.00" y2="55.00" /><line x1="59.75" x2="59.75" y1="50.00" y2="55.00" /><line x1="33.25" x2="33.25" y1="50.00" y2="55.00" /><g fill="black" font-family="Arial, sans-serif" font-size="10" stroke="none" text-anchor="end"><text x="550.00" y="65.00">-100.00</text><text x="523.50" y="65.00">-90.00</text><text x="497.00" y="65.00">-80.00</text><text x="470.50" y="65.00">-70.00</text><text x="444.00" y="65.00">-60.00</text><text x="417.50" y="65.00">-50.00</text><text x="391.00" y="65.00">-40.00</text><text x="364.50" y="65.00">-30.00</text><text x="338.00" y="65.00">-20.00</text><text x="311.50" y="65.00">-10.00</text><text x="285.00" y="65.00">0.00</text><text x="258.50" y="65.00">10.00</text><text x="232.00" y="65.00">20.00</text><text x="205.50" y="65.00">30.00</text><text x="179.00" y="65.00">40.00</text><text x="152.50" y="65.00">50.00</text><text x="126.00" y="65.00">60.00</text><text x="99.50" y="65.00">70.00</text><text x="73.00" y="65.00">80.00</text><text x="46.50" y="65.00">90.00</text><text x="20.00" y="65.00">100.00</text></g><line x1="550.00" x2="20.00" y1="50.00" y2="50.00" /></g><g stroke="black"><line x1="50.00" x2="40.00" y1="550.00" y2="550.00" /><line x1="50.00" x2="40.00" y1="523.50" y2="523.50" /><line x1="50.00" x2="40.00" y1="497.00" y2="497.00" /><line x1="50.00" x2="40.00" y1="470.50" y2="470.50" /><line x1="50.00" x2="40.00" y1="444.00" y2="444.00" /><line x1="50.00" x2="40.00" y1="417.50" y2="417.50" /><line x1="50.00" x2="40.00" y1="391.00" y2="391.00" /><line x1="50.00" x2="40.00" y1="364.50" y2="364.50" /><line x1="50.00" x2="40.00" y1="338.00" y2="338.00" /><line x1="50.00" x2="40.00" y1="311.50" y2="311.50" /><line x1="50.00" x2="40.00" y1="285.00" y2="285.00" /><line x1="50.00" x2="40.00" y1="258.50" y2="258.50" /><line x1="50.00" x2="40.00" y1="232.00" y2="232.00" /><line x1="50.00" x2="40.00" y1="205.50" y2="205.50" /><line x1="50.00" x2="40.00" y1="179.00" y2="179.00" /><line x1="50.00" x2="40.00" y1="152.50" y2="152.50" /><line x1="50.00" x2="40.00" y1="126.00" y2="126.00" /><line x1="50.00" x2="40.00" y1="99.50" y2="99.50" /><line x1="50.00" x2="40.00" y1="73.00" y2="73.00" /><line x1="50.00" x2="40.00" y1="46.50" y2="46.50" /><line x1="50.00" x2="40.00" y1="20.00" y2="20.00" /><line x1="50.00" x2="45.00" y1="536.75" y2="536.75" /><line x1="50.00" x2="45.00" y1="510.25" y2="510.25" /><line x1="50.00" x2="45.00" y1="483.75" y2="483.75" /><line x1="50.00" x2="45.00" y1="457.25" y2="457.25" /><line x1="50.00" x2="45.00" y1="430.75" y2="430.75" /><line x1="50.00" x2="45.00" y1="404.25" y2="404.25" /><line x1="50.00" x2="45.00" y1="377.75" y2="377.75" /><line x1="50.00" x2="45.00" y1="351.25" y2="351.25" /><line x1="50.00" x2="45.00" y1="324.75" y2="324.75" /><line x1="50.00" x2="45.00" y1="298.25" y2="298.25" /><line x1="50.00" x2="45.00" y1="271.75" y2="271.75" /><line x1="50.00" x2="45.00" y1="245.25" y2="245.25" /><line x1="50.00" x2="45.00" y1="218.75" y2="218.75" /><line x1="50.00" x2="45.00" y1="192.25" y2="192.25" /><line x1="50.00" x2="45.00" y1="165.75" y2="165.75" /><line x1="50.00" x2="45.00" y1="139.25" y2="139.25" /><line x1="50.00" x2="45.00" y1="112.75" y2="112.75" /><line x1="50.00" x2="45.00" y1="86.25" y2="86.25" /><line x1="50.00" x2="45.00" y1="59.75" y2="59.75" /><line x1="50.00" x2="45.00" y1="33.25" y2="33.25" /><g fill="black" font-family="Arial, sans-serif" font-size="10" stroke="none" text-anchor="end"><text x="35.00" y="550.00">-100.00</text><text x="35.00" y="523.50">-90.00</text><text x="35.00" y="497.00">-80.00</text><text x="35.00" y="470.50">-70.00</text><text x="35.00" y="444.00">-60.00</text><text x="35.00" y="417.50">-50.00</text><text x="35.00" y="391.00">-40.00</text><text x="35.00" y="364.50">-30.00</text><text x="35.00" y="338.00">-20.00</text><text x="35.00" y="311.50">-10.00</text><text x="35.00" y="285.00">0.00</text><text x="35.00" y="258.50">10.00</text><text x="35.00" y="232.00">20.00</text><text x="35.00" y="205.50">30.00</text><text x="35.00" y="179.00">40.00</text><text x="35.00" y="152.50">50.00</text><text x="35.00" y="126.00">60.00</text><text x="35.00" y="99.50">70.00</text><text x="35.00" y="73.00">80.00</text><text x="35.00" y="46.50">90.00</text><text x="35.00" y="20.00">100.00</text></g><line x1="50.00" x2="50.00" y1="550.00" y2="20.00" /></g></g></svg>