<?xml version="1.0"?>
<svg height="600" version="1.1" width="600" xmlns:xlink="http://www.w3.org/1999/xlink" xmlns="http://www.w3.org/2000/svg"><g><g stroke-dasharray="1 1" stroke="#caa"><line x1="536.75" x2="536.75" y1="550.00" y2="20.00" /><line x1="510.25" x2="510.25" y1="550.00" y2="20.00" /><line x1="483.75" x2="483.75" y1="550.00" y2="20.00" /><line x1="457.25" x2="457.25" y1="550.00" y2="20.00" /><line x1="430.75" x2="430.75" y1="550.00" y2="20.00" /><line x1="404.25" x2="404.25" y1="550.00" y2="20.00" /><line x1="377.75" x2="377.75" y1="550.00" y2="20.00" /><line x1="351.25" x2="351.25" y1="550.00" y2="20.00" /><line x1="324.75" x2="324.75" y1="550.00" y2="20.00" /><line x1="298.25" x2="298.25" y1="550.00" y2="20.00" /><line x1="271.75" x2="271.75" y1="550.00" y2="20.00" /><line x1="245.25" x2="245.25" y1="550.00" y2="20.00" /><line x1="218.75" x2="218.75" y1="550.00" y2="20.00" /><line x1="192.25" x2="192.25" y1="550.00" y2="20.00" /><line x1="165.75" x2="165.75" y1="550.00" y2="20.00" /><line x1="139.25" x2="139.25" y1="550.00" y2="20.00" /><line x1="112.75" x2="112.75" y1="550.00" y2="20.00" /><line x1="86.25" x2="86.25" y1="550.00" y2="20.00" /><line x1="59.75" x2="59.75" y1="550.00" y2="20.00" /><line x1="33.25" x2="33.25" y1="550.00" y2="20.00" /><line x1="550.00" x2="550.00" y1="550.00" y2="20.00" /><line x1="523.50" x2="523.50" y1="550.00" y2="20.00" /><line x1="497.00" x2="497.00" y1="550.00" y2="20.00" /><line x1="470.50" x2="470.50" y1="550.00" y2="20.00" /><line x1="444.00" x2="444.00" y1="550.00" y2="20.00" /><line x1="417.50" x2="417.50" y1="550.00" y2="20.00" /><line x1="391.00" x2="391.00" y1="550.00" y2="20.00" /><line x1="364.50" x2="364.50" y1="550.00" y2="20.00" /><line x1="338.00" x2="338.00" y1="550.00" y2="20.00" /><line x1="311.50" x2="311.50" y1="550.00" y2="20.00" /><line x1="285.00" x2="285.00" y1="550.00" y2="20.00" /><line x1="258.50" x2="258.50" y1="550.00" y2="20.00" /><line x1="232.00" x2="232.00" y1="550.00" y2="20.00" /><line x1="205.50" x2="205.50" y1="550.00" y2="20.00" /><line x1="179.00" x2="179.00" y1="550.00" y2="20.00" /><line x1="152.50" x2="152.50" y1="550.00" y2="20.00" /><line x1="126.00" x2="126.00" y1="550.00" y2="20.00" /><line x1="99.50" x2="99.50" y1="550.00" y2="20.00" /><line x1="73.00" x2="73.00" y1="550.00" y2="20.00" /><line x1="46.50" x2="46.50" y1="550.00" y2="20.00" /><line x1="20.00" x2="20.00" y1="550.00" y2="20.00" /><line x1="550.00" x2="20.00" y1="536.75" y2="536.75" /><line x1="550.00" x2="20.00" y1="510.25" y2="510.25" /><line x1="550.00" x2="20.00" y1="483.75" y2="483.75" /><line x1="550.00" x2="20.00" y1="457.25" y2="457.25" /><line x1="550.00" x2="20.00" y1="430.75" y2="430.75" /><line x1="550.00" x2="20.00" y1="404.25" y2="404.25" /><line x1="550.00" x2="20.00" y1="377.75" y2="377.75" /><line x1="550.00" x2="20.00" y1="351.25" y2="351.25" /><line x1="550.00" x2="20.00" y1="324.75" y2="324.75" /><line x1="550.00" x2="20.00" y1="298.25" y2="298.25" /><line x1="550.00" x2="20.00" y1="271.75" y2="271.75" /><line x1="550.00" x2="20.00" y1="245.25" y2="245.25" /><line x1="550.00" x2="20.00" y1="218.75" y2="218.75" /><line x1="550.00" x2="20.00" y1="192.25" y2="192.25" /><line x1="550.00" x2="20.00" y1="165.75" y2="165.75" /><line x1="550.00" x2="20.00" y1="139.25" y2="139.25" /><line x1="550.00" x2="20.00" y1="112.75" y2="112.75" /><line x1="550.00" x2="20.00" y1="86.25" y2="86.25" /><line x1="550.00" x2="20.00" y1="59.75" y2="59.75" /><line x1="550.00" x2="20.00" y1="33.25" y2="33.25" /><line x1="550.00" x2="20.00" y1="550.00" y2="550.00" /><line x1="550.00" x2="20.00" y1="523.50" y2="523.50" /><line x1="550.00" x2="20.00" y1="497.00" y2="497.00" /><line x1="550.00" x2="20.00" y1="470.50" y2="470.50" /><line x1="550.00" x2="20.00" y1="444.00" y2="444.00" /><line x1="550.00" x2="20.00" y1="417.50" y2="417.50" /><line x1="550.00" x2="20.00" y1="391.00" y2="391.00" /><line x1="550.00" x2="20.00" y1="364.50" y2="364.50" /><line x1="550.00" x2="20.00" y1="338.00" y2="338.00" /><line x1="550.00" x2="20.00" y1="311.50" y2="311.50" /><line x1="550.00" x2="20.00" y1="285.00" y2="285.00" /><line x1="550.00" x2="20.00" y1="258.50" y2="258.50" /><line x1="550.00" x2="20.00" y1="232.00" y2="232.00" /><line x1="550.00" x2="20.00" y1="205.50" y2="205.50" /><line x1="550.00" x2="20.00" y1="179.00" y2="179.00" /><line x1="550.00" x2="20.00" y1="152.50" y2="152.50" /><line x1="550.00" x2="20.00" y1="126.00" y2="126.00" /><line x1="550.00" x2="20.00" y1="99.50" y2="99.50" /><line x1="550.00" x2="20.00" y1="73.00" y2="73.00" /><line x1="550.00" x2="20.00" y1="46.50" y2="46.50" /><line x1="550.00" x2="20.00" y1="20.00" y2="20.00" /></g><g fill="#0af" stroke="none"><circle cx="535.50" cy="45.07" r="3" /><circle cx="457.67" cy="158.56" r="3" /><circle cx="455.44" cy="205.99" r="3" /><circle cx="451.30" cy="127.33" r="3" /><circle cx="442.69" cy="193.66" r="3" /><circle cx="439.60" cy="96.84" r="3" /><circle cx="437.39" cy="216.73" r="3" /><circle cx="426.09" cy="162.97" r="3" /><circle cx="423.96" cy="121.64" r="3" /><circle cx="422.77" cy="183.29" r="3" /><circle cx="420.31" cy="222.93" r="3" /><circle cx="418.78" cy="95.21" r="3" /><circle cx="406.10" cy="114.85" r="3" /><circle cx="404.74" cy="180.53" r="3" /><circle cx="402.07" cy="352.77" r="3" /><circle cx="401.21" cy="157.92" r="3" /><circle cx="398.17" cy="141.70" r="3" /><circle cx="395.80" cy="92.04" r="3" /><circle cx="389.09" cy="111.09" r="3" /><circle cx="379.73" cy="131.19" r="3" /><circle cx="378.33" cy="149.73" r="3" /><circle cx="377.29" cy="364.81" r="3" /><circle cx="376.70" cy="345.08" r="3" /><circle cx="376.14" cy="91.15" r="3" /><circle cx="375.38" cy="172.64" r="3" /><circle cx="365.73" cy="321.47" r="3" /><circle cx="365.56" cy="385.57" r="3" /><circle cx="359.48" cy="139.04" r="3" /><circle cx="358.26" cy="159.54" r="3" /><circle cx="357.61" cy="202.24" r="3" /><circle cx="357.00" cy="304.50" r="3" /><circle cx="350.93" cy="340.52" r="3" /><circle cx="347.15" cy="365.21" r="3" /><circle cx="346.66" cy="118.79" r="3" /><circle cx="344.57" cy="285.43" r="3" /><circle cx="341.17" cy="153.80" r="3" /><circle cx="338.19" cy="387.38" r="3" /><circle cx="337.65" cy="188.29" r="3" /><circle cx="337.09" cy="331.66" r="3" /><circle cx="334.31" cy="132.86" r="3" /><circle cx="333.70" cy="261.79" r="3" /><circle cx="333.23" cy="349.19" r="3" /><circle cx="328.72" cy="370.43" r="3" /><circle cx="326.48" cy="112.98" r="3" /><circle cx="325.63" cy="299.18" r="3" /><circle cx="322.65" cy="148.48" r="3" /><circle cx="321.62" cy="317.15" r="3" /><circle cx="318.41" cy="386.19" r="3" /><circle cx="315.78" cy="404.97" r="3" /><circle cx="313.74" cy="287.54" r="3" /><circle cx="312.86" cy="349.16" r="3" /><circle cx="312.25" cy="174.62" r="3" /><circle cx="306.37" cy="317.88" r="3" /><circle cx="304.34" cy="268.96" r="3" /><circle cx="300.93" cy="378.59" r="3" /><circle cx="296.74" cy="416.61" r="3" /><circle cx="295.36" cy="354.05" r="3" /><circle cx="294.57" cy="295.27" r="3" /><circle cx="294.26" cy="397.94" r="3" /><circle cx="282.38" cy="258.71" r="3" /><circle cx="281.30" cy="318.62" r="3" /><circle cx="276.62" cy="396.12" r="3" /><circle cx="271.12" cy="289.21" r="3" /><circle cx="266.13" cy="308.69" r="3" /><circle cx="257.40" cy="325.54" r="3" /><circle cx="251.49" cy="72.13" r="3" /><circle cx="235.75" cy="291.92" r="3" /><circle cx="189.20" cy="404.80" r="3" /><circle cx="179.21" cy="361.14" r="3" /><circle cx="170.64" cy="400.32" r="3" /><circle cx="169.06" cy="431.32" r="3" /><circle cx="160.11" cy="415.27" r="3" /><circle cx="159.59" cy="374.37" r="3" /><circle cx="154.32" cy="449.80" r="3" /><circle cx="152.35" cy="391.10" r="3" /><circle cx="146.78" cy="432.19" r="3" /><circle cx="144.21" cy="369.33" r="3" /><circle cx="136.59" cy="419.84" r="3" /><circle cx="134.95" cy="386.03" r="3" /><circle cx="131.05" cy="456.91" r="3" /><circle cx="129.66" cy="405.58" r="3" /><circle cx="118.70" cy="433.19" r="3" /><circle cx="118.29" cy="389.92" r="3" /><circle cx="116.81" cy="469.34" r="3" /><circle cx="110.71" cy="349.26" r="3" /><circle cx="106.01" cy="375.51" r="3" /><circle cx="101.95" cy="433.80" r="3" /><circle cx="101.91" cy="454.65" r="3" /><circle cx="98.22" cy="415.91" r="3" /><circle cx="91.49" cy="392.59" r="3" /><circle cx="88.97" cy="352.14" r="3" /><circle cx="87.95" cy="370.65" r="3" /><circle cx="77.33" cy="427.54" r="3" /><circle cx="76.28" cy="388.11" r="3" /></g><g stroke="black"><line x1="550.00" x2="550.00" y1="50.00" y2="60.00" /><line x1="523.50" x2="523.50" y1="50.00" y2="60.00" /><line x1="497.00" x2="497.00" y1="50.00" y2="60.00" /><line x1="470.50" x2="470.50" y1="50.00" y2="60.00" /><line x1="444.00" x2="444.00" y1="50.00" y2="60.00" /><line x1="417.50" x2="417.50" y1="50.00" y2="60.00" /><line x1="391.00" x2="391.00" y1="50.00" y2="60.00" /><line x1="364.50" x2="364.50" y1="50.00" y2="60.00" /><line x1="338.00" x2="338.00" y1="50.00" y2="60.00" /><line x1="311.50" x2="311.50" y1="50.00" y2="60.00" /><line x1="285.00" x2="285.00" y1="50.00" y2="60.00" /><line x1="258.50" x2="258.50" y1="50.00" y2="60.00" /><line x1="232.00" x2="232.00" y1="50.00" y2="60.00" /><line x1="205.50" x2="205.50" y1="50.00" y2="60.00" /><line x1="179.00" x2="179.00" y1="50.00" y2="60.00" /><line x1="152.50" x2="152.50" y1="50.00" y2="60.00" /><line x1="126.00" x2="126.00" y1="50.00" y2="60.00" /><line x1="99.50" x2="99.50" y1="50.00" y2="60.00" /><line x1="73.00" x2="73.00" y1="50.00" y2="60.00" /><line x1="46.50" x2="46.50" y1="50.00" y2="60.00" /><line x1="20.00" x2="20.00" y1="50.00" y2="60.00" /><line x1="536.75" x2="536.75" y1="50.00" y2="55.00" /><line x1="510.25" x2="510.25" y1="50.00" y2="55.00" /><line x1="483.75" x2="483.75" y1="50.00" y2="55.00" /><line x1="457.25" x2="457.25" y1="50.00" y2="55.00" /><line x1="430.75" x2="430.75" y1="50.00" y2="55.00" /><line x1="404.25" x2="404.25" y1="50.00" y2="55.00" /><line x1="377.75" x2="377.75" y1="50.00" y2="55.00" /><line x1="351.25" x2="351.25" y1="50.00" y2="55.00" /><line x1="324.75" x2="324.75" y1="50.00" y2="55.00" /><line x1="298.25" x2="298.25" y1="50.00" y2="55.00" /><line x1="271.75" x2="271.75" y1="50.00" y2="55.00" /><line x1="245.25" x2="245.25" y1="50.00" y2="55.00" /><line x1="218.75" x2="218.75" y1="50.00" y2="55.00" /><line x1="192.25" x2="192.25" y1="50.00" y2="55.00" /><line x1="165.75" x2="165.75" y1="50.00" y2="55.00" /><line x1="139.25" x2="139.25" y1="50.00" y2="55.00" /><line x1="112.75" x2="112.75" y1="50.00" y2="55.00" /><line x1="86.25" x2="86.25" y1="50.00" y2="55.00" /><line x1="59.75" x2="59.75" y1="50.00" y2="55.00" /><line x1="33.25" x2="33.25" y1="50.00" y2="55.00" /><g fill="black" font-family="Arial, sans-serif" font-size="10" stroke="none" text-anchor="end"><text x="550.00" y="65.00">-100.00</text><text x="523.50" y="65.00">-90.00</text><text x="497.00" y="65.00">-80.00</text><text x="470.50" y="65.00">-70.00</text><text x="444.00" y="65.00">-60.00</text><text x="417.50" y="65.00">-50.00</text><text x="391.00" y="65.00">-40.00</text><text x="364.50" y="65.00">-30.00</text><text x="338.00" y="65.00">-20.00</text><text x="311.50" y="65.00">-10.00</text><text x="285.00" y="65.00">0.00</text><text x="258.50" y="65.00">10.00</text><text x="232.00" y="65.00">20.00</text><text x="205.50" y="65.00">30.00</text><text x="179.00" y="65.00">40.00</text><text x="152.50" y="65.00">50.00</text><text x="126.00" y="65.00">60.00</text><text x="99.50" y="65.00">70.00</text><text x="73.00" y="65.00">80.00</text><text x="46.50" y="65.00">90.00</text><text x="20.00" y="65.00">100.00</text></g><line x1="550.00" x2="20.00" y1="50.00" y2="50.00" /></g><g stroke="black"><line x1="50.00" x2="40.00" y1="550.00" y2="550.00" /><line x1="50.00" x2="40.00" y1="523.50" y2="523.50" /><line x1="50.00" x2="40.00" y1="497.00" y2="497.00" /><line x1="50.00" x2="40.00" y1="470.50" y2="470.50" /><line x1="50.00" x2="40.00" y1="444.00" y2="444.00" /><line x1="50.00" x2="40.00" y1="417.50" y2="417.50" /><line x1="50.00" x2="40.00" y1="391.00" y2="391.00" /><line x1="50.00" x2="40.00" y1="364.50" y2="364.50" /><line x1="50.00" x2="40.00" y1="338.00" y2="338.00" /><line x1="50.00" x2="40.00" y1="311.50" y2="311.50" /><line x1="50.00" x2="40.00" y1="285.00" y2="285.00" /><line x1="50.00" x2="40.00" y1="258.50" y2="258.50" /><line x1="50.00" x2="40.00" y1="232.00" y2="232.00" /><line x1="50.00" x2="40.00" y1="205.50" y2="205.50" /><line x1="50.00" x2="40.00" y1="179.00" y2="179.00" /><line x1="50.00" x2="40.00" y1="152.50" y2="152.50" /><line x1="50.00" x2="40.00" y1="126.00" y2="126.00" /><line x1="50.00" x2="40.00" y1="99.50" y2="99.50" /><line x1="50.00" x2="40.00" y1="73.00" y2="73.00" /><line x1="50.00" x2="40.00" y1="46.50" y2="46.50" /><line x1="50.00" x2="40.00" y1="20.00" y2="20.00" /><line x1="50.00" x2="45.00" y1="536.75" y2="536.75" /><line x1="50.00" x2="45.00" y1="510.25" y2="510.25" /><line x1="50.00" x2="45.00" y1="483.75" y2="483.75" /><line x1="50.00" x2="45.00" y1="457.25" y2="457.25" /><line x1="50.00" x2="45.00" y1="430.75" y2="430.75" /><line x1="50.00" x2="45.00" y1="404.25" y2="404.25" /><line x1="50.00" x2="45.00" y1="377.75" y2="377.75" /><line x1="50.00" x2="45.00" y1="351.25" y2="351.25" /><line x1="50.00" x2="45.00" y1="324.75" y2="324.75" /><line x1="50.00" x2="45.00" y1="298.25" y2="298.25" /><line x1="50.00" x2="45.00" y1="271.75" y2="271.75" /><line x1="50.00" x2="45.00" y1="245.25" y2="245.25" /><line x1="50.00" x2="45.00" y1="218.75" y2="218.75" /><line x1="50.00" x2="45.00" y1="192.25" y2="192.25" /><line x1="50.00" x2="45.00" y1="165.75" y2="165.75" /><line x1="50.00" x2="45.00" y1="139.25" y2="139.25" /><line x1="50.00" x2="45.00" y1="112.75" y2="112.75" /><line x1="50.00" x2="45.00" y1="86.25" y2="86.25" /><line x1="50.00" x2="45.00" y1="59.75" y2="59.75" /><line x1="50.00" x2="45.00" y1="33.25" y2="33.25" /><g fill="black" font-family="Arial, sans-serif" font-size="10" stroke="none" text-anchor="end"><text x="35.00" y="550.00">-100.00</text><text x="35.00" y="523.50">-90.00</text><text x="35.00" y="497.00">-80.00</text><text x="35.00" y="470.50">-70.00</text><text x="35.00" y="444.00">-60.00</text><text x="35.00" y="417.50">-50.00</text><text x="35.00" y="391.00">-40.00</text><text x="35.00" y="364.50">-30.00</text><text x="35.00" y="338.00">-20.00</text><text x="35.00" y="311.50">-10.00</text><text x="35.00" y="285.00">0.00</text><text x="35.00" y="258.50">10.00</text><text x="35.00" y="232.00">20.00</text><text x="35.00" y="205.50">30.00</text><text x="35.00" y="179.00">40.00</text><text x="35.00" y="152.50">50.00</text><text x="35.00" y="126.00">60.00</text><text x="35.00" y="99.50">70.00</text><text x="35.00" y="73.00">80.00</text><text x="35.00" y="46.50">90.00</text><text x="35.00" y="20.00">100.00</text></g><line x1="50.00" x2="50.00" y1="550.00" y2="20.00" /></g></g></svg>